<?xml version="1.0" encoding="UTF-8" standalone="no"?>
<!-- Created with Inkscape (http://www.inkscape.org/) -->

<svg
   xmlns:dc="http://purl.org/dc/elements/1.1/"
   xmlns:cc="http://creativecommons.org/ns#"
   xmlns:rdf="http://www.w3.org/1999/02/22-rdf-syntax-ns#"
   xmlns:svg="http://www.w3.org/2000/svg"
   xmlns="http://www.w3.org/2000/svg"
   xmlns:xlink="http://www.w3.org/1999/xlink"
   version="1.1"
   width="704.13318"
   height="348.20844"
   id="svg4019">
  <defs
     id="defs4021">
    <radialGradient
       cx="404.85159"
       cy="658.8125"
       r="28.365055"
       fx="404.85159"
       fy="658.8125"
       id="radialGradient4474"
       xlink:href="#linearGradient4371"
       gradientUnits="userSpaceOnUse" />
    <linearGradient
       id="linearGradient4371">
      <stop
         id="stop4373"
         style="stop-color:#3e3e3a;stop-opacity:1"
         offset="0" />
      <stop
         id="stop4375"
         style="stop-color:#52514c;stop-opacity:1"
         offset="1" />
    </linearGradient>
    <radialGradient
       cx="353.74905"
       cy="2135.165"
       r="186.18117"
       fx="353.74905"
       fy="2135.165"
       id="radialGradient4448"
       xlink:href="#linearGradient4438"
       gradientUnits="userSpaceOnUse"
       gradientTransform="matrix(-0.99963468,-0.12031867,0.13406401,-1.1138347,552.89133,2865.474)" />
    <linearGradient
       id="linearGradient4438">
      <stop
         id="stop4440"
         style="stop-color:#3d3c37;stop-opacity:1"
         offset="0" />
      <stop
         id="stop4446"
         style="stop-color:#6f6d64;stop-opacity:1"
         offset="1" />
    </linearGradient>
    <radialGradient
       cx="404.85159"
       cy="658.8125"
       r="28.365055"
       fx="404.85159"
       fy="658.8125"
       id="radialGradient4381"
       xlink:href="#linearGradient4371"
       gradientUnits="userSpaceOnUse" />
    <linearGradient
       id="linearGradient3932">
      <stop
         id="stop3934"
         style="stop-color:#3e3e3a;stop-opacity:1"
         offset="0" />
      <stop
         id="stop3936"
         style="stop-color:#52514c;stop-opacity:1"
         offset="1" />
    </linearGradient>
    <radialGradient
       cx="404.85159"
       cy="658.8125"
       r="120.07776"
       fx="404.85159"
       fy="658.8125"
       id="radialGradient4415"
       xlink:href="#linearGradient4409"
       gradientUnits="userSpaceOnUse" />
    <linearGradient
       id="linearGradient4409">
      <stop
         id="stop4411"
         style="stop-color:#837f77;stop-opacity:1"
         offset="0" />
      <stop
         id="stop4417"
         style="stop-color:#837f77;stop-opacity:1"
         offset="0.82222223" />
      <stop
         id="stop4413"
         style="stop-color:#6f6c65;stop-opacity:1"
         offset="1" />
    </linearGradient>
    <radialGradient
       cx="404.85159"
       cy="658.8125"
       r="28.365055"
       fx="404.85159"
       fy="658.8125"
       id="radialGradient4399"
       xlink:href="#linearGradient4391"
       gradientUnits="userSpaceOnUse" />
    <linearGradient
       id="linearGradient4391">
      <stop
         id="stop4393"
         style="stop-color:#676761;stop-opacity:1"
         offset="0" />
      <stop
         id="stop4395"
         style="stop-color:#52514c;stop-opacity:1"
         offset="1" />
    </linearGradient>
    <radialGradient
       cx="404.85159"
       cy="658.8125"
       r="28.365055"
       fx="404.85159"
       fy="658.8125"
       id="radialGradient4389"
       xlink:href="#linearGradient4391"
       gradientUnits="userSpaceOnUse" />
    <linearGradient
       id="linearGradient3948">
      <stop
         id="stop3950"
         style="stop-color:#676761;stop-opacity:1"
         offset="0" />
      <stop
         id="stop3952"
         style="stop-color:#52514c;stop-opacity:1"
         offset="1" />
    </linearGradient>
    <radialGradient
       cx="404.85159"
       cy="658.8125"
       r="28.365055"
       fx="404.85159"
       fy="658.8125"
       id="radialGradient4385"
       xlink:href="#linearGradient4371"
       gradientUnits="userSpaceOnUse" />
    <linearGradient
       id="linearGradient3955">
      <stop
         id="stop3957"
         style="stop-color:#3e3e3a;stop-opacity:1"
         offset="0" />
      <stop
         id="stop3959"
         style="stop-color:#52514c;stop-opacity:1"
         offset="1" />
    </linearGradient>
    <linearGradient
       x1="582.789"
       y1="2322.1162"
       x2="627.03485"
       y2="2287.0469"
       id="linearGradient4494"
       xlink:href="#linearGradient4478"
       gradientUnits="userSpaceOnUse"
       gradientTransform="matrix(0.98079898,-0.19502147,0.19502147,0.98079898,-485.19608,-1525.6642)" />
    <linearGradient
       id="linearGradient4478">
      <stop
         id="stop4480"
         style="stop-color:#6f6d64;stop-opacity:1"
         offset="0" />
      <stop
         id="stop4486"
         style="stop-color:#5a5852;stop-opacity:1"
         offset="0.5" />
      <stop
         id="stop4482"
         style="stop-color:#6f6d64;stop-opacity:1"
         offset="1" />
    </linearGradient>
    <radialGradient
       cx="404.85159"
       cy="658.8125"
       r="28.365055"
       fx="404.85159"
       fy="658.8125"
       id="radialGradient4496"
       xlink:href="#linearGradient4371"
       gradientUnits="userSpaceOnUse" />
    <linearGradient
       id="linearGradient3967">
      <stop
         id="stop3969"
         style="stop-color:#3e3e3a;stop-opacity:1"
         offset="0" />
      <stop
         id="stop3971"
         style="stop-color:#52514c;stop-opacity:1"
         offset="1" />
    </linearGradient>
    <linearGradient
       x1="582.789"
       y1="2322.1162"
       x2="627.03485"
       y2="2287.0469"
       id="linearGradient4490"
       xlink:href="#linearGradient4478"
       gradientUnits="userSpaceOnUse"
       gradientTransform="matrix(0.99579671,-0.09159102,0.09159102,0.99579671,-204.23542,-1682.3613)" />
    <linearGradient
       id="linearGradient3974">
      <stop
         id="stop3976"
         style="stop-color:#6f6d64;stop-opacity:1"
         offset="0" />
      <stop
         id="stop3978"
         style="stop-color:#5a5852;stop-opacity:1"
         offset="0.5" />
      <stop
         id="stop3980"
         style="stop-color:#6f6d64;stop-opacity:1"
         offset="1" />
    </linearGradient>
    <radialGradient
       cx="404.85159"
       cy="658.8125"
       r="28.365055"
       fx="404.85159"
       fy="658.8125"
       id="radialGradient4377"
       xlink:href="#linearGradient4371"
       gradientUnits="userSpaceOnUse" />
    <linearGradient
       id="linearGradient3983">
      <stop
         id="stop3985"
         style="stop-color:#3e3e3a;stop-opacity:1"
         offset="0" />
      <stop
         id="stop3987"
         style="stop-color:#52514c;stop-opacity:1"
         offset="1" />
    </linearGradient>
    <linearGradient
       x1="582.789"
       y1="2322.1162"
       x2="627.03485"
       y2="2287.0469"
       id="linearGradient4484"
       xlink:href="#linearGradient4478"
       gradientUnits="userSpaceOnUse"
       gradientTransform="translate(63.320849,-1792.4159)" />
    <linearGradient
       id="linearGradient3990">
      <stop
         id="stop3992"
         style="stop-color:#6f6d64;stop-opacity:1"
         offset="0" />
      <stop
         id="stop3994"
         style="stop-color:#5a5852;stop-opacity:1"
         offset="0.5" />
      <stop
         id="stop3996"
         style="stop-color:#6f6d64;stop-opacity:1"
         offset="1" />
    </linearGradient>
  </defs>
  <metadata
     id="metadata4024">
    <rdf:RDF>
      <cc:Work
         rdf:about="">
        <dc:format>image/svg+xml</dc:format>
        <dc:type
           rdf:resource="http://purl.org/dc/dcmitype/StillImage" />
        <dc:title></dc:title>
      </cc:Work>
    </rdf:RDF>
  </metadata>
  <g
     transform="translate(-56.500823,-358.25)"
     id="layer1">
    <path
       d="m 135.49012,414.33889 c 0,0 1.13101,-17.2882 3.23145,-21.4891 18.41926,-11.3101 84.82552,-32.3145 131.03523,-34.0918 5.00874,3.393 9.85592,13.8952 9.85592,13.8952"
       id="path4426"
       style="fill:#938f84;fill-opacity:1;stroke:#000000;stroke-width:1px;stroke-linecap:butt;stroke-linejoin:miter;stroke-opacity:1" />
    <path
       d="m 682.77061,414.33894 c 0,0 -1.13101,-17.2882 -3.23145,-21.4891 -18.41925,-11.3101 -84.82551,-32.3145 -131.03522,-34.0918 -5.00874,3.393 -9.85592,13.8952 -9.85592,13.8952"
       id="path4428"
       style="fill:#938f84;fill-opacity:1;stroke:#000000;stroke-width:1px;stroke-linecap:butt;stroke-linejoin:miter;stroke-opacity:1" />
    <path
       d="m 527.81434,690.99784 c 40.88398,20.9945 146.07984,30.18 198.89503,-43.6464 52.81519,-73.8264 43.79011,-173.1823 -32.20843,-225.4471 -70.85872,-48.73 -209.41282,-58.1882 -285.92951,-58.1882 -76.51668,0 -215.07078,9.4582 -285.92951,58.1882 -75.998538,52.2648 -85.023618,151.6207 -32.208428,225.4471 52.815188,73.8264 158.011058,64.6409 198.895038,43.6464 40.88398,-20.9944 66.82946,-49.1713 119.2429,-49.1713 52.41345,0 78.35893,28.1769 119.24291,49.1713 z"
       id="path4421"
       style="fill:#6f6d64;fill-opacity:1;stroke:#000000;stroke-width:1px;stroke-linecap:butt;stroke-linejoin:miter;stroke-opacity:1" />
    <path
       d="m 694.91808,545.31334 c 17.53472,-17.1875 -13.71528,-92.3612 -51.38889,-63.5417 -37.67361,28.8194 33.85417,80.7292 51.38889,63.5417 z"
       id="path4476"
       style="fill:url(#linearGradient4484);fill-opacity:1;stroke:#6f6d64;stroke-width:1px;stroke-linecap:butt;stroke-linejoin:miter;stroke-opacity:1" />
    <path
       d="m 432.71665,658.8125 a 27.865055,27.865055 0 1 1 -55.73011,0 27.865055,27.865055 0 1 1 55.73011,0 z"
       transform="translate(255.86961,-155.77826)"
       id="path4359"
       style="fill:url(#radialGradient4377);fill-opacity:1;stroke:#000000;stroke-width:1;stroke-linecap:round;stroke-linejoin:round;stroke-miterlimit:4;stroke-opacity:1;stroke-dasharray:none" />
    <path
       d="m 638.82203,587.69304 c 15.88679,-18.7213 -22.11709,-90.7168 -56.99274,-58.5679 -34.87566,32.1489 41.10594,77.2892 56.99274,58.5679 z"
       id="path4488"
       style="fill:url(#linearGradient4490);fill-opacity:1;stroke:#6f6d64;stroke-width:1px;stroke-linecap:butt;stroke-linejoin:miter;stroke-opacity:1" />
    <path
       d="m 432.71665,658.8125 a 27.865055,27.865055 0 1 1 -55.73011,0 27.865055,27.865055 0 1 1 55.73011,0 z"
       transform="translate(195.09613,-110.47436)"
       id="path4379"
       style="fill:url(#radialGradient4496);fill-opacity:1;stroke:#000000;stroke-width:1;stroke-linecap:round;stroke-linejoin:round;stroke-miterlimit:4;stroke-opacity:1;stroke-dasharray:none" />
    <path
       d="m 590.18123,644.00324 c 13.84609,-20.2772 -31.46436,-87.913 -62.79418,-52.2998 -31.32983,35.6133 48.94807,72.5769 62.79418,52.2998 z"
       id="path4492"
       style="fill:url(#linearGradient4494);fill-opacity:1;stroke:#6f6d64;stroke-width:1px;stroke-linecap:butt;stroke-linejoin:miter;stroke-opacity:1" />
    <path
       d="m 432.71665,658.8125 a 27.865055,27.865055 0 1 1 -55.73011,0 27.865055,27.865055 0 1 1 55.73011,0 z"
       transform="translate(142.60993,-50.253362)"
       id="path4383"
       style="fill:url(#radialGradient4385);fill-opacity:1;stroke:#000000;stroke-width:1;stroke-linecap:round;stroke-linejoin:round;stroke-miterlimit:4;stroke-opacity:1;stroke-dasharray:none" />
    <path
       d="m 427.52958,658.8125 a 22.677982,22.677982 0 1 1 -45.35597,0 22.677982,22.677982 0 1 1 45.35597,0 z"
       transform="translate(44.493594,-160.03606)"
       id="path4432"
       style="fill:#1a1a1a;fill-opacity:1;stroke:#000000;stroke-width:1;stroke-linecap:round;stroke-linejoin:round;stroke-miterlimit:4;stroke-opacity:1;stroke-dasharray:none" />
    <path
       d="m 422.7719,658.8125 a 17.920303,17.920303 0 1 1 -35.84061,0 17.920303,17.920303 0 1 1 35.84061,0 z"
       transform="translate(44.667393,-160.03606)"
       id="path4387"
       style="fill:url(#radialGradient4389);fill-opacity:1;stroke:#000000;stroke-width:1;stroke-linecap:round;stroke-linejoin:round;stroke-miterlimit:4;stroke-opacity:1;stroke-dasharray:none" />
    <path
       d="m 427.52958,658.8125 a 22.677982,22.677982 0 1 1 -45.35597,0 22.677982,22.677982 0 1 1 45.35597,0 z"
       transform="translate(-42.072939,-160.03606)"
       id="path4430"
       style="fill:#1a1a1a;fill-opacity:1;stroke:#000000;stroke-width:1;stroke-linecap:round;stroke-linejoin:round;stroke-miterlimit:4;stroke-opacity:1;stroke-dasharray:none" />
    <path
       d="m 422.7719,658.8125 a 17.920303,17.920303 0 1 1 -35.84061,0 17.920303,17.920303 0 1 1 35.84061,0 z"
       transform="translate(-42.072939,-160.03606)"
       id="path4397"
       style="fill:url(#radialGradient4399);fill-opacity:1;stroke:#000000;stroke-width:1;stroke-linecap:round;stroke-linejoin:round;stroke-miterlimit:4;stroke-opacity:1;stroke-dasharray:none" />
    <path
       d="m 524.42935,658.8125 a 119.57776,119.57776 0 1 1 -239.15552,0 119.57776,119.57776 0 1 1 239.15552,0 z"
       transform="translate(-191.6442,-107.15946)"
       id="path4401"
       style="fill:url(#radialGradient4415);fill-opacity:1;stroke:#000000;stroke-width:1;stroke-linecap:round;stroke-linejoin:round;stroke-miterlimit:4;stroke-opacity:1;stroke-dasharray:none" />
    <path
       d="m 502.88239,658.8125 a 98.0308,98.0308 0 1 1 -196.0616,0 98.0308,98.0308 0 1 1 196.0616,0 z"
       transform="translate(-191.6442,-107.15946)"
       id="path4405"
       style="fill:#837f77;fill-opacity:1;stroke:#000000;stroke-width:1;stroke-linecap:round;stroke-linejoin:round;stroke-miterlimit:4;stroke-opacity:1;stroke-dasharray:none" />
    <path
       d="m 486.86029,658.8125 a 82.008698,82.008698 0 1 1 -164.01739,0 82.008698,82.008698 0 1 1 164.01739,0 z"
       transform="translate(-191.6442,-107.15946)"
       id="path4407"
       style="fill:#1a1a1a;fill-opacity:1;stroke:#000000;stroke-width:1;stroke-linecap:round;stroke-linejoin:round;stroke-miterlimit:4;stroke-opacity:1;stroke-dasharray:none" />
    <path
       d="m 407.49937,658.8125 a 2.6477799,2.6477799 0 1 1 -5.29556,0 2.6477799,2.6477799 0 1 1 5.29556,0 z"
       transform="translate(195.09613,-110.47436)"
       id="path4434"
       style="fill:url(#radialGradient4381);fill-opacity:1;stroke:#4d4d4d;stroke-width:1;stroke-linecap:round;stroke-linejoin:round;stroke-miterlimit:4;stroke-opacity:1;stroke-dasharray:none" />
    <path
       d="m 160.36912,440.22779 c 208.01286,-67.3509 359.70131,-11.6225 370.13176,58.4104 10.43044,70.033 -48.87409,97.4502 -48.87409,118.0131 0,20.5629 22.05294,32.1854 22.05294,32.1854"
       id="path4436"
       style="fill:none;stroke:url(#radialGradient4448);stroke-width:1px;stroke-linecap:butt;stroke-linejoin:miter;stroke-opacity:1" />
    <path
       d="m 483.66005,658.8125 a 78.808456,78.808456 0 1 1 -157.61691,0 78.808456,78.808456 0 1 1 157.61691,0 z"
       transform="translate(-191.6442,-107.15946)"
       id="path4458"
       style="fill:#837f77;fill-opacity:1;stroke:#000000;stroke-width:1;stroke-linecap:round;stroke-linejoin:round;stroke-miterlimit:4;stroke-opacity:1;stroke-dasharray:none" />
    <path
       d="m 213.20739,475.43434 c -13.06362,0 -23.65625,10.5926 -23.65625,23.6562 0,5.2914 1.75197,10.1846 4.6875,14.125 l 0,19.4688 -19.46875,0 c -3.9405,-2.9359 -8.8332,-4.6876 -14.125,-4.6876 -13.06361,0 -23.65625,10.5925 -23.65625,23.6563 0,13.0636 10.59264,23.6563 23.65625,23.6563 5.3071,0 10.20985,-1.7363 14.15625,-4.6876 l 19.4375,0 0,19.4688 c -2.93591,3.9405 -4.6875,8.8332 -4.6875,14.125 0,13.0636 10.59263,23.6562 23.65625,23.6562 13.06362,0 23.65625,-10.5926 23.65625,-23.6562 0,-5.3071 -1.73612,-10.2099 -4.6875,-14.1562 l 0,-19.4376 19.4375,0 c 3.9464,2.9513 8.84915,4.6876 14.15625,4.6876 13.0636,0 23.65625,-10.5927 23.65625,-23.6563 0,-13.0638 -10.59265,-23.6563 -23.65625,-23.6563 -5.2914,0 -10.1846,1.7519 -14.125,4.6876 l -19.46875,0 0,-19.4376 c 2.95138,-3.9464 4.6875,-8.8491 4.6875,-14.1562 0,-13.0636 -10.59263,-23.6562 -23.65625,-23.6562 z"
       id="path4460"
       style="fill:#938c83;fill-opacity:1;stroke:#000000;stroke-width:1;stroke-linecap:round;stroke-linejoin:round;stroke-miterlimit:4;stroke-opacity:1;stroke-dasharray:none" />
    <path
       d="m 411.94324,658.8125 a 7.0916519,7.0916519 0 1 1 -14.1833,0 7.0916519,7.0916519 0 1 1 14.1833,0 z"
       transform="translate(-191.6442,-107.15946)"
       id="path4472"
       style="fill:url(#radialGradient4474);fill-opacity:1;stroke:#000000;stroke-width:1;stroke-linecap:round;stroke-linejoin:round;stroke-miterlimit:4;stroke-opacity:1;stroke-dasharray:none" />
  </g>
</svg>
