<?xml version="1.0" encoding="UTF-8" standalone="no"?>
<!-- Created with Inkscape (http://www.inkscape.org/) -->

<svg
   xmlns:dc="http://purl.org/dc/elements/1.1/"
   xmlns:cc="http://creativecommons.org/ns#"
   xmlns:rdf="http://www.w3.org/1999/02/22-rdf-syntax-ns#"
   xmlns:svg="http://www.w3.org/2000/svg"
   xmlns="http://www.w3.org/2000/svg"
   xmlns:xlink="http://www.w3.org/1999/xlink"
   version="1.1"
   width="673.03125"
   height="293.78125"
   id="svg3726">
  <defs
     id="defs3728">
    <radialGradient
       cx="404.85159"
       cy="658.8125"
       r="28.365055"
       fx="404.85159"
       fy="658.8125"
       id="radialGradient4155"
       xlink:href="#linearGradient4145"
       gradientUnits="userSpaceOnUse" />
    <linearGradient
       id="linearGradient4145">
      <stop
         id="stop4147"
         style="stop-color:#a20000;stop-opacity:1"
         offset="0" />
      <stop
         id="stop4149"
         style="stop-color:#ff0000;stop-opacity:1"
         offset="1" />
    </linearGradient>
    <radialGradient
       cx="404.85159"
       cy="658.8125"
       r="28.365055"
       fx="404.85159"
       fy="658.8125"
       id="radialGradient4143"
       xlink:href="#linearGradient4145"
       gradientUnits="userSpaceOnUse" />
    <linearGradient
       id="linearGradient3705">
      <stop
         id="stop3707"
         style="stop-color:#a20000;stop-opacity:1"
         offset="0" />
      <stop
         id="stop3709"
         style="stop-color:#ff0000;stop-opacity:1"
         offset="1" />
    </linearGradient>
  </defs>
  <metadata
     id="metadata3731">
    <rdf:RDF>
      <cc:Work
         rdf:about="">
        <dc:format>image/svg+xml</dc:format>
        <dc:type
           rdf:resource="http://purl.org/dc/dcmitype/StillImage" />
        <dc:title></dc:title>
      </cc:Work>
    </rdf:RDF>
  </metadata>
  <g
     transform="translate(765.09375,-242.625)"
     id="layer1">
    <rect
       width="672.02454"
       height="292.77817"
       rx="13"
       ry="13"
       x="-764.58368"
       y="243.11595"
       id="rect4131"
       style="fill:#b3b3b3;fill-opacity:1;stroke:#000000;stroke-width:1;stroke-linecap:butt;stroke-linejoin:miter;stroke-miterlimit:4;stroke-opacity:1;stroke-dasharray:none;stroke-dashoffset:0" />
    <rect
       width="633.34143"
       height="225.27232"
       rx="5"
       ry="5"
       x="-745.6214"
       y="289.38403"
       id="rect4135"
       style="fill:#333333;fill-opacity:1;stroke:#000000;stroke-width:1;stroke-linecap:butt;stroke-linejoin:miter;stroke-miterlimit:4;stroke-opacity:1;stroke-dasharray:none;stroke-dashoffset:0" />
    <rect
       width="187.3477"
       height="67.505836"
       rx="13"
       ry="13"
       x="-546.13782"
       y="415.29382"
       id="rect4133"
       style="fill:#b3b3b3;fill-opacity:1;stroke:#000000;stroke-width:1;stroke-linecap:butt;stroke-linejoin:miter;stroke-miterlimit:4;stroke-opacity:1;stroke-dasharray:none;stroke-dashoffset:0" />
    <rect
       width="75.849297"
       height="72.815292"
       rx="5"
       ry="5"
       x="-329.96741"
       y="411.50134"
       id="rect4137"
       style="fill:#b3b3b3;fill-opacity:1;stroke:#000000;stroke-width:1;stroke-linecap:butt;stroke-linejoin:miter;stroke-miterlimit:4;stroke-opacity:1;stroke-dasharray:none;stroke-dashoffset:0" />
    <path
       d="m 432.71665,658.8125 a 27.865055,27.865055 0 1 1 -55.73011,0 27.865055,27.865055 0 1 1 55.73011,0 z"
       transform="translate(-696.89433,-210.90352)"
       id="path4141"
       style="fill:url(#radialGradient4143);fill-opacity:1;stroke:#000000;stroke-width:1;stroke-linecap:round;stroke-linejoin:round;stroke-miterlimit:4;stroke-opacity:1;stroke-dasharray:none" />
    <rect
       width="75.849297"
       height="72.815292"
       rx="5"
       ry="5"
       x="-242.46687"
       y="411.50134"
       id="rect4151"
       style="fill:#b3b3b3;fill-opacity:1;stroke:#000000;stroke-width:1;stroke-linecap:butt;stroke-linejoin:miter;stroke-miterlimit:4;stroke-opacity:1;stroke-dasharray:none;stroke-dashoffset:0" />
    <path
       d="m 432.71665,658.8125 a 27.865055,27.865055 0 1 1 -55.73011,0 27.865055,27.865055 0 1 1 55.73011,0 z"
       transform="translate(-609.39384,-210.90352)"
       id="path4153"
       style="fill:url(#radialGradient4155);fill-opacity:1;stroke:#000000;stroke-width:1;stroke-linecap:round;stroke-linejoin:round;stroke-miterlimit:4;stroke-opacity:1;stroke-dasharray:none" />
    <rect
       width="52.937737"
       height="22.86083"
       rx="12"
       ry="12"
       x="-522.39044"
       y="437.14136"
       id="rect4157"
       style="fill:#333333;fill-opacity:1;stroke:#000000;stroke-width:1;stroke-linecap:butt;stroke-linejoin:miter;stroke-miterlimit:4;stroke-opacity:1;stroke-dasharray:none;stroke-dashoffset:0" />
    <rect
       width="52.937737"
       height="22.86083"
       rx="12"
       ry="12"
       x="-435.00024"
       y="437.14136"
       id="rect4159"
       style="fill:#333333;fill-opacity:1;stroke:#000000;stroke-width:1;stroke-linecap:butt;stroke-linejoin:miter;stroke-miterlimit:4;stroke-opacity:1;stroke-dasharray:none;stroke-dashoffset:0" />
    <path
       d="m -668.62583,350.95246 c -2.77,0 -5,2.2301 -5,5 l 0,32.9376 -32.90625,0 c -2.77,0 -5,2.23 -5,5 l 0,44.125 c 0,2.7699 2.23,5 5,5 l 32.90625,0 0,32.9374 c 0,2.77 2.23,5 5,5 l 44.15625,0 c 2.77,0 5,-2.23 5,-5 l 0,-32.9374 32.90625,0 c 2.77,0 5,-2.2301 5,-5 l 0,-44.125 c 0,-2.77 -2.23,-5 -5,-5 l -32.90625,0 0,-32.9376 c 0,-2.7699 -2.23,-5 -5,-5 l -44.15625,0 z"
       id="rect4161"
       style="fill:none;stroke:#999999;stroke-width:3;stroke-linecap:butt;stroke-linejoin:miter;stroke-miterlimit:4;stroke-opacity:1;stroke-dasharray:none;stroke-dashoffset:0" />
    <path
       d="m -667.46958,354.60876 c -1.108,0 -2,0.892 -2,2 l 0,36.4375 -36.40625,0 c -1.108,0 -2,0.892 -2,2 l 0,41.3438 c 0,1.1079 0.892,2 2,2 l 36.40625,0 0,36.4062 c 0,1.108 0.892,2 2,2 l 41.375,0 c 1.108,0 2,-0.892 2,-2 l 0,-36.4062 36.40625,0 c 1.108,0 2,-0.8921 2,-2 l 0,-41.3438 c 0,-1.108 -0.892,-2 -2,-2 l -36.40625,0 0,-36.4375 c 0,-1.108 -0.892,-2 -2,-2 l -41.375,0 z"
       id="rect4166"
       style="fill:#1e1e1e;fill-opacity:1;stroke:#000000;stroke-width:1;stroke-linecap:butt;stroke-linejoin:miter;stroke-miterlimit:4;stroke-opacity:1;stroke-dasharray:none;stroke-dashoffset:0" />
    <rect
       width="187.3477"
       height="31.12538"
       rx="13"
       ry="13"
       x="-546.13782"
       y="375.74988"
       id="rect4172"
       style="fill:#78766a;fill-opacity:1;stroke:#000000;stroke-width:1;stroke-linecap:butt;stroke-linejoin:miter;stroke-miterlimit:4;stroke-opacity:1;stroke-dasharray:none;stroke-dashoffset:0" />
    <rect
       width="187.3477"
       height="31.12538"
       rx="13"
       ry="13"
       x="-546.13782"
       y="334.09692"
       id="rect4174"
       style="fill:#78766a;fill-opacity:1;stroke:#000000;stroke-width:1;stroke-linecap:butt;stroke-linejoin:miter;stroke-miterlimit:4;stroke-opacity:1;stroke-dasharray:none;stroke-dashoffset:0" />
    <path
       d="m -358.79009,289.5478 0,19.9754 c 0,7.202 -5.798,13 -13,13 l -161.3477,0 c -7.202,0 -13,-5.798 -13,-13 l 0,-19.9754 z"
       id="rect4176"
       style="fill:#78766a;fill-opacity:1;stroke:#000000;stroke-width:1;stroke-linecap:butt;stroke-linejoin:miter;stroke-miterlimit:4;stroke-opacity:1;stroke-dashoffset:0" />
    <path
       d="m -533.13779,496.31811 161.3477,0 c 7.202,0 13,5.798 13,13 l 0,5.1253 -187.3477,0 0,-5.1253 c 0,-7.202 5.798,-13 13,-13 z"
       id="rect4178"
       style="fill:#78766a;fill-opacity:1;stroke:#000000;stroke-width:1;stroke-linecap:butt;stroke-linejoin:miter;stroke-miterlimit:4;stroke-opacity:1;stroke-dashoffset:0" />
  </g>
</svg>
