<?xml version="1.0" encoding="UTF-8" standalone="no"?>
<!-- Created with Inkscape (http://www.inkscape.org/) -->

<svg
   xmlns:dc="http://purl.org/dc/elements/1.1/"
   xmlns:cc="http://creativecommons.org/ns#"
   xmlns:rdf="http://www.w3.org/1999/02/22-rdf-syntax-ns#"
   xmlns:svg="http://www.w3.org/2000/svg"
   xmlns="http://www.w3.org/2000/svg"
   xmlns:xlink="http://www.w3.org/1999/xlink"
   version="1.1"
   width="687.25"
   height="303.09265"
   id="svg3830">
  <defs
     id="defs3832">
    <radialGradient
       cx="404.85159"
       cy="658.8125"
       r="28.365055"
       fx="404.85159"
       fy="658.8125"
       id="radialGradient4263"
       xlink:href="#linearGradient4257"
       gradientUnits="userSpaceOnUse" />
    <linearGradient
       id="linearGradient4257">
      <stop
         id="stop4259"
         style="stop-color:#4fdb94;stop-opacity:1"
         offset="0" />
      <stop
         id="stop4261"
         style="stop-color:#26bb6f;stop-opacity:1"
         offset="1" />
    </linearGradient>
    <radialGradient
       cx="404.85159"
       cy="658.8125"
       r="28.365055"
       fx="404.85159"
       fy="658.8125"
       id="radialGradient4245"
       xlink:href="#linearGradient4251"
       gradientUnits="userSpaceOnUse" />
    <linearGradient
       id="linearGradient4251">
      <stop
         id="stop4253"
         style="stop-color:#2c0fff;stop-opacity:1"
         offset="0" />
      <stop
         id="stop4255"
         style="stop-color:#1800c6;stop-opacity:1"
         offset="1" />
    </linearGradient>
    <radialGradient
       cx="404.85159"
       cy="658.8125"
       r="28.365055"
       fx="404.85159"
       fy="658.8125"
       id="radialGradient4271"
       xlink:href="#linearGradient4265"
       gradientUnits="userSpaceOnUse" />
    <linearGradient
       id="linearGradient4265">
      <stop
         id="stop4267"
         style="stop-color:#f3f765;stop-opacity:1"
         offset="0" />
      <stop
         id="stop4269"
         style="stop-color:#eef320;stop-opacity:1"
         offset="1" />
    </linearGradient>
    <radialGradient
       cx="404.85159"
       cy="658.8125"
       r="28.365055"
       fx="404.85159"
       fy="658.8125"
       id="radialGradient4220"
       xlink:href="#linearGradient4197-2"
       gradientUnits="userSpaceOnUse" />
    <linearGradient
       id="linearGradient4197-2">
      <stop
         id="stop4199-4"
         style="stop-color:#ff4949;stop-opacity:1"
         offset="0" />
      <stop
         id="stop4201-5"
         style="stop-color:#ff0000;stop-opacity:1"
         offset="1" />
    </linearGradient>
  </defs>
  <metadata
     id="metadata3835">
    <rdf:RDF>
      <cc:Work
         rdf:about="">
        <dc:format>image/svg+xml</dc:format>
        <dc:type
           rdf:resource="http://purl.org/dc/dcmitype/StillImage" />
        <dc:title></dc:title>
      </cc:Work>
    </rdf:RDF>
  </metadata>
  <g
     transform="translate(209.34375,-340.81359)"
     id="layer1">
    <path
       d="m -119.91376,359.45505 c 27.766304,-21.947 112.0628343,-18.123 128.6893643,-17.4579 1.4963897,2.3277 0.16627,5.3205 0.16627,5.3205"
       id="path4289"
       style="fill:#d9d1ca;fill-opacity:1;stroke:#000000;stroke-width:1px;stroke-linecap:butt;stroke-linejoin:miter;stroke-opacity:1" />
    <path
       d="m 389.16149,359.4551 c -27.76631,-21.947 -112.06284,-18.123 -128.68937,-17.458 -1.49639,2.3278 -0.16627,5.3205 -0.16627,5.3205"
       id="path4291"
       style="fill:#d9d1ca;fill-opacity:1;stroke:#000000;stroke-width:1px;stroke-linecap:butt;stroke-linejoin:miter;stroke-opacity:1" />
    <path
       d="m -60.776786,347.27285 c -81.771044,0 -148.062504,66.2915 -148.062504,148.0625 0,81.7711 66.29146,148.0625 148.062504,148.0625 37.02955,0 70.88217,-13.5933 96.84375,-36.0625 l 196.437496,0 c 25.96158,22.4693 59.8142,36.0625 96.84375,36.0625 81.77105,0 148.0625,-66.2914 148.0625,-148.0625 0,-81.7711 -66.29145,-148.0625 -148.0625,-148.0625 z"
       id="path4283"
       style="fill:#d9d1ca;fill-opacity:1;stroke:#000000;stroke-width:1;stroke-linecap:round;stroke-linejoin:round;stroke-miterlimit:4;stroke-opacity:1" />
    <path
       d="m 534.49014,658.8125 a 129.63855,129.63855 0 1 1 -259.2771,0 129.63855,129.63855 0 1 1 259.2771,0 z"
       transform="translate(-75.497676,-163.4661)"
       id="path4193"
       style="fill:#aba6a2;fill-opacity:1;stroke:#000000;stroke-width:1;stroke-linecap:round;stroke-linejoin:round;stroke-miterlimit:4;stroke-opacity:1;stroke-dasharray:none" />
    <rect
       width="150.06447"
       height="67.83062"
       rx="35"
       ry="35"
       x="-111.65572"
       y="600.10425"
       transform="matrix(0.7870588,-0.61687798,0.61687798,0.7870588,0,0)"
       id="rect4275"
       style="fill:#d9d1ca;fill-opacity:1;stroke:#000000;stroke-width:1;stroke-linecap:butt;stroke-linejoin:miter;stroke-miterlimit:4;stroke-opacity:1;stroke-dasharray:none;stroke-dashoffset:0" />
    <path
       d="m 432.71665,658.8125 a 27.865055,27.865055 0 1 1 -55.73011,0 27.865055,27.865055 0 1 1 55.73011,0 z"
       transform="translate(-9.7246557,-163.3445)"
       id="path4193-2"
       style="fill:url(#radialGradient4220);fill-opacity:1;stroke:#000000;stroke-width:1;stroke-linecap:round;stroke-linejoin:round;stroke-miterlimit:4;stroke-opacity:1;stroke-dasharray:none" />
    <path
       d="m 432.71665,658.8125 a 27.865055,27.865055 0 1 1 -55.73011,0 27.865055,27.865055 0 1 1 55.73011,0 z"
       transform="translate(-75.150476,-111.5752)"
       id="path4239"
       style="fill:url(#radialGradient4271);fill-opacity:1;stroke:#000000;stroke-width:1;stroke-linecap:round;stroke-linejoin:round;stroke-miterlimit:4;stroke-opacity:1;stroke-dasharray:none" />
    <rect
       width="150.06447"
       height="67.83062"
       rx="35"
       ry="35"
       x="-131.99399"
       y="518.31177"
       transform="matrix(0.7870588,-0.61687798,0.61687798,0.7870588,0,0)"
       id="rect4273"
       style="fill:#d9d1ca;fill-opacity:1;stroke:#000000;stroke-width:1;stroke-linecap:butt;stroke-linejoin:miter;stroke-miterlimit:4;stroke-opacity:1;stroke-dasharray:none;stroke-dashoffset:0" />
    <path
       d="m 432.71665,658.8125 a 27.865055,27.865055 0 1 1 -55.73011,0 27.865055,27.865055 0 1 1 55.73011,0 z"
       transform="translate(-75.811336,-214.00951)"
       id="path4243"
       style="fill:url(#radialGradient4245);fill-opacity:1;stroke:#000000;stroke-width:1;stroke-linecap:round;stroke-linejoin:round;stroke-miterlimit:4;stroke-opacity:1;stroke-dasharray:none" />
    <path
       d="m 432.71665,658.8125 a 27.865055,27.865055 0 1 1 -55.73011,0 27.865055,27.865055 0 1 1 55.73011,0 z"
       transform="translate(-141.89802,-164.4445)"
       id="path4247"
       style="fill:url(#radialGradient4263);fill-opacity:1;stroke:#000000;stroke-width:1;stroke-linecap:round;stroke-linejoin:round;stroke-miterlimit:4;stroke-opacity:1;stroke-dasharray:none" />
    <path
       d="m 483.99509,658.8125 a 79.143501,79.143501 0 1 1 -158.287,0 79.143501,79.143501 0 1 1 158.287,0 z"
       transform="translate(-474.54718,-163.4661)"
       id="path4277"
       style="fill:#d9d1ca;fill-opacity:1;stroke:#000000;stroke-width:1;stroke-linecap:round;stroke-linejoin:round;stroke-miterlimit:4;stroke-opacity:1;stroke-dasharray:none" />
    <rect
       width="56.604282"
       height="20.03557"
       rx="10"
       ry="10"
       x="-297.01584"
       y="436.8949"
       transform="matrix(0.7870588,-0.61687798,0.61687798,0.7870588,0,0)"
       id="rect4279"
       style="fill:#766d64;fill-opacity:1;stroke:#000000;stroke-width:1;stroke-linecap:butt;stroke-linejoin:miter;stroke-miterlimit:4;stroke-opacity:1;stroke-dasharray:none;stroke-dashoffset:0" />
    <rect
       width="56.604282"
       height="20.03557"
       rx="10"
       ry="10"
       x="-237.98642"
       y="483.16077"
       transform="matrix(0.7870588,-0.61687798,0.61687798,0.7870588,0,0)"
       id="rect4281"
       style="fill:#766d64;fill-opacity:1;stroke:#000000;stroke-width:1;stroke-linecap:butt;stroke-linejoin:miter;stroke-miterlimit:4;stroke-opacity:1;stroke-dasharray:none;stroke-dashoffset:0" />
    <path
       d="m -83.789336,438.6433 c -2.216,0 -4,1.784 -4,4 l 0,34.625 -34.624994,0 c -2.216,0 -4,1.784 -4,4 l 0,28.1563 c 0,2.2159 1.784,4 4,4 l 34.624994,0 0,34.625 c 0,2.2159 1.784,4 4,4 l 28.15625,0 c 2.216,0 4,-1.7841 4,-4 l 0,-34.625 34.65625,0 c 2.216,0 4,-1.7841 4,-4 l 0,-28.1563 c 0,-2.216 -1.784,-4 -4,-4 l -34.65625,0 0,-34.625 c 0,-2.216 -1.784,-4 -4,-4 l -28.15625,0 z"
       id="rect4293"
       style="fill:#766d64;fill-opacity:1;stroke:#000000;stroke-width:1;stroke-linecap:butt;stroke-linejoin:miter;stroke-miterlimit:4;stroke-opacity:1;stroke-dasharray:none;stroke-dashoffset:0" />
    <path
       d="m 134.15073,1730.3092 12.36509,21.4169 -24.73018,0 z"
       transform="translate(-203.84631,-1284.275)"
       id="path4298"
       style="fill:#766d64;fill-opacity:1;stroke:#4d4d4d;stroke-width:1;stroke-linecap:butt;stroke-linejoin:round;stroke-miterlimit:4;stroke-opacity:1;stroke-dasharray:none;stroke-dashoffset:0" />
    <path
       d="m 134.15073,1730.3092 12.36509,21.4169 -24.73018,0 z"
       transform="matrix(1,0,0,-1,-203.84631,2276.3926)"
       id="path4300"
       style="fill:#766d64;fill-opacity:1;stroke:#4d4d4d;stroke-width:1;stroke-linecap:butt;stroke-linejoin:round;stroke-miterlimit:4;stroke-opacity:1;stroke-dasharray:none;stroke-dashoffset:0" />
    <path
       d="m 134.15073,1730.3092 12.36509,21.4169 -24.73018,0 z"
       transform="matrix(0,1,-1,0,1708.2367,361.1957)"
       id="path4314"
       style="fill:#766d64;fill-opacity:1;stroke:#4d4d4d;stroke-width:1;stroke-linecap:butt;stroke-linejoin:round;stroke-miterlimit:4;stroke-opacity:1;stroke-dasharray:none;stroke-dashoffset:0" />
    <path
       d="m 134.15073,1730.3092 12.36509,21.4169 -24.73018,0 z"
       transform="matrix(0,1,1,0,-1852.4309,361.1957)"
       id="path4316"
       style="fill:#766d64;fill-opacity:1;stroke:#4d4d4d;stroke-width:1;stroke-linecap:butt;stroke-linejoin:round;stroke-miterlimit:4;stroke-opacity:1;stroke-dasharray:none;stroke-dashoffset:0" />
    <path
       d="m 417.59955,658.8125 a 12.747952,12.747952 0 1 1 -25.49591,0 12.747952,12.747952 0 1 1 25.49591,0 z"
       transform="translate(-474.54718,-163.4661)"
       id="path4318"
       style="fill:none;stroke:#4d4d4d;stroke-width:1;stroke-linecap:round;stroke-linejoin:round;stroke-miterlimit:4;stroke-opacity:1;stroke-dasharray:none" />
  </g>
</svg>
