<?xml version="1.0" encoding="UTF-8" standalone="no"?>
<!-- Created with Inkscape (http://www.inkscape.org/) -->

<svg
   xmlns:dc="http://purl.org/dc/elements/1.1/"
   xmlns:cc="http://creativecommons.org/ns#"
   xmlns:rdf="http://www.w3.org/1999/02/22-rdf-syntax-ns#"
   xmlns:svg="http://www.w3.org/2000/svg"
   xmlns="http://www.w3.org/2000/svg"
   xmlns:xlink="http://www.w3.org/1999/xlink"
   version="1.1"
   width="690.37805"
   height="722.78888"
   id="svg4240">
  <defs
     id="defs4242">
    <radialGradient
       cx="404.85159"
       cy="658.8125"
       r="75.848991"
       fx="404.85159"
       fy="658.8125"
       id="radialGradient4637"
       xlink:href="#linearGradient4631"
       gradientUnits="userSpaceOnUse" />
    <linearGradient
       id="linearGradient4631">
      <stop
         id="stop4633"
         style="stop-color:#f5f5f5;stop-opacity:1"
         offset="0" />
      <stop
         id="stop4639"
         style="stop-color:#f5f5f5;stop-opacity:1"
         offset="0.66666669" />
      <stop
         id="stop4635"
         style="stop-color:#e2e2e2;stop-opacity:1"
         offset="1" />
    </linearGradient>
    <radialGradient
       cx="404.85159"
       cy="658.8125"
       r="11.524985"
       fx="404.85159"
       fy="658.8125"
       id="radialGradient4621"
       xlink:href="#linearGradient4615"
       gradientUnits="userSpaceOnUse" />
    <linearGradient
       id="linearGradient4615">
      <stop
         id="stop4617"
         style="stop-color:#949894;stop-opacity:1"
         offset="0" />
      <stop
         id="stop4619"
         style="stop-color:#d0d2d0;stop-opacity:1"
         offset="1" />
    </linearGradient>
    <radialGradient
       cx="348.42255"
       cy="2753.4043"
       r="86.733688"
       fx="348.42255"
       fy="2753.4043"
       id="radialGradient4570"
       xlink:href="#linearGradient4564"
       gradientUnits="userSpaceOnUse"
       gradientTransform="matrix(1,0,0,1.0576161,40.105591,-2480.3521)" />
    <linearGradient
       id="linearGradient4564">
      <stop
         id="stop4566"
         style="stop-color:#151513;stop-opacity:1"
         offset="0" />
      <stop
         id="stop4568"
         style="stop-color:#949487;stop-opacity:1"
         offset="1" />
    </linearGradient>
    <radialGradient
       cx="404.85159"
       cy="658.8125"
       r="28.365055"
       fx="404.85159"
       fy="658.8125"
       id="radialGradient4523"
       xlink:href="#linearGradient4257"
       gradientUnits="userSpaceOnUse" />
    <linearGradient
       id="linearGradient4257">
      <stop
         id="stop4259"
         style="stop-color:#4fdb94;stop-opacity:1"
         offset="0" />
      <stop
         id="stop4261"
         style="stop-color:#26bb6f;stop-opacity:1"
         offset="1" />
    </linearGradient>
    <radialGradient
       cx="404.85159"
       cy="658.8125"
       r="28.365055"
       fx="404.85159"
       fy="658.8125"
       id="radialGradient4521"
       xlink:href="#linearGradient4251"
       gradientUnits="userSpaceOnUse" />
    <linearGradient
       id="linearGradient4251">
      <stop
         id="stop4253"
         style="stop-color:#2c0fff;stop-opacity:1"
         offset="0" />
      <stop
         id="stop4255"
         style="stop-color:#1800c6;stop-opacity:1"
         offset="1" />
    </linearGradient>
    <radialGradient
       cx="404.85159"
       cy="658.8125"
       r="28.365055"
       fx="404.85159"
       fy="658.8125"
       id="radialGradient4519"
       xlink:href="#linearGradient4265"
       gradientUnits="userSpaceOnUse" />
    <linearGradient
       id="linearGradient4265">
      <stop
         id="stop4267"
         style="stop-color:#f3f765;stop-opacity:1"
         offset="0" />
      <stop
         id="stop4269"
         style="stop-color:#eef320;stop-opacity:1"
         offset="1" />
    </linearGradient>
    <radialGradient
       cx="404.85159"
       cy="658.8125"
       r="28.365055"
       fx="404.85159"
       fy="658.8125"
       id="radialGradient4517"
       xlink:href="#linearGradient4197-2"
       gradientUnits="userSpaceOnUse" />
    <linearGradient
       id="linearGradient4197-2">
      <stop
         id="stop4199-4"
         style="stop-color:#ff4949;stop-opacity:1"
         offset="0" />
      <stop
         id="stop4201-5"
         style="stop-color:#ff0000;stop-opacity:1"
         offset="1" />
    </linearGradient>
    <linearGradient
       x1="340.71973"
       y1="3181.5242"
       x2="340.71973"
       y2="3042.3877"
       id="linearGradient4542"
       xlink:href="#linearGradient4536"
       gradientUnits="userSpaceOnUse" />
    <linearGradient
       id="linearGradient4536">
      <stop
         id="stop4538"
         style="stop-color:#bcc0bc;stop-opacity:1"
         offset="0" />
      <stop
         id="stop4540"
         style="stop-color:#e1e3e1;stop-opacity:1"
         offset="1" />
    </linearGradient>
    <linearGradient
       x1="340.71973"
       y1="3181.5242"
       x2="340.71973"
       y2="3042.3877"
       id="linearGradient4238"
       xlink:href="#linearGradient4536"
       gradientUnits="userSpaceOnUse"
       gradientTransform="translate(49.274555,-2338.7741)" />
  </defs>
  <metadata
     id="metadata4245">
    <rdf:RDF>
      <cc:Work
         rdf:about="">
        <dc:format>image/svg+xml</dc:format>
        <dc:type
           rdf:resource="http://purl.org/dc/dcmitype/StillImage" />
        <dc:title></dc:title>
      </cc:Work>
    </rdf:RDF>
  </metadata>
  <g
     transform="translate(-43.38839,-222.40485)"
     id="layer1">
    <path
       d="m 193.49209,843.25566 c 10.73729,-35.4056 28.19466,-80.4521 58.28246,-135.7172 39.79274,24.4488 86.62211,38.5625 136.75,38.5625 50.1528,0 97.00699,-14.1225 136.8125,-38.5938 27.38218,50.2919 48.73651,102.0361 58.40734,136.0909 -135.91271,-42.8132 -257.66371,-37.91 -390.2523,-0.3424 z"
       id="path4534"
       style="fill:url(#linearGradient4238);fill-opacity:1;stroke:#000000;stroke-width:1px;stroke-linecap:butt;stroke-linejoin:miter;stroke-opacity:1" />
    <path
       d="m 388.52455,222.91346 c -90.91527,0 -170.99052,46.3629 -217.875,116.75 l -95.249995,24.2813 c -79.2792795,107.2071 7.332248,542.6487 80.187495,578.375 34.14301,16.7428 -1.75848,-54.8745 96.1875,-234.7813 39.79274,24.4488 86.62211,38.5625 136.75,38.5625 50.1528,0 97.00699,-14.1225 136.8125,-38.5938 97.9629,179.9252 62.07416,251.5562 96.21875,234.8126 72.85525,-35.7263 159.46678,-471.1679 80.1875,-578.375 l -95.34375,-24.3126 c -46.88684,-70.3727 -126.97073,-116.7187 -217.875,-116.7187 z"
       id="path4527"
       style="fill:#e1e3e1;fill-opacity:1;stroke:#000000;stroke-width:1px;stroke-linecap:butt;stroke-linejoin:miter;stroke-opacity:1" />
    <path
       d="m 617.96561,2843.1309 a 261.60544,261.60544 0 1 1 -523.21088,0 261.60544,261.60544 0 1 1 523.21088,0 z"
       transform="translate(32.168729,-2358.6264)"
       id="path4525"
       style="fill:none;stroke:#000000;stroke-width:1;stroke-linecap:butt;stroke-linejoin:round;stroke-miterlimit:4;stroke-opacity:1;stroke-dasharray:none;stroke-dashoffset:0" />
    <path
       d="m 432.71665,658.8125 a 27.865055,27.865055 0 1 1 -55.73011,0 27.865055,27.865055 0 1 1 55.73011,0 z"
       transform="translate(215.30133,-89.345538)"
       id="path4509"
       style="fill:url(#radialGradient4517);fill-opacity:1;stroke:#000000;stroke-width:1;stroke-linecap:round;stroke-linejoin:round;stroke-miterlimit:4;stroke-opacity:1;stroke-dasharray:none" />
    <path
       d="m 432.71665,658.8125 a 27.865055,27.865055 0 1 1 -55.73011,0 27.865055,27.865055 0 1 1 55.73011,0 z"
       transform="translate(152.62202,-146.06344)"
       id="path4511"
       style="fill:url(#radialGradient4519);fill-opacity:1;stroke:#000000;stroke-width:1;stroke-linecap:round;stroke-linejoin:round;stroke-miterlimit:4;stroke-opacity:1;stroke-dasharray:none" />
    <path
       d="m 432.71665,658.8125 a 27.865055,27.865055 0 1 1 -55.73011,0 27.865055,27.865055 0 1 1 55.73011,0 z"
       transform="translate(278.30079,-145.50354)"
       id="path4513"
       style="fill:url(#radialGradient4521);fill-opacity:1;stroke:#000000;stroke-width:1;stroke-linecap:round;stroke-linejoin:round;stroke-miterlimit:4;stroke-opacity:1;stroke-dasharray:none" />
    <path
       d="m 432.71665,658.8125 a 27.865055,27.865055 0 1 1 -55.73011,0 27.865055,27.865055 0 1 1 55.73011,0 z"
       transform="translate(216.33388,-204.42584)"
       id="path4515"
       style="fill:url(#radialGradient4523);fill-opacity:1;stroke:#000000;stroke-width:1;stroke-linecap:round;stroke-linejoin:round;stroke-miterlimit:4;stroke-opacity:1;stroke-dasharray:none" />
    <path
       d="m 343.09393,3013.1634 c 6.79491,0 37.37199,52.961 33.97454,58.8456 -3.39746,5.8846 -64.55162,5.8846 -67.94907,0 -3.39745,-5.8846 27.17963,-58.8456 33.97453,-58.8456 z"
       transform="translate(48.569688,-2302.31)"
       id="path4544"
       style="fill:#d0d2d0;fill-opacity:1;stroke:#000000;stroke-width:1;stroke-linecap:butt;stroke-linejoin:round;stroke-miterlimit:4;stroke-opacity:1;stroke-dasharray:none;stroke-dashoffset:0" />
    <path
       d="m 265.57893,254.26142 0,220.2431 c 0,67.9034 55.04658,122.9499 122.94997,122.9499 67.90339,0 122.94996,-55.0465 122.94996,-122.9499 l 0,-221.274 c 0,0 -45.14299,-30.2537 -122.94997,-30.2537 -77.80698,0 -122.94996,31.2846 -122.94996,31.2846 z"
       id="path4546"
       style="fill:#dcddd7;fill-opacity:1;stroke:#000000;stroke-width:1;stroke-linecap:butt;stroke-linejoin:round;stroke-miterlimit:4;stroke-opacity:1;stroke-dashoffset:0" />
    <path
       d="m 474.76182,363.59106 0,139.6047 c -0.34014,8.8435 -56.74601,19.7279 -86.23293,19.7279 -29.48692,0 -85.89279,-10.5442 -86.23293,-19.7279 l 0,-139.6047 c -0.34014,-8.1633 56.47263,-23.1293 86.23293,-23.1293 29.7603,0 86.23293,13.6055 86.23293,23.1293 z"
       id="rect4551"
       style="fill:url(#radialGradient4570);fill-opacity:1;stroke:#000000;stroke-width:1;stroke-linecap:butt;stroke-linejoin:round;stroke-miterlimit:4;stroke-opacity:1;stroke-dashoffset:0" />
    <rect
       width="152.5844"
       height="133.51135"
       rx="5"
       ry="5"
       x="312.23669"
       y="366.63782"
       id="rect4549"
       style="fill:#f1f2f1;fill-opacity:1;stroke:#000000;stroke-width:1;stroke-linecap:butt;stroke-linejoin:round;stroke-miterlimit:4;stroke-opacity:1;stroke-dasharray:none;stroke-dashoffset:0" />
    <path
       d="m 176.83705,553.88216 c -7.41701,0.052 -14.76893,1.4903 -24.3125,4.1876 l 0,32.75 -32.74999,0 c -5.3942,19.0871 -5.8091,29.4667 0,48.9687 l 32.74999,0 0,32.75 c 19.08714,5.3942 29.46668,5.8091 48.96875,0 l 0,-32.75 32.75,0 c 2.9046,-9.751 4.2393,-17.2393 4.1875,-24.6563 -0.0519,-7.4169 -1.4903,-14.7689 -4.1875,-24.3124 l -32.75,0 0,-32.75 c -9.75104,-2.9047 -17.23924,-4.2393 -24.65625,-4.1876 z"
       id="rect4576"
       style="fill:#4f514f;fill-opacity:1;stroke:#000000;stroke-width:1;stroke-linecap:butt;stroke-linejoin:round;stroke-miterlimit:4;stroke-opacity:1;stroke-dashoffset:0" />
    <path
       d="m 177.1808,557.97596 c -6.72046,0.023 -13.49748,1.468 -18.28125,4.2812 l 0,35.0626 -35.0625,0 c -5.6264,9.5675 -5.809,27.1338 0,36.1874 l 35.0625,0 0,35.0626 c 9.56754,5.6264 27.13377,5.8089 36.1875,0 l 0,-35.0626 35.0625,0 c 2.9045,-4.5268 4.30405,-11.1857 4.28125,-17.9062 -0.0228,-6.7204 -1.46805,-13.4975 -4.28125,-18.2812 l -35.0625,0 0,-35.0626 c -4.52686,-2.9045 -11.18579,-4.304 -17.90625,-4.2812 z"
       id="rect4576-8"
       style="fill:#d0d2d0;fill-opacity:1;stroke:#000000;stroke-width:1;stroke-linecap:butt;stroke-linejoin:round;stroke-miterlimit:4;stroke-opacity:1;stroke-dashoffset:0" />
    <path
       d="m 415.87658,658.8125 a 11.024985,11.024985 0 1 1 -22.04997,0 11.024985,11.024985 0 1 1 22.04997,0 z"
       transform="translate(-227.8618,-43.395538)"
       id="path4611"
       style="fill:url(#radialGradient4621);fill-opacity:1;stroke:#4d4d4d;stroke-width:1;stroke-linecap:round;stroke-linejoin:round;stroke-miterlimit:4;stroke-opacity:1;stroke-dasharray:none" />
    <path
       d="m 480.20058,658.8125 a 75.348991,75.348991 0 1 1 -150.69798,0 75.348991,75.348991 0 1 1 150.69798,0 z"
       transform="translate(-282.29284,-200.66604)"
       id="path4629"
       style="fill:url(#radialGradient4637);fill-opacity:1;stroke:#000000;stroke-width:1;stroke-linecap:round;stroke-linejoin:round;stroke-miterlimit:4;stroke-opacity:1;stroke-dasharray:none" />
    <path
       d="m 457.4618,658.8125 a 52.610203,52.610203 0 1 1 -105.22041,0 52.610203,52.610203 0 1 1 105.22041,0 z"
       transform="translate(-282.29284,-200.66604)"
       id="path4623"
       style="fill:#cfd2cf;fill-opacity:1;stroke:#000000;stroke-width:1;stroke-linecap:round;stroke-linejoin:round;stroke-miterlimit:4;stroke-opacity:1;stroke-dasharray:none" />
    <path
       d="m 446.4268,658.8125 a 41.575203,41.575203 0 1 1 -83.15041,0 41.575203,41.575203 0 1 1 83.15041,0 z"
       transform="translate(-282.29284,-200.66604)"
       id="path4627"
       style="fill:#f5f5f5;fill-opacity:1;stroke:#000000;stroke-width:1;stroke-linecap:round;stroke-linejoin:round;stroke-miterlimit:4;stroke-opacity:1;stroke-dasharray:none" />
  </g>
</svg>
