<?xml version="1.0" encoding="UTF-8" standalone="no"?>
<!-- Created with Inkscape (http://www.inkscape.org/) -->

<svg
   xmlns:dc="http://purl.org/dc/elements/1.1/"
   xmlns:cc="http://creativecommons.org/ns#"
   xmlns:rdf="http://www.w3.org/1999/02/22-rdf-syntax-ns#"
   xmlns:svg="http://www.w3.org/2000/svg"
   xmlns="http://www.w3.org/2000/svg"
   xmlns:xlink="http://www.w3.org/1999/xlink"
   version="1.1"
   width="669.97284"
   height="390.20251"
   id="svg3545">
  <defs
     id="defs3547">
    <radialGradient
       cx="404.85159"
       cy="658.8125"
       r="28.365055"
       fx="404.85159"
       fy="658.8125"
       id="radialGradient4070"
       xlink:href="#linearGradient4058"
       gradientUnits="userSpaceOnUse" />
    <linearGradient
       id="linearGradient4058">
      <stop
         id="stop4060"
         style="stop-color:#808080;stop-opacity:1"
         offset="0" />
      <stop
         id="stop4062"
         style="stop-color:#4d4d4d;stop-opacity:1"
         offset="1" />
    </linearGradient>
    <radialGradient
       cx="404.85159"
       cy="658.8125"
       r="28.365055"
       fx="404.85159"
       fy="658.8125"
       id="radialGradient4066"
       xlink:href="#linearGradient4058"
       gradientUnits="userSpaceOnUse" />
    <linearGradient
       id="linearGradient3463">
      <stop
         id="stop3465"
         style="stop-color:#808080;stop-opacity:1"
         offset="0" />
      <stop
         id="stop3467"
         style="stop-color:#4d4d4d;stop-opacity:1"
         offset="1" />
    </linearGradient>
    <radialGradient
       cx="404.85159"
       cy="658.8125"
       r="28.365055"
       fx="404.85159"
       fy="658.8125"
       id="radialGradient4052"
       xlink:href="#linearGradient4058"
       gradientUnits="userSpaceOnUse" />
    <linearGradient
       id="linearGradient3470">
      <stop
         id="stop3472"
         style="stop-color:#808080;stop-opacity:1"
         offset="0" />
      <stop
         id="stop3474"
         style="stop-color:#4d4d4d;stop-opacity:1"
         offset="1" />
    </linearGradient>
    <radialGradient
       cx="404.85159"
       cy="658.8125"
       r="28.365055"
       fx="404.85159"
       fy="658.8125"
       id="radialGradient4030"
       xlink:href="#linearGradient3959"
       gradientUnits="userSpaceOnUse" />
    <linearGradient
       id="linearGradient3959">
      <stop
         id="stop3961"
         style="stop-color:#262626;stop-opacity:1"
         offset="0" />
      <stop
         id="stop3963"
         style="stop-color:#333333;stop-opacity:1"
         offset="1" />
    </linearGradient>
    <radialGradient
       cx="404.85159"
       cy="658.8125"
       r="28.365055"
       fx="404.85159"
       fy="658.8125"
       id="radialGradient4028"
       xlink:href="#linearGradient3959"
       gradientUnits="userSpaceOnUse" />
    <linearGradient
       id="linearGradient3481">
      <stop
         id="stop3483"
         style="stop-color:#262626;stop-opacity:1"
         offset="0" />
      <stop
         id="stop3485"
         style="stop-color:#333333;stop-opacity:1"
         offset="1" />
    </linearGradient>
    <radialGradient
       cx="404.85159"
       cy="658.8125"
       r="28.365055"
       fx="404.85159"
       fy="658.8125"
       id="radialGradient4026"
       xlink:href="#linearGradient3959"
       gradientUnits="userSpaceOnUse" />
    <linearGradient
       id="linearGradient3488">
      <stop
         id="stop3490"
         style="stop-color:#262626;stop-opacity:1"
         offset="0" />
      <stop
         id="stop3492"
         style="stop-color:#333333;stop-opacity:1"
         offset="1" />
    </linearGradient>
    <radialGradient
       cx="537.11353"
       cy="662.44177"
       r="92.719948"
       fx="537.11353"
       fy="662.44177"
       id="radialGradient4118"
       xlink:href="#linearGradient3933"
       gradientUnits="userSpaceOnUse"
       gradientTransform="matrix(1,0,0,0.95187315,-962.2087,-395.38789)" />
    <linearGradient
       id="linearGradient3933">
      <stop
         id="stop3935"
         style="stop-color:#262626;stop-opacity:1"
         offset="0" />
      <stop
         id="stop3941"
         style="stop-color:#262626;stop-opacity:1"
         offset="0.67407405" />
      <stop
         id="stop3937"
         style="stop-color:#333333;stop-opacity:1"
         offset="1" />
    </linearGradient>
    <radialGradient
       cx="191.57565"
       cy="737.30811"
       r="103.4576"
       fx="191.57565"
       fy="737.30811"
       id="radialGradient4110"
       xlink:href="#linearGradient3923"
       gradientUnits="userSpaceOnUse"
       gradientTransform="matrix(1,0,0,1.2077989,0,-153.2118)" />
    <linearGradient
       id="linearGradient3923">
      <stop
         id="stop3925"
         style="stop-color:#333333;stop-opacity:1"
         offset="0" />
      <stop
         id="stop3931"
         style="stop-color:#333333;stop-opacity:1"
         offset="0.77777779" />
      <stop
         id="stop3927"
         style="stop-color:#262626;stop-opacity:1"
         offset="1" />
    </linearGradient>
    <radialGradient
       cx="187.82999"
       cy="731.76117"
       r="80.313011"
       fx="187.82999"
       fy="731.76117"
       id="radialGradient4102"
       xlink:href="#linearGradient3933"
       gradientUnits="userSpaceOnUse"
       gradientTransform="matrix(0.64222802,0.76651365,-0.93578171,0.78405027,-188.25145,-484.61007)" />
    <linearGradient
       id="linearGradient3505">
      <stop
         id="stop3507"
         style="stop-color:#262626;stop-opacity:1"
         offset="0" />
      <stop
         id="stop3509"
         style="stop-color:#262626;stop-opacity:1"
         offset="0.67407405" />
      <stop
         id="stop3511"
         style="stop-color:#333333;stop-opacity:1"
         offset="1" />
    </linearGradient>
    <radialGradient
       cx="191.57565"
       cy="737.30811"
       r="103.4576"
       fx="191.57565"
       fy="737.30811"
       id="radialGradient4094"
       xlink:href="#linearGradient3923"
       gradientUnits="userSpaceOnUse"
       gradientTransform="matrix(1,0,0,1.2077989,0,-153.2118)" />
    <linearGradient
       id="linearGradient3514">
      <stop
         id="stop3516"
         style="stop-color:#333333;stop-opacity:1"
         offset="0" />
      <stop
         id="stop3518"
         style="stop-color:#333333;stop-opacity:1"
         offset="0.77777779" />
      <stop
         id="stop3520"
         style="stop-color:#262626;stop-opacity:1"
         offset="1" />
    </linearGradient>
    <linearGradient
       x1="366.62305"
       y1="-15.17996"
       x2="366.62305"
       y2="353.64105"
       id="linearGradient4036"
       xlink:href="#linearGradient3945"
       gradientUnits="userSpaceOnUse"
       gradientTransform="matrix(-1,0,0,1,747.27449,498.73418)" />
    <linearGradient
       id="linearGradient3945">
      <stop
         id="stop3947"
         style="stop-color:#333333;stop-opacity:1"
         offset="0" />
      <stop
         id="stop3955"
         style="stop-color:#4d4d4d;stop-opacity:1"
         offset="0.5" />
      <stop
         id="stop3949"
         style="stop-color:#333333;stop-opacity:1"
         offset="1" />
    </linearGradient>
    <linearGradient
       x1="366.62305"
       y1="-15.17996"
       x2="366.62305"
       y2="353.64105"
       id="linearGradient3543"
       xlink:href="#linearGradient3945"
       gradientUnits="userSpaceOnUse"
       gradientTransform="matrix(-1,0,0,1,-214.93421,71.465058)" />
  </defs>
  <metadata
     id="metadata3550">
    <rdf:RDF>
      <cc:Work
         rdf:about="">
        <dc:format>image/svg+xml</dc:format>
        <dc:type
           rdf:resource="http://purl.org/dc/dcmitype/StillImage" />
        <dc:title></dc:title>
      </cc:Work>
    </rdf:RDF>
  </metadata>
  <g
     transform="translate(923.56454,-54.40625)"
     id="layer1">
    <path
       d="m -254.09159,267.62995 c 0.31312,119.59608 -35.49756,175.49763 -94.0921,176.46332 -58.59454,0.96569 -91.77452,-45.13855 -125.44872,-70.00081 -33.6742,-24.86226 -62.91036,-39.12659 -114.93902,-39.12659 -52.02866,0 -81.26482,14.26433 -114.93902,39.12659 -33.6742,24.86226 -66.85418,70.9665 -125.44872,70.00081 -58.59453,-0.96569 -94.40522,-56.86724 -94.0921,-176.46332 0.31313,-119.59608 139.70822,-212.728072 334.47984,-212.728072 194.77162,0 334.16671,93.131992 334.47984,212.728072 z"
       id="path4034"
       style="fill:url(#linearGradient3543);fill-opacity:1;stroke:#000000;stroke-width:1px;stroke-linecap:butt;stroke-linejoin:miter;stroke-opacity:1" />
    <path
       d="m 294.53326,737.30811 a 102.9576,124.45598 0 1 1 -205.91521,0 102.9576,124.45598 0 1 1 205.91521,0 z"
       transform="matrix(0.64222802,0.76651365,-0.76651365,0.64222802,-312.11526,-380.83004)"
       id="path4045"
       style="fill:url(#radialGradient4094);fill-opacity:1;stroke:#000000;stroke-width:1;stroke-linecap:butt;stroke-linejoin:miter;stroke-miterlimit:4;stroke-opacity:1;stroke-dasharray:none;stroke-dashoffset:0" />
    <path
       d="m -704.93409,297.35402 c -38.03665,29.71406 -84.98277,36.91205 -117.73548,3.40786 -32.25952,-32.99967 -28.87465,-88.70834 14.7691,-125.27551 43.64375,-36.56718 103.05007,-37.53507 132.68773,-2.16186 29.63766,35.37322 15.14837,88.97749 -29.72135,124.02951 z"
       id="path4047"
       style="fill:url(#radialGradient4102);fill-opacity:1;stroke:#000000;stroke-width:1;stroke-linecap:butt;stroke-linejoin:miter;stroke-miterlimit:4;stroke-opacity:1;stroke-dashoffset:0" />
    <path
       d="m 463.48147,658.8125 a 58.629879,58.629879 0 1 1 -117.25976,0 58.629879,58.629879 0 1 1 117.25976,0 z"
       transform="translate(-1157.7346,-424.3257)"
       id="path4012"
       style="fill:#333333;fill-opacity:1;stroke:#000000;stroke-width:1;stroke-linecap:round;stroke-linejoin:round;stroke-miterlimit:4;stroke-opacity:1;stroke-dasharray:none" />
    <path
       d="m -765.9762,180.27456 0,40.28647 -40.28662,0 0,26.8581 40.28662,0 0,40.28662 26.8581,0 0,-40.28662 40.28648,0 0,-26.8581 -40.28648,0 0,-40.28647 -26.8581,0 z"
       id="path4018"
       style="fill:#1a1a1a;fill-opacity:1;stroke:#000000;stroke-width:1;stroke-linecap:butt;stroke-linejoin:miter;stroke-miterlimit:4;stroke-opacity:1;stroke-dasharray:none;stroke-dashoffset:0" />
    <path
       d="m 414.88667,658.8125 a 10.035079,10.035079 0 1 1 -20.07016,0 10.035079,10.035079 0 1 1 20.07016,0 z"
       transform="translate(-1157.7346,-424.3257)"
       id="path4043"
       style="fill:#333333;fill-opacity:1;stroke:#000000;stroke-width:1;stroke-linecap:round;stroke-linejoin:round;stroke-miterlimit:4;stroke-opacity:1;stroke-dasharray:none" />
    <path
       d="m 294.53326,737.30811 a 102.9576,124.45598 0 1 1 -205.91521,0 102.9576,124.45598 0 1 1 205.91521,0 z"
       transform="matrix(-0.64222802,0.76651365,0.76651365,0.64222802,-864.91677,-380.83004)"
       id="path4072"
       style="fill:url(#radialGradient4110);fill-opacity:1;stroke:#000000;stroke-width:1;stroke-linecap:butt;stroke-linejoin:miter;stroke-miterlimit:4;stroke-opacity:1;stroke-dasharray:none;stroke-dashoffset:0" />
    <path
       d="m -517.14383,161.59134 c -0.19087,9.61221 9.05927,9.84406 10.74837,9.9488 1.6891,0.10474 4.2642,-0.53246 7.33735,-3.88148 3.0737,-3.34843 22.9575,-14.69398 28.9616,-15.40542 6.00411,-0.712 8.71076,-2.34827 10.24617,-5.05152 1.53482,-2.70356 -0.37824,-15.39422 -9.23814,-16.87698 -8.8599,-1.48333 -47.86395,21.65436 -48.05535,31.2666 z"
       id="path4076"
       style="fill:#ff5555;stroke:#000000;stroke-width:1;stroke-linecap:butt;stroke-linejoin:miter;stroke-miterlimit:4;stroke-opacity:1;stroke-dasharray:none" />
    <path
       d="m -472.09795,297.35402 c 38.03666,29.71406 84.98277,36.91205 117.73549,3.40786 32.25951,-32.99967 28.87464,-88.70834 -14.7691,-125.27551 -43.64376,-36.56718 -103.05008,-37.53507 -132.68773,-2.16186 -29.63766,35.37322 -15.14837,88.97749 29.72134,124.02951 z"
       id="path4074"
       style="fill:url(#radialGradient4118);fill-opacity:1;stroke:#000000;stroke-width:1;stroke-linecap:butt;stroke-linejoin:miter;stroke-miterlimit:4;stroke-opacity:1;stroke-dashoffset:0" />
    <path
       d="m 432.71665,658.8125 a 27.865055,27.865055 0 1 1 -55.73011,0 27.865055,27.865055 0 1 1 55.73011,0 z"
       transform="translate(-877.87703,-367.30465)"
       id="path4004"
       style="fill:url(#radialGradient4026);fill-opacity:1;stroke:#000000;stroke-width:1;stroke-linecap:round;stroke-linejoin:round;stroke-miterlimit:4;stroke-opacity:1;stroke-dasharray:none" />
    <path
       d="m 432.71665,658.8125 a 27.865055,27.865055 0 1 1 -55.73011,0 27.865055,27.865055 0 1 1 55.73011,0 z"
       transform="translate(-817.05915,-401.64181)"
       id="path4006"
       style="fill:url(#radialGradient4028);fill-opacity:1;stroke:#000000;stroke-width:1;stroke-linecap:round;stroke-linejoin:round;stroke-miterlimit:4;stroke-opacity:1;stroke-dasharray:none" />
    <path
       d="m 432.71665,658.8125 a 27.865055,27.865055 0 1 1 -55.73011,0 27.865055,27.865055 0 1 1 55.73011,0 z"
       transform="translate(-751.41405,-420.82497)"
       id="path4008"
       style="fill:url(#radialGradient4030);fill-opacity:1;stroke:#000000;stroke-width:1;stroke-linecap:round;stroke-linejoin:round;stroke-miterlimit:4;stroke-opacity:1;stroke-dasharray:none" />
    <path
       d="m 426.48655,658.8125 a 21.634953,21.634953 0 1 1 -43.26991,0 21.634953,21.634953 0 1 1 43.26991,0 z"
       transform="translate(-899.68239,-439.57384)"
       id="path4050"
       style="fill:url(#radialGradient4052);fill-opacity:1;stroke:#000000;stroke-width:1;stroke-linecap:round;stroke-linejoin:round;stroke-miterlimit:4;stroke-opacity:1;stroke-dasharray:none" />
    <path
       d="m 426.48655,658.8125 a 21.634953,21.634953 0 1 1 -43.26991,0 21.634953,21.634953 0 1 1 43.26991,0 z"
       transform="translate(-843.61147,-468.23231)"
       id="path4064"
       style="fill:url(#radialGradient4066);fill-opacity:1;stroke:#000000;stroke-width:1;stroke-linecap:round;stroke-linejoin:round;stroke-miterlimit:4;stroke-opacity:1;stroke-dasharray:none" />
    <path
       d="m 426.48655,658.8125 a 21.634953,21.634953 0 1 1 -43.26991,0 21.634953,21.634953 0 1 1 43.26991,0 z"
       transform="translate(-781.93345,-483.80756)"
       id="path4068"
       style="fill:url(#radialGradient4070);fill-opacity:1;stroke:#000000;stroke-width:1;stroke-linecap:round;stroke-linejoin:round;stroke-miterlimit:4;stroke-opacity:1;stroke-dasharray:none" />
    <path
       d="m -715.65077,70.074978 24.99606,22.4712 c 54.53686,-16.41155 160.58075,-14.41155 208.80547,1.49503 l 22.21872,-23.46126"
       id="path4078"
       style="fill:none;stroke:#4d4d4d;stroke-width:1px;stroke-linecap:butt;stroke-linejoin:miter;stroke-opacity:1" />
  </g>
</svg>
