<?xml version="1.0" encoding="UTF-8" standalone="no"?>
<!-- Created with Inkscape (http://www.inkscape.org/) -->

<svg
   xmlns:dc="http://purl.org/dc/elements/1.1/"
   xmlns:cc="http://creativecommons.org/ns#"
   xmlns:rdf="http://www.w3.org/1999/02/22-rdf-syntax-ns#"
   xmlns:svg="http://www.w3.org/2000/svg"
   xmlns="http://www.w3.org/2000/svg"
   xmlns:xlink="http://www.w3.org/1999/xlink"
   version="1.1"
   width="585.59375"
   height="584.75"
   id="svg4812">
  <defs
     id="defs4814">
    <radialGradient
       cx="334.41635"
       cy="7414.54"
       r="149.8893"
       fx="334.41635"
       fy="7414.54"
       id="radialGradient4544"
       xlink:href="#linearGradient4527"
       gradientUnits="userSpaceOnUse" />
    <linearGradient
       id="linearGradient4527">
      <stop
         id="stop4529"
         style="stop-color:#464646;stop-opacity:1"
         offset="0" />
      <stop
         id="stop4531"
         style="stop-color:#464646;stop-opacity:1"
         offset="0.7480467" />
      <stop
         id="stop4533"
         style="stop-color:#0a0a0a;stop-opacity:1"
         offset="1" />
    </linearGradient>
    <radialGradient
       cx="334.41635"
       cy="7414.54"
       r="149.71426"
       fx="334.41635"
       fy="7414.54"
       id="radialGradient4525"
       xlink:href="#linearGradient4527"
       gradientUnits="userSpaceOnUse" />
    <linearGradient
       id="linearGradient4787">
      <stop
         id="stop4789"
         style="stop-color:#464646;stop-opacity:1"
         offset="0" />
      <stop
         id="stop4791"
         style="stop-color:#464646;stop-opacity:1"
         offset="0.7480467" />
      <stop
         id="stop4793"
         style="stop-color:#0a0a0a;stop-opacity:1"
         offset="1" />
    </linearGradient>
    <radialGradient
       cx="334.41635"
       cy="7414.54"
       r="149.59747"
       fx="334.41635"
       fy="7414.54"
       id="radialGradient4515"
       xlink:href="#linearGradient4509"
       gradientUnits="userSpaceOnUse" />
    <linearGradient
       id="linearGradient4509">
      <stop
         id="stop4511"
         style="stop-color:#464646;stop-opacity:1"
         offset="0" />
      <stop
         id="stop4517"
         style="stop-color:#464646;stop-opacity:1"
         offset="0.76972967" />
      <stop
         id="stop4513"
         style="stop-color:#0a0a0a;stop-opacity:1"
         offset="1" />
    </linearGradient>
    <radialGradient
       cx="404.85159"
       cy="658.8125"
       r="22.700239"
       fx="404.85159"
       fy="658.8125"
       id="radialGradient4479-1"
       xlink:href="#linearGradient4197-2-5"
       gradientUnits="userSpaceOnUse"
       gradientTransform="matrix(2.2257989,9.3143296e-7,-9.7799408e-7,2.3370637,-496.26601,-880.87468)" />
    <linearGradient
       id="linearGradient4197-2-5">
      <stop
         id="stop4199-4-1"
         style="stop-color:#ff4949;stop-opacity:1"
         offset="0" />
      <stop
         id="stop4201-5-7"
         style="stop-color:#ff0000;stop-opacity:1"
         offset="1" />
    </linearGradient>
  </defs>
  <metadata
     id="metadata4817">
    <rdf:RDF>
      <cc:Work
         rdf:about="">
        <dc:format>image/svg+xml</dc:format>
        <dc:type
           rdf:resource="http://purl.org/dc/dcmitype/StillImage" />
        <dc:title></dc:title>
      </cc:Work>
    </rdf:RDF>
  </metadata>
  <g
     transform="translate(-50.0625,-297.125)"
     id="layer1">
    <rect
       width="584.59686"
       height="583.75452"
       rx="48"
       ry="48"
       x="50.558712"
       y="297.62778"
       id="rect4462"
       style="fill:#121212;fill-opacity:1;stroke:#000000;stroke-width:1;stroke-linecap:butt;stroke-linejoin:round;stroke-miterlimit:4;stroke-opacity:1;stroke-dasharray:none;stroke-dashoffset:0" />
    <path
       d="m 156.03021,322.77773 c -40.24863,0 -72.874999,32.6263 -72.874999,72.875 0,20.7452 8.681792,39.4468 22.593749,52.7187 l -0.0625,0.062 49,49 c -22.15114,34.7619 -35,76.0067 -35,120.2812 0,123.8159 100.37166,224.1876 224.1875,224.1876 123.81584,0 224.1875,-100.3717 224.1875,-224.1876 0,-123.8158 -100.37166,-224.1874 -224.1875,-224.1874 -26.05465,0 -51.05087,4.4838 -74.3125,12.6562 l -60.78125,-60.8125 c -0.005,-0.01 -0.0263,0.01 -0.0312,0 -13.27187,-13.912 -31.97351,-22.5937 -52.71875,-22.5937 z"
       id="path4547"
       style="fill:#0a0a0a;fill-opacity:1;stroke:#000000;stroke-width:1;stroke-linecap:butt;stroke-linejoin:round;stroke-miterlimit:4;stroke-opacity:1;stroke-dasharray:none;stroke-dashoffset:0" />
    <path
       d="m 458.2191,658.8125 a 53.367508,53.367508 0 1 1 -106.73501,0 53.367508,53.367508 0 1 1 106.73501,0 z"
       transform="translate(-248.81348,-263.15587)"
       id="path3996-1-1"
       style="fill:url(#radialGradient4479-1);fill-opacity:1;stroke:#000000;stroke-width:1;stroke-linecap:round;stroke-linejoin:round;stroke-miterlimit:4;stroke-opacity:1;stroke-dasharray:none" />
    <path
       d="m 483.51382,7414.54 a 149.09747,149.09747 0 1 1 -298.19494,0 149.09747,149.09747 0 1 1 298.19494,0 z"
       transform="translate(9.4677115,-6796.816)"
       id="path4498"
       style="fill:url(#radialGradient4515);fill-opacity:1;stroke:#000000;stroke-width:1;stroke-linecap:butt;stroke-linejoin:round;stroke-miterlimit:4;stroke-opacity:1;stroke-dasharray:none;stroke-dashoffset:0" />
    <path
       d="m 483.51382,7414.54 a 149.09747,149.09747 0 1 1 -298.19494,0 149.09747,149.09747 0 1 1 298.19494,0 z"
       transform="matrix(1.3716351,0,0,1.3716351,-114.81313,-9552.3191)"
       id="path4500"
       style="fill:none;stroke:#ba6a35;stroke-width:5.83245516;stroke-linecap:butt;stroke-linejoin:round;stroke-miterlimit:4;stroke-opacity:1;stroke-dasharray:11.66491, 11.66491;stroke-dashoffset:14.58113751" />
    <path
       d="m 483.51382,7414.54 a 149.09747,149.09747 0 1 1 -298.19494,0 149.09747,149.09747 0 1 1 298.19494,0 z"
       transform="matrix(0.81065218,0,0,0.81065218,72.788718,-5392.889)"
       id="path4502"
       style="fill:url(#radialGradient4525);fill-opacity:1;stroke:#000000;stroke-width:1.23357463;stroke-linecap:butt;stroke-linejoin:round;stroke-miterlimit:4;stroke-opacity:1;stroke-dasharray:none;stroke-dashoffset:0" />
    <path
       d="m 483.51382,7414.54 a 149.09747,149.09747 0 1 1 -298.19494,0 149.09747,149.09747 0 1 1 298.19494,0 z"
       transform="matrix(0.63144799,0,0,0.63144799,132.71753,-4064.1724)"
       id="path4504"
       style="fill:url(#radialGradient4544);fill-opacity:1;stroke:#000000;stroke-width:1.58366168;stroke-linecap:butt;stroke-linejoin:round;stroke-miterlimit:4;stroke-opacity:1;stroke-dasharray:none;stroke-dashoffset:0" />
    <path
       d="m 336.87653,7345.8835 62.64165,36.1661 0,72.3324 -62.64166,36.1662 -62.64165,-36.1662 0,-72.3324 z"
       transform="translate(7.0075345,-6800.4919)"
       id="path4506"
       style="fill:#0a0a0a;fill-opacity:1;stroke:#000000;stroke-width:1;stroke-linecap:butt;stroke-linejoin:round;stroke-miterlimit:4;stroke-opacity:1;stroke-dasharray:none;stroke-dashoffset:20" />
  </g>
</svg>
