<?xml version="1.0" encoding="UTF-8" standalone="no"?>
<!-- Created with Inkscape (http://www.inkscape.org/) -->

<svg
   xmlns:dc="http://purl.org/dc/elements/1.1/"
   xmlns:cc="http://creativecommons.org/ns#"
   xmlns:rdf="http://www.w3.org/1999/02/22-rdf-syntax-ns#"
   xmlns:svg="http://www.w3.org/2000/svg"
   xmlns="http://www.w3.org/2000/svg"
   xmlns:xlink="http://www.w3.org/1999/xlink"
   version="1.1"
   width="276.59375"
   height="614.03125"
   id="svg5089">
  <defs
     id="defs5091">
    <radialGradient
       cx="376.73132"
       cy="11392.806"
       r="20.752205"
       fx="376.73132"
       fy="11392.806"
       id="radialGradient4909"
       xlink:href="#linearGradient4723"
       gradientUnits="userSpaceOnUse" />
    <linearGradient
       id="linearGradient4723">
      <stop
         id="stop4725"
         style="stop-color:#ebe7e1;stop-opacity:1"
         offset="0" />
      <stop
         id="stop4727"
         style="stop-color:#beb3a1;stop-opacity:1"
         offset="1" />
    </linearGradient>
    <radialGradient
       cx="376.73132"
       cy="11392.806"
       r="20.752205"
       fx="376.73132"
       fy="11392.806"
       id="radialGradient4911"
       xlink:href="#linearGradient4723"
       gradientUnits="userSpaceOnUse" />
    <linearGradient
       id="linearGradient4948">
      <stop
         id="stop4950"
         style="stop-color:#ebe7e1;stop-opacity:1"
         offset="0" />
      <stop
         id="stop4952"
         style="stop-color:#beb3a1;stop-opacity:1"
         offset="1" />
    </linearGradient>
    <radialGradient
       cx="376.73132"
       cy="11392.806"
       r="20.752205"
       fx="376.73132"
       fy="11392.806"
       id="radialGradient4913"
       xlink:href="#linearGradient4723"
       gradientUnits="userSpaceOnUse" />
    <linearGradient
       id="linearGradient4955">
      <stop
         id="stop4957"
         style="stop-color:#ebe7e1;stop-opacity:1"
         offset="0" />
      <stop
         id="stop4959"
         style="stop-color:#beb3a1;stop-opacity:1"
         offset="1" />
    </linearGradient>
    <radialGradient
       cx="376.73132"
       cy="11392.806"
       r="20.752205"
       fx="376.73132"
       fy="11392.806"
       id="radialGradient4915"
       xlink:href="#linearGradient4723"
       gradientUnits="userSpaceOnUse" />
    <linearGradient
       id="linearGradient4962">
      <stop
         id="stop4964"
         style="stop-color:#ebe7e1;stop-opacity:1"
         offset="0" />
      <stop
         id="stop4966"
         style="stop-color:#beb3a1;stop-opacity:1"
         offset="1" />
    </linearGradient>
    <radialGradient
       cx="376.73132"
       cy="11392.806"
       r="20.752205"
       fx="376.73132"
       fy="11392.806"
       id="radialGradient4917"
       xlink:href="#linearGradient4723"
       gradientUnits="userSpaceOnUse" />
    <linearGradient
       id="linearGradient4969">
      <stop
         id="stop4971"
         style="stop-color:#ebe7e1;stop-opacity:1"
         offset="0" />
      <stop
         id="stop4973"
         style="stop-color:#beb3a1;stop-opacity:1"
         offset="1" />
    </linearGradient>
    <radialGradient
       cx="376.73132"
       cy="11392.806"
       r="20.752205"
       fx="376.73132"
       fy="11392.806"
       id="radialGradient4919"
       xlink:href="#linearGradient4723"
       gradientUnits="userSpaceOnUse" />
    <linearGradient
       id="linearGradient4976">
      <stop
         id="stop4978"
         style="stop-color:#ebe7e1;stop-opacity:1"
         offset="0" />
      <stop
         id="stop4980"
         style="stop-color:#beb3a1;stop-opacity:1"
         offset="1" />
    </linearGradient>
    <radialGradient
       cx="376.73132"
       cy="11392.806"
       r="20.752205"
       fx="376.73132"
       fy="11392.806"
       id="radialGradient4921"
       xlink:href="#linearGradient4723"
       gradientUnits="userSpaceOnUse" />
    <linearGradient
       id="linearGradient4983">
      <stop
         id="stop4985"
         style="stop-color:#ebe7e1;stop-opacity:1"
         offset="0" />
      <stop
         id="stop4987"
         style="stop-color:#beb3a1;stop-opacity:1"
         offset="1" />
    </linearGradient>
    <radialGradient
       cx="376.73132"
       cy="11392.806"
       r="20.752205"
       fx="376.73132"
       fy="11392.806"
       id="radialGradient4923"
       xlink:href="#linearGradient4723"
       gradientUnits="userSpaceOnUse" />
    <linearGradient
       id="linearGradient4990">
      <stop
         id="stop4992"
         style="stop-color:#ebe7e1;stop-opacity:1"
         offset="0" />
      <stop
         id="stop4994"
         style="stop-color:#beb3a1;stop-opacity:1"
         offset="1" />
    </linearGradient>
    <radialGradient
       cx="376.73132"
       cy="11392.806"
       r="20.752205"
       fx="376.73132"
       fy="11392.806"
       id="radialGradient4925"
       xlink:href="#linearGradient4723"
       gradientUnits="userSpaceOnUse" />
    <linearGradient
       id="linearGradient4997">
      <stop
         id="stop4999"
         style="stop-color:#ebe7e1;stop-opacity:1"
         offset="0" />
      <stop
         id="stop5001"
         style="stop-color:#beb3a1;stop-opacity:1"
         offset="1" />
    </linearGradient>
    <radialGradient
       cx="376.73132"
       cy="11392.806"
       r="20.752205"
       fx="376.73132"
       fy="11392.806"
       id="radialGradient4927"
       xlink:href="#linearGradient4723"
       gradientUnits="userSpaceOnUse" />
    <linearGradient
       id="linearGradient5004">
      <stop
         id="stop5006"
         style="stop-color:#ebe7e1;stop-opacity:1"
         offset="0" />
      <stop
         id="stop5008"
         style="stop-color:#beb3a1;stop-opacity:1"
         offset="1" />
    </linearGradient>
    <radialGradient
       cx="376.73132"
       cy="11392.806"
       r="20.752205"
       fx="376.73132"
       fy="11392.806"
       id="radialGradient4929"
       xlink:href="#linearGradient4723"
       gradientUnits="userSpaceOnUse" />
    <linearGradient
       id="linearGradient5011">
      <stop
         id="stop5013"
         style="stop-color:#ebe7e1;stop-opacity:1"
         offset="0" />
      <stop
         id="stop5015"
         style="stop-color:#beb3a1;stop-opacity:1"
         offset="1" />
    </linearGradient>
    <radialGradient
       cx="376.73132"
       cy="11392.806"
       r="20.752205"
       fx="376.73132"
       fy="11392.806"
       id="radialGradient4931"
       xlink:href="#linearGradient4723"
       gradientUnits="userSpaceOnUse" />
    <linearGradient
       id="linearGradient5018">
      <stop
         id="stop5020"
         style="stop-color:#ebe7e1;stop-opacity:1"
         offset="0" />
      <stop
         id="stop5022"
         style="stop-color:#beb3a1;stop-opacity:1"
         offset="1" />
    </linearGradient>
    <radialGradient
       cx="379.81171"
       cy="11565.348"
       r="73.236183"
       fx="379.81171"
       fy="11565.348"
       id="radialGradient4706"
       xlink:href="#linearGradient4691"
       gradientUnits="userSpaceOnUse" />
    <linearGradient
       id="linearGradient4691">
      <stop
         id="stop4693"
         style="stop-color:#524e4e;stop-opacity:1"
         offset="0" />
      <stop
         id="stop4699"
         style="stop-color:#524e4e;stop-opacity:1"
         offset="0.79198545" />
      <stop
         id="stop4695"
         style="stop-color:#3a3737;stop-opacity:1"
         offset="1" />
    </linearGradient>
  </defs>
  <metadata
     id="metadata5094">
    <rdf:RDF>
      <cc:Work
         rdf:about="">
        <dc:format>image/svg+xml</dc:format>
        <dc:type
           rdf:resource="http://purl.org/dc/dcmitype/StillImage" />
        <dc:title></dc:title>
      </cc:Work>
    </rdf:RDF>
  </metadata>
  <g
     transform="translate(-233.125,-325.34375)"
     id="layer1">
    <rect
       width="6.2709851"
       height="41.715687"
       rx="2"
       ry="2"
       x="233.62331"
       y="505.26566"
       id="rect4850"
       style="fill:#3a3737;fill-opacity:1;stroke:#000000;stroke-width:1;stroke-linecap:butt;stroke-linejoin:miter;stroke-miterlimit:4;stroke-opacity:1;stroke-dasharray:none;stroke-dashoffset:20" />
    <rect
       width="6.2709851"
       height="41.715687"
       rx="2"
       ry="2"
       x="233.62331"
       y="571.51953"
       id="rect4852"
       style="fill:#3a3737;fill-opacity:1;stroke:#000000;stroke-width:1;stroke-linecap:butt;stroke-linejoin:miter;stroke-miterlimit:4;stroke-opacity:1;stroke-dasharray:none;stroke-dashoffset:20" />
    <rect
       width="227.86302"
       height="9.6467562"
       rx="2"
       ry="2"
       x="260.78329"
       y="325.85452"
       id="rect4854"
       style="fill:#3a3737;fill-opacity:1;stroke:#000000;stroke-width:1;stroke-linecap:butt;stroke-linejoin:miter;stroke-miterlimit:4;stroke-opacity:1;stroke-dasharray:none;stroke-dashoffset:20" />
    <rect
       width="271.93533"
       height="607.04755"
       rx="4"
       ry="4"
       x="237.29851"
       y="331.8223"
       id="rect4681"
       style="fill:#3a3737;fill-opacity:1;stroke:#000000;stroke-width:1;stroke-linecap:butt;stroke-linejoin:miter;stroke-miterlimit:4;stroke-opacity:1;stroke-dasharray:none;stroke-dashoffset:20" />
    <g
       transform="translate(-15.614488,-10725.832)"
       id="g4701">
      <path
         d="m 452.69669,11565.348 a 72.884979,72.884979 0 1 1 -145.76996,0 72.884979,72.884979 0 1 1 145.76996,0 z"
         transform="matrix(1.4236766,0,0,1.4236766,-151.84838,-4916.13)"
         id="path4687"
         style="fill:url(#radialGradient4706);fill-opacity:1;stroke:#000000;stroke-width:0.7024067;stroke-linecap:butt;stroke-linejoin:miter;stroke-miterlimit:4;stroke-opacity:1;stroke-dasharray:none;stroke-dashoffset:20" />
      <path
         d="m 452.69669,11565.348 a 72.884979,72.884979 0 1 1 -145.76996,0 72.884979,72.884979 0 1 1 145.76996,0 z"
         transform="matrix(1.1677053,0,0,1.1677053,-54.627485,-1955.733)"
         id="path4689"
         style="opacity:0.54882154;fill:#3a3737;fill-opacity:1;stroke:#000000;stroke-width:0.85638046;stroke-linecap:butt;stroke-linejoin:miter;stroke-miterlimit:4;stroke-opacity:1;stroke-dasharray:none;stroke-dashoffset:20" />
      <path
         d="m 452.69669,11565.348 a 72.884979,72.884979 0 1 1 -145.76996,0 72.884979,72.884979 0 1 1 145.76996,0 z"
         transform="translate(9.0689639,-16.1625)"
         id="path4685"
         style="opacity:0.54882154;fill:#a4926a;fill-opacity:1;stroke:#000000;stroke-width:4;stroke-linecap:butt;stroke-linejoin:miter;stroke-miterlimit:4;stroke-opacity:1;stroke-dasharray:none;stroke-dashoffset:20" />
    </g>
    <g
       transform="translate(-13.903848,-10725.832)"
       id="g4856">
      <rect
         width="249.562"
         height="306.871"
         rx="35"
         ry="35"
         x="253.22006"
         y="11147.284"
         transform="translate(9.1689639,-17.0625)"
         id="rect4708"
         style="fill:#151010;fill-opacity:1;stroke:#000000;stroke-width:1;stroke-linecap:butt;stroke-linejoin:miter;stroke-miterlimit:4;stroke-opacity:1;stroke-dasharray:none;stroke-dashoffset:20" />
      <rect
         width="226.89148"
         height="278.99445"
         rx="20"
         ry="20"
         x="273.72427"
         y="11144.16"
         id="rect4710"
         style="fill:#151010;fill-opacity:1;stroke:#000000;stroke-width:2;stroke-linecap:butt;stroke-linejoin:miter;stroke-miterlimit:4;stroke-opacity:1;stroke-dasharray:none;stroke-dashoffset:20" />
      <rect
         width="200.98233"
         height="247.13556"
         rx="10"
         ry="10"
         x="286.67886"
         y="11160.089"
         id="rect4712"
         style="fill:#beb3a1;fill-opacity:1;stroke:#000000;stroke-width:1;stroke-linecap:butt;stroke-linejoin:miter;stroke-miterlimit:4;stroke-opacity:1;stroke-dasharray:none;stroke-dashoffset:20" />
      <g
         id="g4731">
        <rect
           width="51.688465"
           height="51.688465"
           rx="6"
           ry="6"
           x="351.03824"
           y="11367.313"
           transform="translate(9.1689639,-17.0625)"
           id="rect4719"
           style="fill:#151010;fill-opacity:1;stroke:#000000;stroke-width:1;stroke-linecap:butt;stroke-linejoin:miter;stroke-miterlimit:4;stroke-opacity:1;stroke-dasharray:none;stroke-dashoffset:20" />
        <path
           d="m 398.36278,11374.05 c 3.30262,3.483 2.42065,36.681 -1.06223,39.984 -3.48289,3.302 -36.68139,2.421 -39.98401,-1.062 -3.30262,-3.483 -2.42065,-36.682 1.06224,-39.984 3.48288,-3.303 36.68138,-2.421 39.984,1.062 z"
           transform="translate(8.2117743,-17.415533)"
           id="path4717"
           style="fill:#beb3a1;fill-opacity:1;stroke:#000000;stroke-width:1;stroke-linecap:butt;stroke-linejoin:miter;stroke-miterlimit:4;stroke-opacity:1;stroke-dasharray:none;stroke-dashoffset:20" />
        <path
           d="m 396.98353,11392.806 a 20.252205,20.252205 0 1 1 -40.50441,0 20.252205,20.252205 0 1 1 40.50441,0 z"
           transform="translate(9.3201117,-16.710455)"
           id="path4721"
           style="fill:url(#radialGradient4909);fill-opacity:1;stroke:#000000;stroke-width:1;stroke-linecap:butt;stroke-linejoin:miter;stroke-miterlimit:4;stroke-opacity:1;stroke-dasharray:none;stroke-dashoffset:20" />
      </g>
      <g
         transform="translate(0,-62.587413)"
         id="g4736">
        <rect
           width="51.688465"
           height="51.688465"
           rx="6"
           ry="6"
           x="351.03824"
           y="11367.313"
           transform="translate(9.1689639,-17.0625)"
           id="rect4738"
           style="fill:#151010;fill-opacity:1;stroke:#000000;stroke-width:1;stroke-linecap:butt;stroke-linejoin:miter;stroke-miterlimit:4;stroke-opacity:1;stroke-dasharray:none;stroke-dashoffset:20" />
        <path
           d="m 398.36278,11374.05 c 3.30262,3.483 2.42065,36.681 -1.06223,39.984 -3.48289,3.302 -36.68139,2.421 -39.98401,-1.062 -3.30262,-3.483 -2.42065,-36.682 1.06224,-39.984 3.48288,-3.303 36.68138,-2.421 39.984,1.062 z"
           transform="translate(8.2117743,-17.415533)"
           id="path4740"
           style="fill:#beb3a1;fill-opacity:1;stroke:#000000;stroke-width:1;stroke-linecap:butt;stroke-linejoin:miter;stroke-miterlimit:4;stroke-opacity:1;stroke-dasharray:none;stroke-dashoffset:20" />
        <path
           d="m 396.98353,11392.806 a 20.252205,20.252205 0 1 1 -40.50441,0 20.252205,20.252205 0 1 1 40.50441,0 z"
           transform="translate(9.3201117,-16.710455)"
           id="path4742"
           style="fill:url(#radialGradient4911);fill-opacity:1;stroke:#000000;stroke-width:1;stroke-linecap:butt;stroke-linejoin:miter;stroke-miterlimit:4;stroke-opacity:1;stroke-dasharray:none;stroke-dashoffset:20" />
      </g>
      <g
         transform="translate(0,-124.82518)"
         id="g4746">
        <rect
           width="51.688465"
           height="51.688465"
           rx="6"
           ry="6"
           x="351.03824"
           y="11367.313"
           transform="translate(9.1689639,-17.0625)"
           id="rect4748"
           style="fill:#151010;fill-opacity:1;stroke:#000000;stroke-width:1;stroke-linecap:butt;stroke-linejoin:miter;stroke-miterlimit:4;stroke-opacity:1;stroke-dasharray:none;stroke-dashoffset:20" />
        <path
           d="m 398.36278,11374.05 c 3.30262,3.483 2.42065,36.681 -1.06223,39.984 -3.48289,3.302 -36.68139,2.421 -39.98401,-1.062 -3.30262,-3.483 -2.42065,-36.682 1.06224,-39.984 3.48288,-3.303 36.68138,-2.421 39.984,1.062 z"
           transform="translate(8.2117743,-17.415533)"
           id="path4750"
           style="fill:#beb3a1;fill-opacity:1;stroke:#000000;stroke-width:1;stroke-linecap:butt;stroke-linejoin:miter;stroke-miterlimit:4;stroke-opacity:1;stroke-dasharray:none;stroke-dashoffset:20" />
        <path
           d="m 396.98353,11392.806 a 20.252205,20.252205 0 1 1 -40.50441,0 20.252205,20.252205 0 1 1 40.50441,0 z"
           transform="translate(9.3201117,-16.710455)"
           id="path4752"
           style="fill:url(#radialGradient4913);fill-opacity:1;stroke:#000000;stroke-width:1;stroke-linecap:butt;stroke-linejoin:miter;stroke-miterlimit:4;stroke-opacity:1;stroke-dasharray:none;stroke-dashoffset:20" />
      </g>
      <g
         transform="translate(0,-184.61539)"
         id="g4757">
        <rect
           width="51.688465"
           height="51.688465"
           rx="6"
           ry="6"
           x="351.03824"
           y="11367.313"
           transform="translate(9.1689639,-17.0625)"
           id="rect4759"
           style="fill:#151010;fill-opacity:1;stroke:#000000;stroke-width:1;stroke-linecap:butt;stroke-linejoin:miter;stroke-miterlimit:4;stroke-opacity:1;stroke-dasharray:none;stroke-dashoffset:20" />
        <path
           d="m 398.36278,11374.05 c 3.30262,3.483 2.42065,36.681 -1.06223,39.984 -3.48289,3.302 -36.68139,2.421 -39.98401,-1.062 -3.30262,-3.483 -2.42065,-36.682 1.06224,-39.984 3.48288,-3.303 36.68138,-2.421 39.984,1.062 z"
           transform="translate(8.2117743,-17.415533)"
           id="path4761"
           style="fill:#beb3a1;fill-opacity:1;stroke:#000000;stroke-width:1;stroke-linecap:butt;stroke-linejoin:miter;stroke-miterlimit:4;stroke-opacity:1;stroke-dasharray:none;stroke-dashoffset:20" />
        <path
           d="m 396.98353,11392.806 a 20.252205,20.252205 0 1 1 -40.50441,0 20.252205,20.252205 0 1 1 40.50441,0 z"
           transform="translate(9.3201117,-16.710455)"
           id="path4763"
           style="fill:url(#radialGradient4915);fill-opacity:1;stroke:#000000;stroke-width:1;stroke-linecap:butt;stroke-linejoin:miter;stroke-miterlimit:4;stroke-opacity:1;stroke-dasharray:none;stroke-dashoffset:20" />
      </g>
      <g
         transform="translate(61.888112,0)"
         id="g4767">
        <rect
           width="51.688465"
           height="51.688465"
           rx="6"
           ry="6"
           x="351.03824"
           y="11367.313"
           transform="translate(9.1689639,-17.0625)"
           id="rect4770"
           style="fill:#151010;fill-opacity:1;stroke:#000000;stroke-width:1;stroke-linecap:butt;stroke-linejoin:miter;stroke-miterlimit:4;stroke-opacity:1;stroke-dasharray:none;stroke-dashoffset:20" />
        <path
           d="m 398.36278,11374.05 c 3.30262,3.483 2.42065,36.681 -1.06223,39.984 -3.48289,3.302 -36.68139,2.421 -39.98401,-1.062 -3.30262,-3.483 -2.42065,-36.682 1.06224,-39.984 3.48288,-3.303 36.68138,-2.421 39.984,1.062 z"
           transform="translate(8.2117743,-17.415533)"
           id="path4772"
           style="fill:#beb3a1;fill-opacity:1;stroke:#000000;stroke-width:1;stroke-linecap:butt;stroke-linejoin:miter;stroke-miterlimit:4;stroke-opacity:1;stroke-dasharray:none;stroke-dashoffset:20" />
        <path
           d="m 396.98353,11392.806 a 20.252205,20.252205 0 1 1 -40.50441,0 20.252205,20.252205 0 1 1 40.50441,0 z"
           transform="translate(9.3201117,-16.710455)"
           id="path4774"
           style="fill:url(#radialGradient4917);fill-opacity:1;stroke:#000000;stroke-width:1;stroke-linecap:butt;stroke-linejoin:miter;stroke-miterlimit:4;stroke-opacity:1;stroke-dasharray:none;stroke-dashoffset:20" />
      </g>
      <g
         transform="translate(61.888112,-62.587413)"
         id="g4776">
        <rect
           width="51.688465"
           height="51.688465"
           rx="6"
           ry="6"
           x="351.03824"
           y="11367.313"
           transform="translate(9.1689639,-17.0625)"
           id="rect4778"
           style="fill:#151010;fill-opacity:1;stroke:#000000;stroke-width:1;stroke-linecap:butt;stroke-linejoin:miter;stroke-miterlimit:4;stroke-opacity:1;stroke-dasharray:none;stroke-dashoffset:20" />
        <path
           d="m 398.36278,11374.05 c 3.30262,3.483 2.42065,36.681 -1.06223,39.984 -3.48289,3.302 -36.68139,2.421 -39.98401,-1.062 -3.30262,-3.483 -2.42065,-36.682 1.06224,-39.984 3.48288,-3.303 36.68138,-2.421 39.984,1.062 z"
           transform="translate(8.2117743,-17.415533)"
           id="path4780"
           style="fill:#beb3a1;fill-opacity:1;stroke:#000000;stroke-width:1;stroke-linecap:butt;stroke-linejoin:miter;stroke-miterlimit:4;stroke-opacity:1;stroke-dasharray:none;stroke-dashoffset:20" />
        <path
           d="m 396.98353,11392.806 a 20.252205,20.252205 0 1 1 -40.50441,0 20.252205,20.252205 0 1 1 40.50441,0 z"
           transform="translate(9.3201117,-16.710455)"
           id="path4782"
           style="fill:url(#radialGradient4919);fill-opacity:1;stroke:#000000;stroke-width:1;stroke-linecap:butt;stroke-linejoin:miter;stroke-miterlimit:4;stroke-opacity:1;stroke-dasharray:none;stroke-dashoffset:20" />
      </g>
      <g
         transform="translate(61.888112,-124.82518)"
         id="g4784">
        <rect
           width="51.688465"
           height="51.688465"
           rx="6"
           ry="6"
           x="351.03824"
           y="11367.313"
           transform="translate(9.1689639,-17.0625)"
           id="rect4786"
           style="fill:#151010;fill-opacity:1;stroke:#000000;stroke-width:1;stroke-linecap:butt;stroke-linejoin:miter;stroke-miterlimit:4;stroke-opacity:1;stroke-dasharray:none;stroke-dashoffset:20" />
        <path
           d="m 398.36278,11374.05 c 3.30262,3.483 2.42065,36.681 -1.06223,39.984 -3.48289,3.302 -36.68139,2.421 -39.98401,-1.062 -3.30262,-3.483 -2.42065,-36.682 1.06224,-39.984 3.48288,-3.303 36.68138,-2.421 39.984,1.062 z"
           transform="translate(8.2117743,-17.415533)"
           id="path4788"
           style="fill:#beb3a1;fill-opacity:1;stroke:#000000;stroke-width:1;stroke-linecap:butt;stroke-linejoin:miter;stroke-miterlimit:4;stroke-opacity:1;stroke-dasharray:none;stroke-dashoffset:20" />
        <path
           d="m 396.98353,11392.806 a 20.252205,20.252205 0 1 1 -40.50441,0 20.252205,20.252205 0 1 1 40.50441,0 z"
           transform="translate(9.3201117,-16.710455)"
           id="path4790"
           style="fill:url(#radialGradient4921);fill-opacity:1;stroke:#000000;stroke-width:1;stroke-linecap:butt;stroke-linejoin:miter;stroke-miterlimit:4;stroke-opacity:1;stroke-dasharray:none;stroke-dashoffset:20" />
      </g>
      <g
         transform="translate(61.888112,-184.61539)"
         id="g4792">
        <rect
           width="51.688465"
           height="51.688465"
           rx="6"
           ry="6"
           x="351.03824"
           y="11367.313"
           transform="translate(9.1689639,-17.0625)"
           id="rect4794"
           style="fill:#151010;fill-opacity:1;stroke:#000000;stroke-width:1;stroke-linecap:butt;stroke-linejoin:miter;stroke-miterlimit:4;stroke-opacity:1;stroke-dasharray:none;stroke-dashoffset:20" />
        <path
           d="m 398.36278,11374.05 c 3.30262,3.483 2.42065,36.681 -1.06223,39.984 -3.48289,3.302 -36.68139,2.421 -39.98401,-1.062 -3.30262,-3.483 -2.42065,-36.682 1.06224,-39.984 3.48288,-3.303 36.68138,-2.421 39.984,1.062 z"
           transform="translate(8.2117743,-17.415533)"
           id="path4796"
           style="fill:#beb3a1;fill-opacity:1;stroke:#000000;stroke-width:1;stroke-linecap:butt;stroke-linejoin:miter;stroke-miterlimit:4;stroke-opacity:1;stroke-dasharray:none;stroke-dashoffset:20" />
        <path
           d="m 396.98353,11392.806 a 20.252205,20.252205 0 1 1 -40.50441,0 20.252205,20.252205 0 1 1 40.50441,0 z"
           transform="translate(9.3201117,-16.710455)"
           id="path4798"
           style="fill:url(#radialGradient4923);fill-opacity:1;stroke:#000000;stroke-width:1;stroke-linecap:butt;stroke-linejoin:miter;stroke-miterlimit:4;stroke-opacity:1;stroke-dasharray:none;stroke-dashoffset:20" />
      </g>
      <g
         transform="translate(-61.188811,0)"
         id="g4809">
        <rect
           width="51.688465"
           height="51.688465"
           rx="6"
           ry="6"
           x="351.03824"
           y="11367.313"
           transform="translate(9.1689639,-17.0625)"
           id="rect4811"
           style="fill:#151010;fill-opacity:1;stroke:#000000;stroke-width:1;stroke-linecap:butt;stroke-linejoin:miter;stroke-miterlimit:4;stroke-opacity:1;stroke-dasharray:none;stroke-dashoffset:20" />
        <path
           d="m 398.36278,11374.05 c 3.30262,3.483 2.42065,36.681 -1.06223,39.984 -3.48289,3.302 -36.68139,2.421 -39.98401,-1.062 -3.30262,-3.483 -2.42065,-36.682 1.06224,-39.984 3.48288,-3.303 36.68138,-2.421 39.984,1.062 z"
           transform="translate(8.2117743,-17.415533)"
           id="path4813"
           style="fill:#beb3a1;fill-opacity:1;stroke:#000000;stroke-width:1;stroke-linecap:butt;stroke-linejoin:miter;stroke-miterlimit:4;stroke-opacity:1;stroke-dasharray:none;stroke-dashoffset:20" />
        <path
           d="m 396.98353,11392.806 a 20.252205,20.252205 0 1 1 -40.50441,0 20.252205,20.252205 0 1 1 40.50441,0 z"
           transform="translate(9.3201117,-16.710455)"
           id="path4815"
           style="fill:url(#radialGradient4925);fill-opacity:1;stroke:#000000;stroke-width:1;stroke-linecap:butt;stroke-linejoin:miter;stroke-miterlimit:4;stroke-opacity:1;stroke-dasharray:none;stroke-dashoffset:20" />
      </g>
      <g
         transform="translate(-61.188811,-62.587413)"
         id="g4817">
        <rect
           width="51.688465"
           height="51.688465"
           rx="6"
           ry="6"
           x="351.03824"
           y="11367.313"
           transform="translate(9.1689639,-17.0625)"
           id="rect4819"
           style="fill:#151010;fill-opacity:1;stroke:#000000;stroke-width:1;stroke-linecap:butt;stroke-linejoin:miter;stroke-miterlimit:4;stroke-opacity:1;stroke-dasharray:none;stroke-dashoffset:20" />
        <path
           d="m 398.36278,11374.05 c 3.30262,3.483 2.42065,36.681 -1.06223,39.984 -3.48289,3.302 -36.68139,2.421 -39.98401,-1.062 -3.30262,-3.483 -2.42065,-36.682 1.06224,-39.984 3.48288,-3.303 36.68138,-2.421 39.984,1.062 z"
           transform="translate(8.2117743,-17.415533)"
           id="path4821"
           style="fill:#beb3a1;fill-opacity:1;stroke:#000000;stroke-width:1;stroke-linecap:butt;stroke-linejoin:miter;stroke-miterlimit:4;stroke-opacity:1;stroke-dasharray:none;stroke-dashoffset:20" />
        <path
           d="m 396.98353,11392.806 a 20.252205,20.252205 0 1 1 -40.50441,0 20.252205,20.252205 0 1 1 40.50441,0 z"
           transform="translate(9.3201117,-16.710455)"
           id="path4823"
           style="fill:url(#radialGradient4927);fill-opacity:1;stroke:#000000;stroke-width:1;stroke-linecap:butt;stroke-linejoin:miter;stroke-miterlimit:4;stroke-opacity:1;stroke-dasharray:none;stroke-dashoffset:20" />
      </g>
      <g
         transform="translate(-61.188811,-124.82518)"
         id="g4825">
        <rect
           width="51.688465"
           height="51.688465"
           rx="6"
           ry="6"
           x="351.03824"
           y="11367.313"
           transform="translate(9.1689639,-17.0625)"
           id="rect4827"
           style="fill:#151010;fill-opacity:1;stroke:#000000;stroke-width:1;stroke-linecap:butt;stroke-linejoin:miter;stroke-miterlimit:4;stroke-opacity:1;stroke-dasharray:none;stroke-dashoffset:20" />
        <path
           d="m 398.36278,11374.05 c 3.30262,3.483 2.42065,36.681 -1.06223,39.984 -3.48289,3.302 -36.68139,2.421 -39.98401,-1.062 -3.30262,-3.483 -2.42065,-36.682 1.06224,-39.984 3.48288,-3.303 36.68138,-2.421 39.984,1.062 z"
           transform="translate(8.2117743,-17.415533)"
           id="path4829"
           style="fill:#beb3a1;fill-opacity:1;stroke:#000000;stroke-width:1;stroke-linecap:butt;stroke-linejoin:miter;stroke-miterlimit:4;stroke-opacity:1;stroke-dasharray:none;stroke-dashoffset:20" />
        <path
           d="m 396.98353,11392.806 a 20.252205,20.252205 0 1 1 -40.50441,0 20.252205,20.252205 0 1 1 40.50441,0 z"
           transform="translate(9.3201117,-16.710455)"
           id="path4832"
           style="fill:url(#radialGradient4929);fill-opacity:1;stroke:#000000;stroke-width:1;stroke-linecap:butt;stroke-linejoin:miter;stroke-miterlimit:4;stroke-opacity:1;stroke-dasharray:none;stroke-dashoffset:20" />
      </g>
      <g
         transform="translate(-61.188811,-184.61539)"
         id="g4834">
        <rect
           width="51.688465"
           height="51.688465"
           rx="6"
           ry="6"
           x="351.03824"
           y="11367.313"
           transform="translate(9.1689639,-17.0625)"
           id="rect4836"
           style="fill:#151010;fill-opacity:1;stroke:#000000;stroke-width:1;stroke-linecap:butt;stroke-linejoin:miter;stroke-miterlimit:4;stroke-opacity:1;stroke-dasharray:none;stroke-dashoffset:20" />
        <path
           d="m 398.36278,11374.05 c 3.30262,3.483 2.42065,36.681 -1.06223,39.984 -3.48289,3.302 -36.68139,2.421 -39.98401,-1.062 -3.30262,-3.483 -2.42065,-36.682 1.06224,-39.984 3.48288,-3.303 36.68138,-2.421 39.984,1.062 z"
           transform="translate(8.2117743,-17.415533)"
           id="path4838"
           style="fill:#beb3a1;fill-opacity:1;stroke:#000000;stroke-width:1;stroke-linecap:butt;stroke-linejoin:miter;stroke-miterlimit:4;stroke-opacity:1;stroke-dasharray:none;stroke-dashoffset:20" />
        <path
           d="m 396.98353,11392.806 a 20.252205,20.252205 0 1 1 -40.50441,0 20.252205,20.252205 0 1 1 40.50441,0 z"
           transform="translate(9.3201117,-16.710455)"
           id="path4840"
           style="fill:url(#radialGradient4931);fill-opacity:1;stroke:#000000;stroke-width:1;stroke-linecap:butt;stroke-linejoin:miter;stroke-miterlimit:4;stroke-opacity:1;stroke-dasharray:none;stroke-dashoffset:20" />
      </g>
    </g>
  </g>
</svg>
