<?xml version="1.0" encoding="UTF-8" standalone="no"?>
<!-- Created with Inkscape (http://www.inkscape.org/) -->

<svg
   xmlns:dc="http://purl.org/dc/elements/1.1/"
   xmlns:cc="http://creativecommons.org/ns#"
   xmlns:rdf="http://www.w3.org/1999/02/22-rdf-syntax-ns#"
   xmlns:svg="http://www.w3.org/2000/svg"
   xmlns="http://www.w3.org/2000/svg"
   xmlns:xlink="http://www.w3.org/1999/xlink"
   version="1.1"
   width="1037.8181"
   height="850.34943"
   id="svg5939">
  <defs
     id="defs5941">
    <radialGradient
       cx="2252.1008"
       cy="16273.119"
       r="33.273109"
       fx="2252.1008"
       fy="16273.119"
       id="radialGradient5138"
       xlink:href="#linearGradient5124"
       gradientUnits="userSpaceOnUse" />
    <linearGradient
       id="linearGradient5124">
      <stop
         id="stop5126"
         style="stop-color:#b4b6b8;stop-opacity:1"
         offset="0" />
      <stop
         id="stop5128"
         style="stop-color:#8d9194;stop-opacity:1"
         offset="1" />
    </linearGradient>
    <radialGradient
       cx="2252.1008"
       cy="16273.119"
       r="33.273109"
       fx="2252.1008"
       fy="16273.119"
       id="radialGradient5130"
       xlink:href="#linearGradient5124"
       gradientUnits="userSpaceOnUse" />
    <linearGradient
       id="linearGradient5876">
      <stop
         id="stop5878"
         style="stop-color:#b4b6b8;stop-opacity:1"
         offset="0" />
      <stop
         id="stop5880"
         style="stop-color:#8d9194;stop-opacity:1"
         offset="1" />
    </linearGradient>
    <radialGradient
       cx="404.85159"
       cy="658.8125"
       r="13.247952"
       fx="404.85159"
       fy="658.8125"
       id="radialGradient5105"
       xlink:href="#linearGradient5080"
       gradientUnits="userSpaceOnUse" />
    <linearGradient
       id="linearGradient5080">
      <stop
         id="stop5082"
         style="stop-color:#0e0f10;stop-opacity:1"
         offset="0" />
      <stop
         id="stop5084"
         style="stop-color:#202326;stop-opacity:1"
         offset="1" />
    </linearGradient>
    <radialGradient
       cx="2252.1008"
       cy="16273.119"
       r="33.273109"
       fx="2252.1008"
       fy="16273.119"
       id="radialGradient5114"
       xlink:href="#linearGradient5107"
       gradientUnits="userSpaceOnUse" />
    <linearGradient
       id="linearGradient5107">
      <stop
         id="stop5109"
         style="stop-color:#d5484e;stop-opacity:1"
         offset="0" />
      <stop
         id="stop5111"
         style="stop-color:#b92a30;stop-opacity:1"
         offset="1" />
    </linearGradient>
    <radialGradient
       cx="2252.1008"
       cy="16273.119"
       r="33.273109"
       fx="2252.1008"
       fy="16273.119"
       id="radialGradient5122"
       xlink:href="#linearGradient5107"
       gradientUnits="userSpaceOnUse" />
    <linearGradient
       id="linearGradient5891">
      <stop
         id="stop5893"
         style="stop-color:#d5484e;stop-opacity:1"
         offset="0" />
      <stop
         id="stop5895"
         style="stop-color:#b92a30;stop-opacity:1"
         offset="1" />
    </linearGradient>
    <radialGradient
       cx="404.85159"
       cy="658.8125"
       r="13.247952"
       fx="404.85159"
       fy="658.8125"
       id="radialGradient5086"
       xlink:href="#linearGradient5080"
       gradientUnits="userSpaceOnUse" />
    <linearGradient
       id="linearGradient5898">
      <stop
         id="stop5900"
         style="stop-color:#0e0f10;stop-opacity:1"
         offset="0" />
      <stop
         id="stop5902"
         style="stop-color:#202326;stop-opacity:1"
         offset="1" />
    </linearGradient>
    <linearGradient
       x1="800.25922"
       y1="16590.85"
       x2="1026.775"
       y2="16552.141"
       id="linearGradient5033"
       xlink:href="#linearGradient5027"
       gradientUnits="userSpaceOnUse"
       gradientTransform="translate(-167.87196,-15936.681)" />
    <linearGradient
       id="linearGradient5027">
      <stop
         id="stop5029"
         style="stop-color:#1b1f21;stop-opacity:1"
         offset="0" />
      <stop
         id="stop5037"
         style="stop-color:#262d30;stop-opacity:1"
         offset="0.30000001" />
      <stop
         id="stop5035"
         style="stop-color:#262d30;stop-opacity:1"
         offset="0.69999999" />
      <stop
         id="stop5031"
         style="stop-color:#1b1f21;stop-opacity:1"
         offset="1" />
    </linearGradient>
    <linearGradient
       x1="800.25922"
       y1="16590.85"
       x2="1026.775"
       y2="16552.141"
       id="linearGradient5041"
       xlink:href="#linearGradient5027"
       gradientUnits="userSpaceOnUse"
       gradientTransform="matrix(-1,0,0,1,1024.9129,-17.0625)" />
    <linearGradient
       id="linearGradient5911">
      <stop
         id="stop5913"
         style="stop-color:#1b1f21;stop-opacity:1"
         offset="0" />
      <stop
         id="stop5915"
         style="stop-color:#262d30;stop-opacity:1"
         offset="0.30000001" />
      <stop
         id="stop5917"
         style="stop-color:#262d30;stop-opacity:1"
         offset="0.69999999" />
      <stop
         id="stop5919"
         style="stop-color:#1b1f21;stop-opacity:1"
         offset="1" />
    </linearGradient>
    <linearGradient
       x1="800.25922"
       y1="16590.85"
       x2="1026.775"
       y2="16552.141"
       id="linearGradient5937"
       xlink:href="#linearGradient5027"
       gradientUnits="userSpaceOnUse"
       gradientTransform="matrix(-1,0,0,1,847.87193,-15936.681)" />
  </defs>
  <metadata
     id="metadata5944">
    <rdf:RDF>
      <cc:Work
         rdf:about="">
        <dc:format>image/svg+xml</dc:format>
        <dc:type
           rdf:resource="http://purl.org/dc/dcmitype/StillImage" />
        <dc:title></dc:title>
      </cc:Work>
    </rdf:RDF>
  </metadata>
  <g
     transform="translate(178.90908,-115.75)"
     id="layer1">
    <path
       d="m -144.82488,265.31297 c 0,36.967 15.49095,77.512 35.7417,115.296 20.250747,37.783 -13.09469,116.813 -33.43579,170.636 -20.34106,53.824 -45.30476,216.773 -32.28276,333.205 13.022,116.43303 144.717012,93.443 160.261112,19.6 15.5441004,-73.843 34.12259,-340.591 40.35353,-378.17 6.23094,-37.579 24.20247,-48.59 61.10677,-64.565 36.904298,-15.976 48.395398,-4.611 71.483398,-4.611 l 0,-190.238 z"
       id="path5039"
       style="fill:url(#linearGradient5937);fill-opacity:1;stroke:#000000;stroke-width:1px;stroke-linecap:butt;stroke-linejoin:miter;stroke-opacity:1" />
    <path
       d="m 824.82493,265.31247 c 0,36.967 -15.49099,77.512 -35.74174,115.296 -20.25075,37.783 13.09469,116.814 33.43574,170.637 20.3411,53.824 45.3048,216.773 32.2828,333.205 -13.022,116.43203 -144.717,93.443 -160.2611,19.6 -15.5441,-73.843 -34.12259,-340.591 -40.35353,-378.17 -6.23094,-37.579 -24.20247,-48.59 -61.10677,-64.566 -36.9043,-15.976 -48.39543,-4.611 -71.4834,-4.611 l 0,-190.238 z"
       id="path5025"
       style="fill:url(#linearGradient5033);fill-opacity:1;stroke:#000000;stroke-width:1px;stroke-linecap:butt;stroke-linejoin:miter;stroke-opacity:1" />
    <rect
       width="379.72974"
       height="421.62161"
       rx="10"
       ry="10"
       x="149.29305"
       y="212.42104"
       id="rect5021"
       style="fill:#505454;fill-opacity:1;stroke:#000000;stroke-width:1;stroke-linecap:butt;stroke-linejoin:miter;stroke-miterlimit:4;stroke-opacity:1;stroke-dasharray:none;stroke-dashoffset:20" />
    <rect
       width="347.2973"
       height="321.62161"
       rx="10"
       ry="10"
       x="165.50929"
       y="229.98843"
       id="rect5023"
       style="fill:#2d3538;fill-opacity:1;stroke:#000000;stroke-width:1;stroke-linecap:butt;stroke-linejoin:miter;stroke-miterlimit:4;stroke-opacity:1;stroke-dasharray:none;stroke-dashoffset:20" />
    <path
       d="m 683.72179,116.25797 c -32.35098,0 -62.15736,10.842 -86.03125,29.062 l -180.84375,114.938 0.0625,0.155 c -28.52706,18.569 -47.375,50.706 -47.375,87.282 0,57.495 46.59781,104.093 104.09375,104.093 8.43257,0 16.61721,-0.982 24.46875,-2.875 l 0.15625,0.313 218.65625,-52.938 c 62.39869,-14.94 108.78124,-71.083 108.78124,-138.062 0,-78.403 -63.56518,-141.968 -141.96874,-141.968 z"
       id="path4954"
       style="fill:#283238;fill-opacity:1;stroke:#000000;stroke-width:1;stroke-linecap:butt;stroke-linejoin:miter;stroke-miterlimit:4;stroke-opacity:1;stroke-dasharray:none;stroke-dashoffset:20" />
    <path
       d="m 448.31868,658.8125 a 43.467083,43.467083 0 1 1 -86.93417,0 43.467083,43.467083 0 1 1 86.93417,0 z"
       transform="matrix(1.176285,0,0,1.176285,218.4489,-526.23253)"
       id="path5076"
       style="fill:none;stroke:#000000;stroke-width:1;stroke-linecap:round;stroke-linejoin:round;stroke-miterlimit:4;stroke-opacity:1;stroke-dasharray:none" />
    <path
       d="m 678.0915,182.01897 c -2.6067,0 -4.7051,2.099 -4.7051,4.705 l 0,40.729 -40.7289,0 c -2.6067,0 -4.7052,2.099 -4.7052,4.705 l 0,33.12 c 0,2.606 2.0985,4.705 4.7052,4.705 l 40.7289,0 0,40.729 c 0,2.606 2.0984,4.705 4.7051,4.705 l 33.1197,0 c 2.6067,0 4.7051,-2.099 4.7051,-4.705 l 0,-40.729 40.7657,0 c 2.6067,0 4.7052,-2.099 4.7052,-4.705 l 0,-33.12 c 0,-2.606 -2.0985,-4.705 -4.7052,-4.705 l -40.7657,0 0,-40.729 c 0,-2.606 -2.0984,-4.705 -4.7051,-4.705 l -33.1197,0 z"
       id="rect4293-5"
       style="fill:#2f3438;fill-opacity:1;stroke:#000000;stroke-width:1.17628503;stroke-linecap:butt;stroke-linejoin:miter;stroke-miterlimit:4;stroke-opacity:1;stroke-dasharray:none;stroke-dashoffset:0" />
    <path
       d="m 417.59955,658.8125 a 12.747952,12.747952 0 1 1 -25.49591,0 12.747952,12.747952 0 1 1 25.49591,0 z"
       transform="matrix(1.176285,0,0,1.176285,218.44889,-526.23253)"
       id="path4318-8"
       style="fill:url(#radialGradient5086);fill-opacity:1;stroke:#000000;stroke-width:1;stroke-linecap:round;stroke-linejoin:round;stroke-miterlimit:4;stroke-opacity:1;stroke-dasharray:none" />
    <path
       d="m 2284.8739,16273.119 a 32.773109,32.773109 0 1 1 -65.5462,0 32.773109,32.773109 0 1 1 65.5462,0 z"
       transform="translate(-1774.6351,-15924.056)"
       id="path5089"
       style="fill:url(#radialGradient5122);fill-opacity:1;stroke:#000000;stroke-width:1;stroke-linecap:butt;stroke-linejoin:miter;stroke-miterlimit:4;stroke-opacity:1;stroke-dasharray:none;stroke-dashoffset:20" />
    <path
       d="m 2284.8739,16273.119 a 32.773109,32.773109 0 1 1 -65.5462,0 32.773109,32.773109 0 1 1 65.5462,0 z"
       transform="translate(-1694.8031,-15957.669)"
       id="path5091"
       style="fill:url(#radialGradient5114);fill-opacity:1;stroke:#000000;stroke-width:1;stroke-linecap:butt;stroke-linejoin:miter;stroke-miterlimit:4;stroke-opacity:1;stroke-dasharray:none;stroke-dashoffset:20" />
    <path
       d="m -4.4633076,116.25797 c 32.3509796,0 62.1573596,10.842 86.0312496,29.062 l 180.843748,114.938 -0.0625,0.155 c 28.52706,18.569 47.375,50.706 47.375,87.282 0,57.495 -46.59781,104.093 -104.09375,104.093 -8.43257,0 -16.61721,-0.982 -24.46875,-2.875 l -0.15625,0.313 -218.656248,-52.938 c -62.398692,-14.94 -108.781292,-71.083 -108.781292,-138.062 0,-78.403 63.56523,-141.968 141.9687924,-141.968 z"
       id="path5093"
       style="fill:#283238;fill-opacity:1;stroke:#000000;stroke-width:1;stroke-linecap:butt;stroke-linejoin:miter;stroke-miterlimit:4;stroke-opacity:1;stroke-dasharray:none;stroke-dashoffset:20" />
    <path
       d="m 448.31868,658.8125 a 43.467083,43.467083 0 1 1 -86.93417,0 43.467083,43.467083 0 1 1 86.93417,0 z"
       transform="matrix(-1.176285,0,0,1.176285,460.80959,-526.23253)"
       id="path5095"
       style="fill:none;stroke:#000000;stroke-width:1;stroke-linecap:round;stroke-linejoin:round;stroke-miterlimit:4;stroke-opacity:1;stroke-dasharray:none" />
    <path
       d="m 1.1669824,182.01897 c 2.6067,0 4.7051,2.099 4.7051,4.705 l 0,40.729 40.7288996,0 c 2.6067,0 4.7052,2.099 4.7052,4.705 l 0,33.12 c 0,2.606 -2.0985,4.705 -4.7052,4.705 l -40.7288996,0 0,40.729 c 0,2.606 -2.0984,4.705 -4.7051,4.705 l -33.1197004,0 c -2.6067,0 -4.7051,-2.099 -4.7051,-4.705 l 0,-40.729 -40.7657,0 c -2.606702,0 -4.705202,-2.099 -4.705202,-4.705 l 0,-33.12 c 0,-2.606 2.0985,-4.705 4.705202,-4.705 l 40.7657,0 0,-40.729 c 0,-2.606 2.0984,-4.705 4.7051,-4.705 l 33.1197004,0 z"
       id="path5097"
       style="fill:#2f3438;fill-opacity:1;stroke:#000000;stroke-width:1.17628503;stroke-linecap:butt;stroke-linejoin:miter;stroke-miterlimit:4;stroke-opacity:1;stroke-dasharray:none;stroke-dashoffset:0" />
    <path
       d="m 417.59955,658.8125 a 12.747952,12.747952 0 1 1 -25.49591,0 12.747952,12.747952 0 1 1 25.49591,0 z"
       transform="matrix(-1.176285,0,0,1.176285,460.80959,-526.23253)"
       id="path5099"
       style="fill:url(#radialGradient5105);fill-opacity:1;stroke:#000000;stroke-width:1;stroke-linecap:round;stroke-linejoin:round;stroke-miterlimit:4;stroke-opacity:1;stroke-dasharray:none" />
    <path
       d="m 2284.8739,16273.119 a 32.773109,32.773109 0 1 1 -65.5462,0 32.773109,32.773109 0 1 1 65.5462,0 z"
       transform="matrix(-1,0,0,1,2453.8934,-15924.056)"
       id="path5101"
       style="fill:url(#radialGradient5130);fill-opacity:1;stroke:#000000;stroke-width:1;stroke-linecap:butt;stroke-linejoin:miter;stroke-miterlimit:4;stroke-opacity:1;stroke-dasharray:none;stroke-dashoffset:20" />
    <path
       d="m 2284.8739,16273.119 a 32.773109,32.773109 0 1 1 -65.5462,0 32.773109,32.773109 0 1 1 65.5462,0 z"
       transform="matrix(-1,0,0,1,2374.0614,-15957.669)"
       id="path5103"
       style="fill:url(#radialGradient5138);fill-opacity:1;stroke:#000000;stroke-width:1;stroke-linecap:butt;stroke-linejoin:miter;stroke-miterlimit:4;stroke-opacity:1;stroke-dasharray:none;stroke-dashoffset:20" />
  </g>
</svg>
