<?xml version="1.0" encoding="UTF-8" standalone="no"?>
<!-- Created with Inkscape (http://www.inkscape.org/) -->

<svg
   xmlns:dc="http://purl.org/dc/elements/1.1/"
   xmlns:cc="http://creativecommons.org/ns#"
   xmlns:rdf="http://www.w3.org/1999/02/22-rdf-syntax-ns#"
   xmlns:svg="http://www.w3.org/2000/svg"
   xmlns="http://www.w3.org/2000/svg"
   xmlns:xlink="http://www.w3.org/1999/xlink"
   version="1.1"
   width="1033.5317"
   height="558.51923"
   id="svg6272">
  <defs
     id="defs6274">
    <radialGradient
       cx="1072.3529"
       cy="22990.85"
       r="180.3853"
       fx="1072.3529"
       fy="22990.85"
       id="radialGradient5597"
       xlink:href="#linearGradient5575"
       gradientUnits="userSpaceOnUse"
       gradientTransform="matrix(1,0,0,0.85140408,0,3416.3465)" />
    <linearGradient
       id="linearGradient5575">
      <stop
         id="stop5577"
         style="stop-color:#0f0f0f;stop-opacity:1"
         offset="0" />
      <stop
         id="stop5579"
         style="stop-color:#2a2a2c;stop-opacity:1"
         offset="1" />
    </linearGradient>
    <radialGradient
       cx="900"
       cy="23077.32"
       r="52.264706"
       fx="900"
       fy="23077.32"
       id="radialGradient5541"
       xlink:href="#linearGradient5529"
       gradientUnits="userSpaceOnUse" />
    <linearGradient
       id="linearGradient5529">
      <stop
         id="stop5531"
         style="stop-color:#b7b3b1;stop-opacity:1"
         offset="0" />
      <stop
         id="stop5533"
         style="stop-color:#9c9895;stop-opacity:1"
         offset="1" />
    </linearGradient>
    <radialGradient
       cx="900"
       cy="23077.32"
       r="52.264706"
       fx="900"
       fy="23077.32"
       id="radialGradient5537"
       xlink:href="#linearGradient5529"
       gradientUnits="userSpaceOnUse" />
    <linearGradient
       id="linearGradient6207">
      <stop
         id="stop6209"
         style="stop-color:#b7b3b1;stop-opacity:1"
         offset="0" />
      <stop
         id="stop6211"
         style="stop-color:#9c9895;stop-opacity:1"
         offset="1" />
    </linearGradient>
    <radialGradient
       cx="900"
       cy="23077.32"
       r="52.264706"
       fx="900"
       fy="23077.32"
       id="radialGradient5527"
       xlink:href="#linearGradient5529"
       gradientUnits="userSpaceOnUse" />
    <linearGradient
       id="linearGradient6214">
      <stop
         id="stop6216"
         style="stop-color:#b7b3b1;stop-opacity:1"
         offset="0" />
      <stop
         id="stop6218"
         style="stop-color:#9c9895;stop-opacity:1"
         offset="1" />
    </linearGradient>
    <radialGradient
       cx="900"
       cy="23077.32"
       r="52.264706"
       fx="900"
       fy="23077.32"
       id="radialGradient5523"
       xlink:href="#linearGradient5509"
       gradientUnits="userSpaceOnUse" />
    <linearGradient
       id="linearGradient5509">
      <stop
         id="stop5511"
         style="stop-color:#8b8683;stop-opacity:1"
         offset="0" />
      <stop
         id="stop5513"
         style="stop-color:#9c9895;stop-opacity:1"
         offset="1" />
    </linearGradient>
    <radialGradient
       cx="900"
       cy="23077.32"
       r="52.264706"
       fx="900"
       fy="23077.32"
       id="radialGradient5519"
       xlink:href="#linearGradient5509"
       gradientUnits="userSpaceOnUse" />
    <linearGradient
       id="linearGradient6225">
      <stop
         id="stop6227"
         style="stop-color:#8b8683;stop-opacity:1"
         offset="0" />
      <stop
         id="stop6229"
         style="stop-color:#9c9895;stop-opacity:1"
         offset="1" />
    </linearGradient>
    <radialGradient
       cx="900"
       cy="23077.32"
       r="52.264706"
       fx="900"
       fy="23077.32"
       id="radialGradient5515"
       xlink:href="#linearGradient5509"
       gradientUnits="userSpaceOnUse" />
    <linearGradient
       id="linearGradient6232">
      <stop
         id="stop6234"
         style="stop-color:#8b8683;stop-opacity:1"
         offset="0" />
      <stop
         id="stop6236"
         style="stop-color:#9c9895;stop-opacity:1"
         offset="1" />
    </linearGradient>
    <radialGradient
       cx="1072.3529"
       cy="22990.85"
       r="180.3853"
       fx="1072.3529"
       fy="22990.85"
       id="radialGradient5581"
       xlink:href="#linearGradient5575"
       gradientUnits="userSpaceOnUse"
       gradientTransform="matrix(1,0,0,0.85140408,0,3416.3465)" />
    <linearGradient
       id="linearGradient6239">
      <stop
         id="stop6241"
         style="stop-color:#0f0f0f;stop-opacity:1"
         offset="0" />
      <stop
         id="stop6243"
         style="stop-color:#2a2a2c;stop-opacity:1"
         offset="1" />
    </linearGradient>
    <linearGradient
       x1="718.43506"
       y1="22688.797"
       x2="718.43506"
       y2="23241.744"
       id="linearGradient5589"
       xlink:href="#linearGradient5583"
       gradientUnits="userSpaceOnUse" />
    <linearGradient
       id="linearGradient5583">
      <stop
         id="stop5585"
         style="stop-color:#35343a;stop-opacity:1"
         offset="0" />
      <stop
         id="stop5591"
         style="stop-color:#4d4c54;stop-opacity:1"
         offset="0.5" />
      <stop
         id="stop5587"
         style="stop-color:#35343a;stop-opacity:1"
         offset="1" />
    </linearGradient>
    <linearGradient
       x1="718.43506"
       y1="22688.797"
       x2="718.43506"
       y2="23241.744"
       id="linearGradient6270"
       xlink:href="#linearGradient5583"
       gradientUnits="userSpaceOnUse"
       gradientTransform="translate(-466.63243,-22364.127)" />
  </defs>
  <metadata
     id="metadata6277">
    <rdf:RDF>
      <cc:Work
         rdf:about="">
        <dc:format>image/svg+xml</dc:format>
        <dc:type
           rdf:resource="http://purl.org/dc/dcmitype/StillImage" />
        <dc:title></dc:title>
      </cc:Work>
    </rdf:RDF>
  </metadata>
  <g
     transform="translate(262.46898,-324.53125)"
     id="layer1">
    <path
       d="m 632.71557,449.09934 c 62.9975,45.372 137.98923,112.382 137.83873,264.4 -0.1505,152.018 -116.49363,191.493 -226.80733,157.888 -110.31369,-33.605 -161.15553,-63.906 -289.46128,-63.906 -128.30581,0 -179.147609,30.301 -289.461259,63.906 -110.313701,33.605 -226.656801,-5.87 -226.807301,-157.888 -0.1505,-152.018 74.8412,-219.028 137.8387,-264.4 62.997401,-45.371 181.375551,-124.055 378.42985,-124.055 197.05428,0 315.43249,78.684 378.42989,124.055 z"
       id="path5424"
       style="fill:url(#linearGradient6270);fill-opacity:1;stroke:#000000;stroke-width:1px;stroke-linecap:butt;stroke-linejoin:miter;stroke-opacity:1" />
    <path
       d="m 510.76006,377.18034 c -73.7333,13.483 -120.92261,44.662 -181.59458,108.283 0,0 -34.97065,-17.275 -74.9973,-17.275 -40.02664,0 -74.99729,17.275 -74.99729,17.275 -60.67197,-63.621 -107.861279,-94.8 -181.5945788,-108.283"
       id="path5429"
       style="fill:none;stroke:#000000;stroke-width:1px;stroke-linecap:butt;stroke-linejoin:miter;stroke-opacity:1" />
    <path
       d="m 1283.1699,22990.85 a 210.81696,168.0957 0 1 1 -421.63395,0 210.81696,168.0957 0 1 1 421.63395,0 z"
       transform="matrix(0.72672972,0.68692351,-0.68692351,0.72672972,15546.183,-16832.745)"
       id="path5432"
       style="fill:#4f4b4d;fill-opacity:1;stroke:#000000;stroke-width:1;stroke-linecap:butt;stroke-linejoin:miter;stroke-miterlimit:4;stroke-opacity:1;stroke-dasharray:none;stroke-dashoffset:20" />
    <path
       d="m 1252.2382,22990.85 a 179.8853,153.08078 0 1 1 -359.77059,0 179.8853,153.08078 0 1 1 359.77059,0 z"
       transform="matrix(0.72672972,0.68692351,-0.68692351,0.72672972,15546.183,-16832.745)"
       id="path5435"
       style="fill:url(#radialGradient5581);fill-opacity:1;stroke:#000000;stroke-width:1;stroke-linecap:butt;stroke-linejoin:miter;stroke-miterlimit:4;stroke-opacity:1;stroke-dasharray:none;stroke-dashoffset:20" />
    <path
       d="m 951.76471,23077.32 a 51.764706,51.764706 0 1 1 -103.52942,0 51.764706,51.764706 0 1 1 103.52942,0 z"
       transform="translate(-449.22818,-22384.719)"
       id="path5507"
       style="fill:url(#radialGradient5515);fill-opacity:1;stroke:#000000;stroke-width:1;stroke-linecap:butt;stroke-linejoin:miter;stroke-miterlimit:4;stroke-opacity:1;stroke-dasharray:none;stroke-dashoffset:20" />
    <path
       d="m 951.76471,23077.32 a 51.764706,51.764706 0 1 1 -103.52942,0 51.764706,51.764706 0 1 1 103.52942,0 z"
       transform="translate(-325.69876,-22418.837)"
       id="path5517"
       style="fill:url(#radialGradient5519);fill-opacity:1;stroke:#000000;stroke-width:1;stroke-linecap:butt;stroke-linejoin:miter;stroke-miterlimit:4;stroke-opacity:1;stroke-dasharray:none;stroke-dashoffset:20" />
    <path
       d="m 951.76471,23077.32 a 51.764706,51.764706 0 1 1 -103.52942,0 51.764706,51.764706 0 1 1 103.52942,0 z"
       transform="translate(-209.22817,-22451.778)"
       id="path5521"
       style="fill:url(#radialGradient5523);fill-opacity:1;stroke:#000000;stroke-width:1;stroke-linecap:butt;stroke-linejoin:miter;stroke-miterlimit:4;stroke-opacity:1;stroke-dasharray:none;stroke-dashoffset:20" />
    <path
       d="m 938.82353,23077.32 a 38.823528,38.823528 0 1 1 -77.64706,0 38.823528,38.823528 0 1 1 77.64706,0 z"
       transform="translate(-497.46347,-22497.66)"
       id="path5525"
       style="fill:url(#radialGradient5527);fill-opacity:1;stroke:#000000;stroke-width:1;stroke-linecap:butt;stroke-linejoin:miter;stroke-miterlimit:4;stroke-opacity:1;stroke-dasharray:none;stroke-dashoffset:20" />
    <path
       d="m 938.82353,23077.32 a 38.823528,38.823528 0 1 1 -77.64706,0 38.823528,38.823528 0 1 1 77.64706,0 z"
       transform="translate(-388.0517,-22531.778)"
       id="path5535"
       style="fill:url(#radialGradient5537);fill-opacity:1;stroke:#000000;stroke-width:1;stroke-linecap:butt;stroke-linejoin:miter;stroke-miterlimit:4;stroke-opacity:1;stroke-dasharray:none;stroke-dashoffset:20" />
    <path
       d="m 938.82353,23077.32 a 38.823528,38.823528 0 1 1 -77.64706,0 38.823528,38.823528 0 1 1 77.64706,0 z"
       transform="translate(-282.16935,-22563.542)"
       id="path5539"
       style="fill:url(#radialGradient5541);fill-opacity:1;stroke:#000000;stroke-width:1;stroke-linecap:butt;stroke-linejoin:miter;stroke-miterlimit:4;stroke-opacity:1;stroke-dasharray:none;stroke-dashoffset:20" />
    <rect
       width="102.95029"
       height="36.689335"
       rx="18"
       ry="18"
       x="-320.08603"
       y="711.50409"
       transform="matrix(0.72536023,-0.68836948,0.68836948,0.72536023,0,0)"
       id="rect5543"
       style="fill:#6174af;fill-opacity:1;stroke:#000000;stroke-width:1;stroke-linecap:butt;stroke-linejoin:miter;stroke-miterlimit:4;stroke-opacity:1;stroke-dasharray:none;stroke-dashoffset:20" />
    <rect
       width="102.95029"
       height="36.689335"
       rx="18"
       ry="18"
       x="-409.42294"
       y="626.72284"
       transform="matrix(0.72536023,-0.68836948,0.68836948,0.72536023,0,0)"
       id="rect5545"
       style="fill:#242328;fill-opacity:1;stroke:#000000;stroke-width:1;stroke-linecap:butt;stroke-linejoin:miter;stroke-miterlimit:4;stroke-opacity:1;stroke-dasharray:none;stroke-dashoffset:20" />
    <rect
       width="106.00261"
       height="49.478409"
       rx="26.709654"
       ry="26.709654"
       x="-301.7796"
       y="-600.17023"
       transform="scale(-1,-1)"
       id="rect4766-5"
       style="fill:#28262b;fill-opacity:1;stroke:#000000;stroke-width:1;stroke-linecap:butt;stroke-linejoin:miter;stroke-miterlimit:4;stroke-opacity:1;stroke-dasharray:none;stroke-dashoffset:0" />
    <rect
       width="98.013405"
       height="42.024624"
       rx="24.696596"
       ry="22.685917"
       x="-297.78705"
       y="-596.44562"
       transform="scale(-1,-1)"
       id="rect4768-1"
       style="fill:#57575e;fill-opacity:1;stroke:#000000;stroke-width:1;stroke-linecap:butt;stroke-linejoin:miter;stroke-miterlimit:4;stroke-opacity:1;stroke-dasharray:none;stroke-dashoffset:0" />
    <path
       d="m 562.23948,12152.716 a 10.612645,10.612645 0 1 1 -21.22529,0 10.612645,10.612645 0 1 1 21.22529,0 z"
       transform="matrix(0,1.7806436,-1.7806436,0,21888.435,-406.69516)"
       id="path4770-7"
       style="fill:#252324;fill-opacity:1;stroke:#000000;stroke-width:0.56159472;stroke-linecap:butt;stroke-linejoin:miter;stroke-miterlimit:4;stroke-opacity:1;stroke-dasharray:none;stroke-dashoffset:20" />
    <path
       d="m 1283.1699,22990.85 a 210.81696,168.0957 0 1 1 -421.63395,0 210.81696,168.0957 0 1 1 421.63395,0 z"
       transform="matrix(-0.72672972,0.68692351,0.68692351,0.72672972,-15043.606,-16832.745)"
       id="path5593"
       style="fill:#4f4b4d;fill-opacity:1;stroke:#000000;stroke-width:1;stroke-linecap:butt;stroke-linejoin:miter;stroke-miterlimit:4;stroke-opacity:1;stroke-dasharray:none;stroke-dashoffset:20" />
    <path
       d="m 1252.2382,22990.85 a 179.8853,153.08078 0 1 1 -359.77059,0 179.8853,153.08078 0 1 1 359.77059,0 z"
       transform="matrix(-0.72672972,0.68692351,0.68692351,0.72672972,-15043.606,-16832.745)"
       id="path5595"
       style="fill:url(#radialGradient5597);fill-opacity:1;stroke:#000000;stroke-width:1;stroke-linecap:butt;stroke-linejoin:miter;stroke-miterlimit:4;stroke-opacity:1;stroke-dasharray:none;stroke-dashoffset:20" />
    <path
       d="m 463.48147,658.8125 a 58.629879,58.629879 0 1 1 -117.25976,0 58.629879,58.629879 0 1 1 117.25976,0 z"
       transform="matrix(1.9699486,0,0,1.9699486,-838.82381,-694.34316)"
       id="path4012-1"
       style="fill:#333333;fill-opacity:1;stroke:#000000;stroke-width:0.50762749;stroke-linecap:round;stroke-linejoin:round;stroke-miterlimit:4;stroke-opacity:1;stroke-dasharray:none" />
    <path
       d="m -67.079939,496.68834 0,79.363 -79.362571,0 0,52.909 79.362571,0 0,79.363 52.90908,0 0,-79.363 79.36227,0 0,-52.909 -79.36227,0 0,-79.363 -52.90908,0 z"
       id="path4018-1"
       style="fill:#1a1a1a;fill-opacity:1;stroke:#000000;stroke-width:1;stroke-linecap:butt;stroke-linejoin:miter;stroke-miterlimit:4;stroke-opacity:1;stroke-dasharray:none;stroke-dashoffset:0" />
    <path
       d="m 414.88667,658.8125 a 10.035079,10.035079 0 1 1 -20.07016,0 10.035079,10.035079 0 1 1 20.07016,0 z"
       transform="matrix(1.9699486,0,0,1.9699486,-838.82381,-694.34316)"
       id="path4043-5"
       style="fill:#333333;fill-opacity:1;stroke:#000000;stroke-width:0.50762749;stroke-linecap:round;stroke-linejoin:round;stroke-miterlimit:4;stroke-opacity:1;stroke-dasharray:none" />
  </g>
</svg>
