<?xml version="1.0" encoding="UTF-8" standalone="no"?>
<!-- Created with Inkscape (http://www.inkscape.org/) -->

<svg
   xmlns:dc="http://purl.org/dc/elements/1.1/"
   xmlns:cc="http://creativecommons.org/ns#"
   xmlns:rdf="http://www.w3.org/1999/02/22-rdf-syntax-ns#"
   xmlns:svg="http://www.w3.org/2000/svg"
   xmlns="http://www.w3.org/2000/svg"
   xmlns:xlink="http://www.w3.org/1999/xlink"
   version="1.1"
   width="623.09375"
   height="1027.5"
   id="svg4284">
  <defs
     id="defs4286">
    <linearGradient
       x1="3952.467"
       y1="1508.726"
       x2="4059.5928"
       y2="1508.726"
       id="linearGradient4185"
       xlink:href="#linearGradient4156"
       gradientUnits="userSpaceOnUse"
       gradientTransform="translate(-2853.5793,-1459.3992)" />
    <linearGradient
       id="linearGradient4156">
      <stop
         id="stop4158"
         style="stop-color:#7a767a;stop-opacity:1"
         offset="0" />
      <stop
         id="stop4164"
         style="stop-color:#b3b1b3;stop-opacity:1"
         offset="0.5" />
      <stop
         id="stop4160"
         style="stop-color:#7a767a;stop-opacity:1"
         offset="1" />
    </linearGradient>
    <linearGradient
       x1="3952.467"
       y1="1508.726"
       x2="4059.5928"
       y2="1508.726"
       id="linearGradient4181"
       xlink:href="#linearGradient4156"
       gradientUnits="userSpaceOnUse"
       gradientTransform="translate(-2853.3265,-1494.3546)" />
    <linearGradient
       id="linearGradient4207">
      <stop
         id="stop4209"
         style="stop-color:#7a767a;stop-opacity:1"
         offset="0" />
      <stop
         id="stop4211"
         style="stop-color:#b3b1b3;stop-opacity:1"
         offset="0.5" />
      <stop
         id="stop4213"
         style="stop-color:#7a767a;stop-opacity:1"
         offset="1" />
    </linearGradient>
    <linearGradient
       x1="3952.467"
       y1="1508.726"
       x2="4059.5928"
       y2="1508.726"
       id="linearGradient4177"
       xlink:href="#linearGradient4156"
       gradientUnits="userSpaceOnUse"
       gradientTransform="translate(-2852.5726,-1529.6514)" />
    <linearGradient
       id="linearGradient4216">
      <stop
         id="stop4218"
         style="stop-color:#7a767a;stop-opacity:1"
         offset="0" />
      <stop
         id="stop4220"
         style="stop-color:#b3b1b3;stop-opacity:1"
         offset="0.5" />
      <stop
         id="stop4222"
         style="stop-color:#7a767a;stop-opacity:1"
         offset="1" />
    </linearGradient>
    <linearGradient
       x1="3952.467"
       y1="1508.726"
       x2="4059.5928"
       y2="1508.726"
       id="linearGradient4173"
       xlink:href="#linearGradient4156"
       gradientUnits="userSpaceOnUse"
       gradientTransform="translate(-2853.3993,-1564.8987)" />
    <linearGradient
       id="linearGradient4225">
      <stop
         id="stop4227"
         style="stop-color:#7a767a;stop-opacity:1"
         offset="0" />
      <stop
         id="stop4229"
         style="stop-color:#b3b1b3;stop-opacity:1"
         offset="0.5" />
      <stop
         id="stop4231"
         style="stop-color:#7a767a;stop-opacity:1"
         offset="1" />
    </linearGradient>
    <linearGradient
       x1="3952.467"
       y1="1508.726"
       x2="4059.5928"
       y2="1508.726"
       id="linearGradient4169"
       xlink:href="#linearGradient4156"
       gradientUnits="userSpaceOnUse"
       gradientTransform="translate(-2852.75,-1600.5645)" />
    <linearGradient
       id="linearGradient4234">
      <stop
         id="stop4236"
         style="stop-color:#7a767a;stop-opacity:1"
         offset="0" />
      <stop
         id="stop4238"
         style="stop-color:#b3b1b3;stop-opacity:1"
         offset="0.5" />
      <stop
         id="stop4240"
         style="stop-color:#7a767a;stop-opacity:1"
         offset="1" />
    </linearGradient>
    <linearGradient
       x1="3952.467"
       y1="1508.726"
       x2="4059.5928"
       y2="1508.726"
       id="linearGradient4162"
       xlink:href="#linearGradient4156"
       gradientUnits="userSpaceOnUse"
       gradientTransform="translate(-2852.1282,-1635.6245)" />
    <linearGradient
       id="linearGradient4243">
      <stop
         id="stop4245"
         style="stop-color:#7a767a;stop-opacity:1"
         offset="0" />
      <stop
         id="stop4247"
         style="stop-color:#b3b1b3;stop-opacity:1"
         offset="0.5" />
      <stop
         id="stop4249"
         style="stop-color:#7a767a;stop-opacity:1"
         offset="1" />
    </linearGradient>
    <radialGradient
       cx="404.85159"
       cy="658.8125"
       r="38.999832"
       fx="404.85159"
       fy="658.8125"
       id="radialGradient4129"
       xlink:href="#linearGradient4119"
       gradientUnits="userSpaceOnUse" />
    <linearGradient
       id="linearGradient4119">
      <stop
         id="stop4121"
         style="stop-color:#b71165;stop-opacity:1"
         offset="0" />
      <stop
         id="stop4123"
         style="stop-color:#800c47;stop-opacity:1"
         offset="1" />
    </linearGradient>
    <radialGradient
       cx="404.85159"
       cy="658.8125"
       r="38.999832"
       fx="404.85159"
       fy="658.8125"
       id="radialGradient4125"
       xlink:href="#linearGradient4119"
       gradientUnits="userSpaceOnUse" />
    <linearGradient
       id="linearGradient4256">
      <stop
         id="stop4258"
         style="stop-color:#b71165;stop-opacity:1"
         offset="0" />
      <stop
         id="stop4260"
         style="stop-color:#800c47;stop-opacity:1"
         offset="1" />
    </linearGradient>
  </defs>
  <metadata
     id="metadata4289">
    <rdf:RDF>
      <cc:Work
         rdf:about="">
        <dc:format>image/svg+xml</dc:format>
        <dc:type
           rdf:resource="http://purl.org/dc/dcmitype/StillImage" />
        <dc:title></dc:title>
      </cc:Work>
    </rdf:RDF>
  </metadata>
  <g
     transform="translate(-105.46875,-64.375)"
     id="layer1">
    <path
       d="m 130.96698,64.886468 572.11114,0 c 13.85,0 25,11.15 25,25 l 0,861.209902 c 0,83.38003 -64.21242,140.27353 -134.78432,140.27353 l -462.32682,0 c -13.85,0 -25,-11.15 -25,-25 l 0,-976.483432 c 0,-13.85 11.15,-25 25,-25 z"
       id="rect3306"
       style="fill:#c1bfba;fill-opacity:1;stroke:#000000;stroke-width:1;stroke-linecap:butt;stroke-linejoin:round;stroke-miterlimit:4;stroke-opacity:1;stroke-dashoffset:0" />
    <path
       d="m 174.96699,150.88647 478.11113,0 c 13.85,0 25,11.15 25,25 l 0,293.7366 c 0,43.2909 -38.21913,79.7468 -75.11338,79.7468 l -427.99775,0 c -13.85,0 -25,-11.15 -25,-25 l 0,-348.4834 c 0,-13.85 11.15,-25 25,-25 z"
       id="path4103"
       style="fill:#565763;fill-opacity:1;stroke:#000000;stroke-width:1;stroke-linecap:butt;stroke-linejoin:round;stroke-miterlimit:4;stroke-opacity:1;stroke-dashoffset:0" />
    <rect
       width="331.33185"
       height="303.66016"
       rx="4.0205622"
       ry="4.0205622"
       x="250.27164"
       y="197.44067"
       id="rect4105"
       style="fill:#4b5d16;fill-opacity:1;stroke:#000000;stroke-width:1.00514054;stroke-linecap:butt;stroke-linejoin:round;stroke-miterlimit:4;stroke-opacity:1;stroke-dasharray:none;stroke-dashoffset:0" />
    <path
       d="m 443.35143,658.8125 a 38.499832,38.499832 0 1 1 -76.99967,0 38.499832,38.499832 0 1 1 76.99967,0 z"
       transform="translate(239.12958,73.590768)"
       id="path4107"
       style="fill:url(#radialGradient4125);fill-opacity:1;stroke:#000000;stroke-width:1;stroke-linecap:round;stroke-linejoin:round;stroke-miterlimit:4;stroke-opacity:1;stroke-dasharray:none" />
    <path
       d="m 443.35143,658.8125 a 38.499832,38.499832 0 1 1 -76.99967,0 38.499832,38.499832 0 1 1 76.99967,0 z"
       transform="translate(136.69056,121.15177)"
       id="path4127"
       style="fill:url(#radialGradient4129);fill-opacity:1;stroke:#000000;stroke-width:1;stroke-linecap:round;stroke-linejoin:round;stroke-miterlimit:4;stroke-opacity:1;stroke-dasharray:none" />
    <path
       d="m 107.54108,119.97967 619.27765,0"
       id="path4131"
       style="fill:none;stroke:#666666;stroke-width:4;stroke-linecap:butt;stroke-linejoin:miter;stroke-miterlimit:4;stroke-opacity:1;stroke-dasharray:none" />
    <path
       d="m 675.32133,119.13917 0,-52.856102"
       id="path4133"
       style="fill:none;stroke:#666666;stroke-width:4;stroke-linecap:butt;stroke-linejoin:miter;stroke-miterlimit:4;stroke-opacity:1;stroke-dasharray:none" />
    <path
       d="m 154.56661,119.13917 0,-52.856102"
       id="path4140"
       style="fill:none;stroke:#666666;stroke-width:4;stroke-linecap:butt;stroke-linejoin:miter;stroke-miterlimit:4;stroke-opacity:1;stroke-dasharray:none" />
    <path
       d="m 211.92065,690.21117 c -2.9372,0 -5.30181,2.3646 -5.30181,5.3018 l 0,45.8939 -45.89386,0 c -2.9372,0 -5.30182,2.3646 -5.30182,5.3018 l 0,37.3199 c 0,2.9371 2.36462,5.3018 5.30182,5.3018 l 45.89386,0 0,45.8939 c 0,2.9371 2.36461,5.3018 5.30181,5.3018 l 37.31983,0 c 2.93721,0 5.30182,-2.3647 5.30182,-5.3018 l 0,-45.8939 45.93528,0 c 2.93721,0 5.30182,-2.3647 5.30182,-5.3018 l 0,-37.3199 c 0,-2.9372 -2.36461,-5.3018 -5.30182,-5.3018 l -45.93528,0 0,-45.8939 c 0,-2.9372 -2.36461,-5.3018 -5.30182,-5.3018 l -37.31983,0 z"
       id="path4142"
       style="fill:#0b0d18;fill-opacity:1;stroke:#000000;stroke-width:1;stroke-linecap:butt;stroke-linejoin:miter;stroke-miterlimit:4;stroke-opacity:1;stroke-dasharray:none;stroke-dashoffset:0" />
    <path
       d="m 134.15073,1730.3092 12.36509,21.4169 -24.73018,0 z"
       transform="matrix(1.3254545,0,0,1.3254545,52.790603,-1593.4384)"
       id="path4144"
       style="fill:#0b0d18;fill-opacity:1;stroke:#4d4d4d;stroke-width:0.75445819;stroke-linecap:butt;stroke-linejoin:round;stroke-miterlimit:4;stroke-opacity:1;stroke-dasharray:none;stroke-dashoffset:0" />
    <path
       d="m 134.15073,1730.3092 12.36509,21.4169 -24.73018,0 z"
       transform="matrix(1.3254545,0,0,-1.3254545,52.790603,3126.0643)"
       id="path4146"
       style="fill:#0b0d18;fill-opacity:1;stroke:#4d4d4d;stroke-width:0.75445819;stroke-linecap:butt;stroke-linejoin:round;stroke-miterlimit:4;stroke-opacity:1;stroke-dasharray:none;stroke-dashoffset:0" />
    <path
       d="m 134.15073,1730.3092 12.36509,21.4169 -24.73018,0 z"
       transform="matrix(0,1.3254545,-1.3254545,0,2587.1696,587.55797)"
       id="path4148"
       style="fill:#0b0d18;fill-opacity:1;stroke:#4d4d4d;stroke-width:0.75445819;stroke-linecap:butt;stroke-linejoin:round;stroke-miterlimit:4;stroke-opacity:1;stroke-dasharray:none;stroke-dashoffset:0" />
    <path
       d="m 134.15073,1730.3092 12.36509,21.4169 -24.73018,0 z"
       transform="matrix(0,1.3254545,1.3254545,0,-2132.3332,587.55797)"
       id="path4150"
       style="fill:#0b0d18;fill-opacity:1;stroke:#4d4d4d;stroke-width:0.75445819;stroke-linecap:butt;stroke-linejoin:round;stroke-miterlimit:4;stroke-opacity:1;stroke-dasharray:none;stroke-dashoffset:0" />
    <path
       d="m 417.59955,658.8125 a 12.747952,12.747952 0 1 1 -25.49591,0 12.747952,12.747952 0 1 1 25.49591,0 z"
       transform="matrix(1.3254545,0,0,1.3254545,-306.01107,-107.85743)"
       id="path4152"
       style="fill:#0b0d18;fill-opacity:1;stroke:#4d4d4d;stroke-width:0.75445819;stroke-linecap:round;stroke-linejoin:round;stroke-miterlimit:4;stroke-opacity:1;stroke-dasharray:none" />
    <rect
       width="106.12576"
       height="10.457908"
       rx="6"
       ry="6"
       x="1100.839"
       y="-132.12752"
       transform="matrix(0.48735193,0.87320565,-0.87320565,0.48735193,0,0)"
       id="rect4154"
       style="fill:url(#linearGradient4162);fill-opacity:1;stroke:#000000;stroke-width:1;stroke-linecap:butt;stroke-linejoin:round;stroke-miterlimit:4;stroke-opacity:1;stroke-dasharray:none;stroke-dashoffset:0" />
    <rect
       width="106.12576"
       height="10.457908"
       rx="6"
       ry="6"
       x="1100.2172"
       y="-97.067459"
       transform="matrix(0.48735193,0.87320565,-0.87320565,0.48735193,0,0)"
       id="rect4167"
       style="fill:url(#linearGradient4169);fill-opacity:1;stroke:#000000;stroke-width:1;stroke-linecap:butt;stroke-linejoin:round;stroke-miterlimit:4;stroke-opacity:1;stroke-dasharray:none;stroke-dashoffset:0" />
    <rect
       width="106.12576"
       height="10.457908"
       rx="6"
       ry="6"
       x="1099.568"
       y="-61.401691"
       transform="matrix(0.48735193,0.87320565,-0.87320565,0.48735193,0,0)"
       id="rect4171"
       style="fill:url(#linearGradient4173);fill-opacity:1;stroke:#000000;stroke-width:1;stroke-linecap:butt;stroke-linejoin:round;stroke-miterlimit:4;stroke-opacity:1;stroke-dasharray:none;stroke-dashoffset:0" />
    <rect
       width="106.12576"
       height="10.457908"
       rx="6"
       ry="6"
       x="1100.3947"
       y="-26.154497"
       transform="matrix(0.48735193,0.87320565,-0.87320565,0.48735193,0,0)"
       id="rect4175"
       style="fill:url(#linearGradient4177);fill-opacity:1;stroke:#000000;stroke-width:1;stroke-linecap:butt;stroke-linejoin:round;stroke-miterlimit:4;stroke-opacity:1;stroke-dasharray:none;stroke-dashoffset:0" />
    <rect
       width="106.12576"
       height="10.457908"
       rx="6"
       ry="6"
       x="1099.6407"
       y="9.1423769"
       transform="matrix(0.48735193,0.87320565,-0.87320565,0.48735193,0,0)"
       id="rect4179"
       style="fill:url(#linearGradient4181);fill-opacity:1;stroke:#000000;stroke-width:1;stroke-linecap:butt;stroke-linejoin:round;stroke-miterlimit:4;stroke-opacity:1;stroke-dasharray:none;stroke-dashoffset:0" />
    <rect
       width="106.12576"
       height="10.457908"
       rx="6"
       ry="6"
       x="1099.3881"
       y="44.097698"
       transform="matrix(0.48735193,0.87320565,-0.87320565,0.48735193,0,0)"
       id="rect4183"
       style="fill:url(#linearGradient4185);fill-opacity:1;stroke:#000000;stroke-width:1;stroke-linecap:butt;stroke-linejoin:round;stroke-miterlimit:4;stroke-opacity:1;stroke-dasharray:none;stroke-dashoffset:0" />
    <rect
       width="76.48143"
       height="21.892662"
       rx="12"
       ry="12"
       x="-65.780792"
       y="1004.0978"
       transform="matrix(0.89172745,-0.45257282,0.45257282,0.89172745,0,0)"
       id="rect4187"
       style="fill:#747279;fill-opacity:1;stroke:#000000;stroke-width:1;stroke-linecap:butt;stroke-linejoin:miter;stroke-miterlimit:4;stroke-opacity:1;stroke-dasharray:none;stroke-dashoffset:0" />
    <rect
       width="76.48143"
       height="21.892662"
       rx="12"
       ry="12"
       x="-159.90762"
       y="956.32629"
       transform="matrix(0.89172745,-0.45257282,0.45257282,0.89172745,0,0)"
       id="rect4189"
       style="fill:#747279;fill-opacity:1;stroke:#000000;stroke-width:1;stroke-linecap:butt;stroke-linejoin:miter;stroke-miterlimit:4;stroke-opacity:1;stroke-dasharray:none;stroke-dashoffset:0" />
  </g>
</svg>
