<?xml version="1.0" encoding="UTF-8" standalone="no"?>
<!-- Created with Inkscape (http://www.inkscape.org/) -->

<svg
   xmlns:dc="http://purl.org/dc/elements/1.1/"
   xmlns:cc="http://creativecommons.org/ns#"
   xmlns:rdf="http://www.w3.org/1999/02/22-rdf-syntax-ns#"
   xmlns:svg="http://www.w3.org/2000/svg"
   xmlns="http://www.w3.org/2000/svg"
   xmlns:xlink="http://www.w3.org/1999/xlink"
   version="1.1"
   width="1115.8927"
   height="621.3125"
   id="svg6627">
  <defs
     id="defs6629">
    <radialGradient
       cx="1037.2648"
       cy="20148.865"
       r="4.5772986"
       fx="1037.2648"
       fy="20148.865"
       id="radialGradient5602"
       xlink:href="#linearGradient5596"
       gradientUnits="userSpaceOnUse" />
    <linearGradient
       id="linearGradient5596">
      <stop
         id="stop5598"
         style="stop-color:#8799eb;stop-opacity:1"
         offset="0" />
      <stop
         id="stop5600"
         style="stop-color:#687fe6;stop-opacity:1"
         offset="1" />
    </linearGradient>
    <radialGradient
       cx="1116.964"
       cy="20233.775"
       r="30.285706"
       fx="1116.964"
       fy="20233.775"
       id="radialGradient5589"
       xlink:href="#linearGradient5579"
       gradientUnits="userSpaceOnUse" />
    <linearGradient
       id="linearGradient5579">
      <stop
         id="stop5581"
         style="stop-color:#080a0c;stop-opacity:1"
         offset="0" />
      <stop
         id="stop5583"
         style="stop-color:#16191e;stop-opacity:1"
         offset="1" />
    </linearGradient>
    <radialGradient
       cx="1116.964"
       cy="20233.775"
       r="30.285706"
       fx="1116.964"
       fy="20233.775"
       id="radialGradient5585"
       xlink:href="#linearGradient5579"
       gradientUnits="userSpaceOnUse" />
    <linearGradient
       id="linearGradient6547">
      <stop
         id="stop6549"
         style="stop-color:#080a0c;stop-opacity:1"
         offset="0" />
      <stop
         id="stop6551"
         style="stop-color:#16191e;stop-opacity:1"
         offset="1" />
    </linearGradient>
    <linearGradient
       x1="249.16801"
       y1="20337.176"
       x2="271.46655"
       y2="20511.547"
       id="linearGradient5544"
       xlink:href="#linearGradient5538"
       gradientUnits="userSpaceOnUse" />
    <linearGradient
       id="linearGradient5538">
      <stop
         id="stop5540"
         style="stop-color:#313b43;stop-opacity:1"
         offset="0" />
      <stop
         id="stop5542"
         style="stop-color:#191f23;stop-opacity:1"
         offset="1" />
    </linearGradient>
    <linearGradient
       x1="271.46655"
       y1="20511.547"
       x2="249.16801"
       y2="20337.176"
       id="linearGradient5552"
       xlink:href="#linearGradient5546"
       gradientUnits="userSpaceOnUse" />
    <linearGradient
       id="linearGradient5546">
      <stop
         id="stop5548"
         style="stop-color:#000000;stop-opacity:1"
         offset="0" />
      <stop
         id="stop5550"
         style="stop-color:#000000;stop-opacity:0"
         offset="1" />
    </linearGradient>
    <linearGradient
       x1="1003.0421"
       y1="20271.99"
       x2="1096.9579"
       y2="20271.99"
       id="linearGradient5562"
       xlink:href="#linearGradient5530"
       gradientUnits="userSpaceOnUse" />
    <linearGradient
       id="linearGradient5530">
      <stop
         id="stop5532"
         style="stop-color:#191f23;stop-opacity:1"
         offset="0" />
      <stop
         id="stop5534"
         style="stop-color:#313b43;stop-opacity:1"
         offset="1" />
    </linearGradient>
    <linearGradient
       x1="647.51056"
       y1="20605.613"
       x2="647.51056"
       y2="19997.035"
       id="linearGradient5704"
       xlink:href="#linearGradient5698"
       gradientUnits="userSpaceOnUse" />
    <linearGradient
       id="linearGradient5698">
      <stop
         id="stop5700"
         style="stop-color:#313b43;stop-opacity:1"
         offset="0" />
      <stop
         id="stop5708"
         style="stop-color:#44515c;stop-opacity:1"
         offset="0.12" />
      <stop
         id="stop5706"
         style="stop-color:#313b43;stop-opacity:1"
         offset="0.23999999" />
      <stop
         id="stop5702"
         style="stop-color:#313b43;stop-opacity:1"
         offset="1" />
    </linearGradient>
    <linearGradient
       x1="647.51056"
       y1="20605.613"
       x2="647.51056"
       y2="19997.035"
       id="linearGradient6625"
       xlink:href="#linearGradient5698"
       gradientUnits="userSpaceOnUse"
       gradientTransform="translate(-356.92189,-19740.024)" />
  </defs>
  <metadata
     id="metadata6632">
    <rdf:RDF>
      <cc:Work
         rdf:about="">
        <dc:format>image/svg+xml</dc:format>
        <dc:type
           rdf:resource="http://purl.org/dc/dcmitype/StillImage" />
        <dc:title></dc:title>
      </cc:Work>
    </rdf:RDF>
  </metadata>
  <g
     transform="translate(269.38385,-253.125)"
     id="layer1">
    <path
       d="m 779.89364,274.59175 c 27.8331,7.981 40.0871,30.531 42.1268,37 2.0397,6.469 14.2213,84.87 19.4888,175.043 6.4841,110.999 5.5804,239.554 -0.1715,270.33 -5.7519,30.775 -36.577,83 -77.2694,94.44 -40.69243,11.439 -280.07698,22.537 -475.49692,22.537 -195.419992,0 -434.8045,-11.098 -475.4969,-22.537 -40.6924,-11.44 -71.5175,-63.665 -77.2694,-94.44 -5.7519,-30.776 -6.6556,-159.331 -0.1715,-270.33 5.2675,-90.173 17.4491,-168.574 19.4888,-175.043 2.0397,-6.469 14.2937,-29.019 42.1268,-37 27.8331,-7.981 393.33679,-20.952 491.32215,-20.952 97.98538,0 463.48917,12.971 491.32227,20.952 z"
       id="path5523"
       style="fill:url(#linearGradient6625);fill-opacity:1;stroke:#000000;stroke-width:1px;stroke-linecap:butt;stroke-linejoin:miter;stroke-opacity:1" />
    <path
       d="m 1096.4579,20271.99 a 46.457928,146.90364 0 1 1 -92.9158,0 46.457928,146.90364 0 1 1 92.9158,0 z"
       transform="matrix(0.75572869,0.65488484,-0.65488484,0.75572869,13209.551,-15442.85)"
       id="path5526"
       style="fill:url(#linearGradient5562);fill-opacity:1;stroke:#000000;stroke-width:1;stroke-linecap:butt;stroke-linejoin:miter;stroke-miterlimit:4;stroke-opacity:1;stroke-dasharray:none;stroke-dashoffset:20" />
    <path
       d="m 400,20425.74 a 135,84.836166 0 1 1 -270,0 135,84.836166 0 1 1 270,0 z"
       transform="matrix(0.39717543,-0.91774271,0.91774271,0.39717543,-19022.828,-7320.7467)"
       id="path5528"
       style="fill:url(#linearGradient5544);fill-opacity:1;stroke:url(#linearGradient5552);stroke-width:1;stroke-linecap:butt;stroke-linejoin:miter;stroke-miterlimit:4;stroke-opacity:1;stroke-dasharray:none;stroke-dashoffset:20" />
    <path
       d="m 697.04711,267.48175 c -120.92194,-6.867 -336.62371,-13.842 -408.47574,-13.842 -71.10928,0 -283.1096918,6.831 -404.69563,13.629 -17.28094,17.736 8.85758,84.72 13.98961,103.998 5.132038,19.277 83.568438,248.723 103.9783782,282.19 20.4099298,33.465 63.0947398,54.455 86.2557498,58.546 23.161012,4.089 152.509592,3.611 201.530082,3.611 49.02052,0 178.3691,0.478 201.53011,-3.611 23.16101,-4.091 65.84582,-25.081 86.25575,-58.546 20.40994,-33.467 98.84639,-262.913 103.97839,-282.19 5.1321,-19.278 34.7533,-85.595 15.6533,-103.785 z"
       id="path5573"
       style="fill:#2a2f33;fill-opacity:1;stroke:#000000;stroke-width:1px;stroke-linecap:butt;stroke-linejoin:miter;stroke-opacity:1" />
    <path
       d="m 474.33003,693.90475 c 21.22685,-3.749 60.34708,-22.986 79.05259,-53.657 18.70552,-30.672 85.88829,-223.289 95.29519,-258.624 9.407,-35.335 -13.73297,-54.895 -29.80156,-61.413 -16.06859,-6.519 -57.20331,-20.598 -91.14293,-22.452 -33.93962,-1.853 -195.11448,-4.414 -238.10372,-4.414 -42.98929,0 -204.164152,2.561 -238.103772,4.414 -33.93962,1.854 -75.07434,15.933 -91.14293,22.452 -16.06859,6.518 -39.20852,26.078 -29.80158,61.413 9.40692,35.335 76.5896902,227.952 95.29521,258.624 18.70551,30.671 57.82574,49.908 79.052592,53.657 21.22685,3.748 139.77362,3.31 184.70044,3.31 44.92685,0 163.47362,0.438 184.70047,-3.31 z"
       id="path5568"
       style="fill:#111518;fill-opacity:1;stroke:#000000;stroke-width:1px;stroke-linecap:butt;stroke-linejoin:miter;stroke-opacity:1" />
    <rect
       width="424.28085"
       height="332.33142"
       rx="2.3807924"
       ry="2.3807924"
       x="77.358887"
       y="316.42496"
       id="rect5575"
       style="fill:#252a31;fill-opacity:1;stroke:#000000;stroke-width:1;stroke-linecap:butt;stroke-linejoin:miter;stroke-miterlimit:4;stroke-opacity:1;stroke-dasharray:none;stroke-dashoffset:20" />
    <rect
       width="356.41986"
       height="279.17715"
       rx="2"
       ry="2"
       x="111.28937"
       y="343.00113"
       id="rect5564"
       style="fill:#020204;fill-opacity:1;stroke:#000000;stroke-width:1;stroke-linecap:butt;stroke-linejoin:miter;stroke-miterlimit:4;stroke-opacity:1;stroke-dasharray:none;stroke-dashoffset:20" />
    <path
       d="m 1146.7497,20233.775 a 29.785706,29.785706 0 1 1 -59.5714,0 29.785706,29.785706 0 1 1 59.5714,0 z"
       transform="translate(-347.75293,-19757.086)"
       id="path5577"
       style="fill:url(#radialGradient5585);fill-opacity:1;stroke:#000000;stroke-width:1;stroke-linecap:butt;stroke-linejoin:miter;stroke-miterlimit:4;stroke-opacity:1;stroke-dasharray:none;stroke-dashoffset:20" />
    <path
       d="m 1146.7497,20233.775 a 29.785706,29.785706 0 1 1 -59.5714,0 29.785706,29.785706 0 1 1 59.5714,0 z"
       transform="translate(-434.78304,-19689.603)"
       id="path5587"
       style="fill:url(#radialGradient5589);fill-opacity:1;stroke:#000000;stroke-width:1;stroke-linecap:butt;stroke-linejoin:miter;stroke-miterlimit:4;stroke-opacity:1;stroke-dasharray:none;stroke-dashoffset:20" />
    <path
       d="m 688.07401,351.24143 c 18.81577,5.82279 30.19807,24.37089 25.59763,42.32795 l 0,0 c -4.7563,18.56543 -24.79478,29.46845 -44.75757,24.35416 -0.85296,-0.21852 -1.69159,-0.46434 -2.51741,-0.72752 z"
       id="path5591"
       style="fill:#677ee6;fill-opacity:1;stroke:#000000;stroke-width:1;stroke-linecap:butt;stroke-linejoin:miter;stroke-miterlimit:4;stroke-opacity:1;stroke-dashoffset:20" />
    <path
       d="m 1041.3421,20148.865 a 4.0772986,4.0772986 0 1 1 -8.1546,0 4.0772986,4.0772986 0 1 1 8.1546,0 z"
       transform="translate(-343.94745,-19760.348)"
       id="path5594"
       style="fill:url(#radialGradient5602);fill-opacity:1;stroke:#000000;stroke-width:1;stroke-linecap:butt;stroke-linejoin:miter;stroke-miterlimit:4;stroke-opacity:1;stroke-dasharray:none;stroke-dashoffset:20" />
    <path
       d="m 260.23003,20259.379 a 69.515572,69.515572 0 1 1 -139.03114,0 69.515572,69.515572 0 1 1 139.03114,0 z"
       transform="translate(-347.75293,-19757.086)"
       id="path5604"
       style="fill:#14181b;fill-opacity:1;stroke:#000000;stroke-width:1;stroke-linecap:butt;stroke-linejoin:miter;stroke-miterlimit:4;stroke-opacity:1;stroke-dasharray:none;stroke-dashoffset:20" />
    <path
       d="m -222.92714,480.22825 44.19091,0 m 43.1133,0 44.473138,0"
       id="path5606"
       style="fill:none;stroke:#000000;stroke-width:1px;stroke-linecap:butt;stroke-linejoin:miter;stroke-opacity:1" />
    <path
       d="m -222.92714,523.44875 44.30521,0 m 43.1139,0 44.358238,0"
       id="path5608"
       style="fill:none;stroke:#000000;stroke-width:1px;stroke-linecap:butt;stroke-linejoin:miter;stroke-opacity:1" />
    <path
       d="m -135.42821,435.94975 0,44.254 m 0,43.228 0,44.295"
       id="path5610"
       style="fill:none;stroke:#000000;stroke-width:1px;stroke-linecap:butt;stroke-linejoin:miter;stroke-opacity:1" />
    <path
       d="m -178.64871,435.94975 0,44.625 m 0,42.671 0,44.481"
       id="path5612"
       style="fill:none;stroke:#000000;stroke-width:1px;stroke-linecap:butt;stroke-linejoin:miter;stroke-opacity:1" />
    <path
       d="m -178.54345,480.32725 43.18455,43.184"
       id="path5614"
       style="fill:none;stroke:#000000;stroke-width:1px;stroke-linecap:butt;stroke-linejoin:miter;stroke-opacity:1" />
    <path
       d="m -135.35917,480.32675 -43.184,43.185"
       id="path5616"
       style="fill:none;stroke:#000000;stroke-width:1px;stroke-linecap:butt;stroke-linejoin:miter;stroke-opacity:1" />
    <path
       d="m 186.87234,20474.168 a 4.693141,4.693141 0 1 1 -9.38628,0 4.693141,4.693141 0 1 1 9.38628,0 z"
       transform="translate(-347.75293,-19757.086)"
       id="path5618"
       style="fill:#000000;fill-opacity:1;stroke:#000000;stroke-width:1;stroke-linecap:butt;stroke-linejoin:miter;stroke-miterlimit:4;stroke-opacity:1;stroke-dasharray:none;stroke-dashoffset:20" />
    <path
       d="m 186.87234,20474.168 a 4.693141,4.693141 0 1 1 -9.38628,0 4.693141,4.693141 0 1 1 9.38628,0 z"
       transform="translate(-328.98036,-19757.086)"
       id="path5620"
       style="fill:#000000;fill-opacity:1;stroke:#000000;stroke-width:1;stroke-linecap:butt;stroke-linejoin:miter;stroke-miterlimit:4;stroke-opacity:1;stroke-dasharray:none;stroke-dashoffset:20" />
    <path
       d="m 186.87234,20474.168 a 4.693141,4.693141 0 1 1 -9.38628,0 4.693141,4.693141 0 1 1 9.38628,0 z"
       transform="translate(-309.78115,-19757.086)"
       id="path5622"
       style="fill:#000000;fill-opacity:1;stroke:#000000;stroke-width:1;stroke-linecap:butt;stroke-linejoin:miter;stroke-miterlimit:4;stroke-opacity:1;stroke-dasharray:none;stroke-dashoffset:20" />
    <path
       d="m 186.87234,20474.168 a 4.693141,4.693141 0 1 1 -9.38628,0 4.693141,4.693141 0 1 1 9.38628,0 z"
       transform="translate(-291.22191,-19757.086)"
       id="path5624"
       style="fill:#000000;fill-opacity:1;stroke:#000000;stroke-width:1;stroke-linecap:butt;stroke-linejoin:miter;stroke-miterlimit:4;stroke-opacity:1;stroke-dasharray:none;stroke-dashoffset:20" />
    <path
       d="m 186.87234,20474.168 a 4.693141,4.693141 0 1 1 -9.38628,0 4.693141,4.693141 0 1 1 9.38628,0 z"
       transform="translate(-272.23603,-19757.086)"
       id="path5626"
       style="fill:#000000;fill-opacity:1;stroke:#000000;stroke-width:1;stroke-linecap:butt;stroke-linejoin:miter;stroke-miterlimit:4;stroke-opacity:1;stroke-dasharray:none;stroke-dashoffset:20" />
    <path
       d="m 186.87234,20474.168 a 4.693141,4.693141 0 1 1 -9.38628,0 4.693141,4.693141 0 1 1 9.38628,0 z"
       transform="translate(-253.46346,-19757.086)"
       id="path5628"
       style="fill:#000000;fill-opacity:1;stroke:#000000;stroke-width:1;stroke-linecap:butt;stroke-linejoin:miter;stroke-miterlimit:4;stroke-opacity:1;stroke-dasharray:none;stroke-dashoffset:20" />
    <path
       d="m 186.87234,20474.168 a 4.693141,4.693141 0 1 1 -9.38628,0 4.693141,4.693141 0 1 1 9.38628,0 z"
       transform="translate(-234.26425,-19757.086)"
       id="path5630"
       style="fill:#000000;fill-opacity:1;stroke:#000000;stroke-width:1;stroke-linecap:butt;stroke-linejoin:miter;stroke-miterlimit:4;stroke-opacity:1;stroke-dasharray:none;stroke-dashoffset:20" />
    <path
       d="m 186.87234,20474.168 a 4.693141,4.693141 0 1 1 -9.38628,0 4.693141,4.693141 0 1 1 9.38628,0 z"
       transform="translate(-215.70501,-19757.086)"
       id="path5632"
       style="fill:#000000;fill-opacity:1;stroke:#000000;stroke-width:1;stroke-linecap:butt;stroke-linejoin:miter;stroke-miterlimit:4;stroke-opacity:1;stroke-dasharray:none;stroke-dashoffset:20" />
    <path
       d="m 186.87234,20474.168 a 4.693141,4.693141 0 1 1 -9.38628,0 4.693141,4.693141 0 1 1 9.38628,0 z"
       transform="translate(-328.98036,-19775.432)"
       id="path5636"
       style="fill:#000000;fill-opacity:1;stroke:#000000;stroke-width:1;stroke-linecap:butt;stroke-linejoin:miter;stroke-miterlimit:4;stroke-opacity:1;stroke-dasharray:none;stroke-dashoffset:20" />
    <path
       d="m 186.87234,20474.168 a 4.693141,4.693141 0 1 1 -9.38628,0 4.693141,4.693141 0 1 1 9.38628,0 z"
       transform="translate(-309.78115,-19775.432)"
       id="path5638"
       style="fill:#000000;fill-opacity:1;stroke:#000000;stroke-width:1;stroke-linecap:butt;stroke-linejoin:miter;stroke-miterlimit:4;stroke-opacity:1;stroke-dasharray:none;stroke-dashoffset:20" />
    <path
       d="m 186.87234,20474.168 a 4.693141,4.693141 0 1 1 -9.38628,0 4.693141,4.693141 0 1 1 9.38628,0 z"
       transform="translate(-291.22191,-19775.432)"
       id="path5640"
       style="fill:#000000;fill-opacity:1;stroke:#000000;stroke-width:1;stroke-linecap:butt;stroke-linejoin:miter;stroke-miterlimit:4;stroke-opacity:1;stroke-dasharray:none;stroke-dashoffset:20" />
    <path
       d="m 186.87234,20474.168 a 4.693141,4.693141 0 1 1 -9.38628,0 4.693141,4.693141 0 1 1 9.38628,0 z"
       transform="translate(-272.23603,-19775.432)"
       id="path5642"
       style="fill:#000000;fill-opacity:1;stroke:#000000;stroke-width:1;stroke-linecap:butt;stroke-linejoin:miter;stroke-miterlimit:4;stroke-opacity:1;stroke-dasharray:none;stroke-dashoffset:20" />
    <path
       d="m 186.87234,20474.168 a 4.693141,4.693141 0 1 1 -9.38628,0 4.693141,4.693141 0 1 1 9.38628,0 z"
       transform="translate(-253.46346,-19775.432)"
       id="path5644"
       style="fill:#000000;fill-opacity:1;stroke:#000000;stroke-width:1;stroke-linecap:butt;stroke-linejoin:miter;stroke-miterlimit:4;stroke-opacity:1;stroke-dasharray:none;stroke-dashoffset:20" />
    <path
       d="m 186.87234,20474.168 a 4.693141,4.693141 0 1 1 -9.38628,0 4.693141,4.693141 0 1 1 9.38628,0 z"
       transform="translate(-234.26425,-19775.432)"
       id="path5646"
       style="fill:#000000;fill-opacity:1;stroke:#000000;stroke-width:1;stroke-linecap:butt;stroke-linejoin:miter;stroke-miterlimit:4;stroke-opacity:1;stroke-dasharray:none;stroke-dashoffset:20" />
    <path
       d="m 186.87234,20474.168 a 4.693141,4.693141 0 1 1 -9.38628,0 4.693141,4.693141 0 1 1 9.38628,0 z"
       transform="translate(-328.98036,-19698.849)"
       id="path5652"
       style="fill:#000000;fill-opacity:1;stroke:#000000;stroke-width:1;stroke-linecap:butt;stroke-linejoin:miter;stroke-miterlimit:4;stroke-opacity:1;stroke-dasharray:none;stroke-dashoffset:20" />
    <path
       d="m 186.87234,20474.168 a 4.693141,4.693141 0 1 1 -9.38628,0 4.693141,4.693141 0 1 1 9.38628,0 z"
       transform="translate(-309.78115,-19698.849)"
       id="path5654"
       style="fill:#000000;fill-opacity:1;stroke:#000000;stroke-width:1;stroke-linecap:butt;stroke-linejoin:miter;stroke-miterlimit:4;stroke-opacity:1;stroke-dasharray:none;stroke-dashoffset:20" />
    <path
       d="m 186.87234,20474.168 a 4.693141,4.693141 0 1 1 -9.38628,0 4.693141,4.693141 0 1 1 9.38628,0 z"
       transform="translate(-291.22191,-19698.849)"
       id="path5656"
       style="fill:#000000;fill-opacity:1;stroke:#000000;stroke-width:1;stroke-linecap:butt;stroke-linejoin:miter;stroke-miterlimit:4;stroke-opacity:1;stroke-dasharray:none;stroke-dashoffset:20" />
    <path
       d="m 186.87234,20474.168 a 4.693141,4.693141 0 1 1 -9.38628,0 4.693141,4.693141 0 1 1 9.38628,0 z"
       transform="translate(-272.23603,-19698.849)"
       id="path5658"
       style="fill:#000000;fill-opacity:1;stroke:#000000;stroke-width:1;stroke-linecap:butt;stroke-linejoin:miter;stroke-miterlimit:4;stroke-opacity:1;stroke-dasharray:none;stroke-dashoffset:20" />
    <path
       d="m 186.87234,20474.168 a 4.693141,4.693141 0 1 1 -9.38628,0 4.693141,4.693141 0 1 1 9.38628,0 z"
       transform="translate(-253.46346,-19698.849)"
       id="path5660"
       style="fill:#000000;fill-opacity:1;stroke:#000000;stroke-width:1;stroke-linecap:butt;stroke-linejoin:miter;stroke-miterlimit:4;stroke-opacity:1;stroke-dasharray:none;stroke-dashoffset:20" />
    <path
       d="m 186.87234,20474.168 a 4.693141,4.693141 0 1 1 -9.38628,0 4.693141,4.693141 0 1 1 9.38628,0 z"
       transform="translate(-234.26425,-19698.849)"
       id="path5662"
       style="fill:#000000;fill-opacity:1;stroke:#000000;stroke-width:1;stroke-linecap:butt;stroke-linejoin:miter;stroke-miterlimit:4;stroke-opacity:1;stroke-dasharray:none;stroke-dashoffset:20" />
    <path
       d="m 186.87234,20474.168 a 4.693141,4.693141 0 1 1 -9.38628,0 4.693141,4.693141 0 1 1 9.38628,0 z"
       transform="translate(-347.75293,-19717.195)"
       id="path5666"
       style="fill:#000000;fill-opacity:1;stroke:#000000;stroke-width:1;stroke-linecap:butt;stroke-linejoin:miter;stroke-miterlimit:4;stroke-opacity:1;stroke-dasharray:none;stroke-dashoffset:20" />
    <path
       d="m 186.87234,20474.168 a 4.693141,4.693141 0 1 1 -9.38628,0 4.693141,4.693141 0 1 1 9.38628,0 z"
       transform="translate(-328.98036,-19717.195)"
       id="path5668"
       style="fill:#000000;fill-opacity:1;stroke:#000000;stroke-width:1;stroke-linecap:butt;stroke-linejoin:miter;stroke-miterlimit:4;stroke-opacity:1;stroke-dasharray:none;stroke-dashoffset:20" />
    <path
       d="m 186.87234,20474.168 a 4.693141,4.693141 0 1 1 -9.38628,0 4.693141,4.693141 0 1 1 9.38628,0 z"
       transform="translate(-309.78115,-19717.195)"
       id="path5670"
       style="fill:#000000;fill-opacity:1;stroke:#000000;stroke-width:1;stroke-linecap:butt;stroke-linejoin:miter;stroke-miterlimit:4;stroke-opacity:1;stroke-dasharray:none;stroke-dashoffset:20" />
    <path
       d="m 186.87234,20474.168 a 4.693141,4.693141 0 1 1 -9.38628,0 4.693141,4.693141 0 1 1 9.38628,0 z"
       transform="translate(-291.22191,-19717.195)"
       id="path5672"
       style="fill:#000000;fill-opacity:1;stroke:#000000;stroke-width:1;stroke-linecap:butt;stroke-linejoin:miter;stroke-miterlimit:4;stroke-opacity:1;stroke-dasharray:none;stroke-dashoffset:20" />
    <path
       d="m 186.87234,20474.168 a 4.693141,4.693141 0 1 1 -9.38628,0 4.693141,4.693141 0 1 1 9.38628,0 z"
       transform="translate(-272.23603,-19717.195)"
       id="path5674"
       style="fill:#000000;fill-opacity:1;stroke:#000000;stroke-width:1;stroke-linecap:butt;stroke-linejoin:miter;stroke-miterlimit:4;stroke-opacity:1;stroke-dasharray:none;stroke-dashoffset:20" />
    <path
       d="m 186.87234,20474.168 a 4.693141,4.693141 0 1 1 -9.38628,0 4.693141,4.693141 0 1 1 9.38628,0 z"
       transform="translate(-253.46346,-19717.195)"
       id="path5676"
       style="fill:#000000;fill-opacity:1;stroke:#000000;stroke-width:1;stroke-linecap:butt;stroke-linejoin:miter;stroke-miterlimit:4;stroke-opacity:1;stroke-dasharray:none;stroke-dashoffset:20" />
    <path
       d="m 186.87234,20474.168 a 4.693141,4.693141 0 1 1 -9.38628,0 4.693141,4.693141 0 1 1 9.38628,0 z"
       transform="translate(-234.26425,-19717.195)"
       id="path5678"
       style="fill:#000000;fill-opacity:1;stroke:#000000;stroke-width:1;stroke-linecap:butt;stroke-linejoin:miter;stroke-miterlimit:4;stroke-opacity:1;stroke-dasharray:none;stroke-dashoffset:20" />
    <path
       d="m 186.87234,20474.168 a 4.693141,4.693141 0 1 1 -9.38628,0 4.693141,4.693141 0 1 1 9.38628,0 z"
       transform="translate(-215.70501,-19717.195)"
       id="path5680"
       style="fill:#000000;fill-opacity:1;stroke:#000000;stroke-width:1;stroke-linecap:butt;stroke-linejoin:miter;stroke-miterlimit:4;stroke-opacity:1;stroke-dasharray:none;stroke-dashoffset:20" />
    <path
       d="m 186.87234,20474.168 a 4.693141,4.693141 0 1 1 -9.38628,0 4.693141,4.693141 0 1 1 9.38628,0 z"
       transform="translate(-347.75293,-19736.607)"
       id="path5682"
       style="fill:#000000;fill-opacity:1;stroke:#000000;stroke-width:1;stroke-linecap:butt;stroke-linejoin:miter;stroke-miterlimit:4;stroke-opacity:1;stroke-dasharray:none;stroke-dashoffset:20" />
    <path
       d="m 186.87234,20474.168 a 4.693141,4.693141 0 1 1 -9.38628,0 4.693141,4.693141 0 1 1 9.38628,0 z"
       transform="translate(-328.98036,-19736.607)"
       id="path5684"
       style="fill:#000000;fill-opacity:1;stroke:#000000;stroke-width:1;stroke-linecap:butt;stroke-linejoin:miter;stroke-miterlimit:4;stroke-opacity:1;stroke-dasharray:none;stroke-dashoffset:20" />
    <path
       d="m 186.87234,20474.168 a 4.693141,4.693141 0 1 1 -9.38628,0 4.693141,4.693141 0 1 1 9.38628,0 z"
       transform="translate(-309.78115,-19736.607)"
       id="path5686"
       style="fill:#000000;fill-opacity:1;stroke:#000000;stroke-width:1;stroke-linecap:butt;stroke-linejoin:miter;stroke-miterlimit:4;stroke-opacity:1;stroke-dasharray:none;stroke-dashoffset:20" />
    <path
       d="m 186.87234,20474.168 a 4.693141,4.693141 0 1 1 -9.38628,0 4.693141,4.693141 0 1 1 9.38628,0 z"
       transform="translate(-291.22191,-19736.607)"
       id="path5688"
       style="fill:#000000;fill-opacity:1;stroke:#000000;stroke-width:1;stroke-linecap:butt;stroke-linejoin:miter;stroke-miterlimit:4;stroke-opacity:1;stroke-dasharray:none;stroke-dashoffset:20" />
    <path
       d="m 186.87234,20474.168 a 4.693141,4.693141 0 1 1 -9.38628,0 4.693141,4.693141 0 1 1 9.38628,0 z"
       transform="translate(-272.23603,-19736.607)"
       id="path5690"
       style="fill:#000000;fill-opacity:1;stroke:#000000;stroke-width:1;stroke-linecap:butt;stroke-linejoin:miter;stroke-miterlimit:4;stroke-opacity:1;stroke-dasharray:none;stroke-dashoffset:20" />
    <path
       d="m 186.87234,20474.168 a 4.693141,4.693141 0 1 1 -9.38628,0 4.693141,4.693141 0 1 1 9.38628,0 z"
       transform="translate(-253.46346,-19736.607)"
       id="path5692"
       style="fill:#000000;fill-opacity:1;stroke:#000000;stroke-width:1;stroke-linecap:butt;stroke-linejoin:miter;stroke-miterlimit:4;stroke-opacity:1;stroke-dasharray:none;stroke-dashoffset:20" />
    <path
       d="m 186.87234,20474.168 a 4.693141,4.693141 0 1 1 -9.38628,0 4.693141,4.693141 0 1 1 9.38628,0 z"
       transform="translate(-234.26425,-19736.607)"
       id="path5694"
       style="fill:#000000;fill-opacity:1;stroke:#000000;stroke-width:1;stroke-linecap:butt;stroke-linejoin:miter;stroke-miterlimit:4;stroke-opacity:1;stroke-dasharray:none;stroke-dashoffset:20" />
    <path
       d="m 186.87234,20474.168 a 4.693141,4.693141 0 1 1 -9.38628,0 4.693141,4.693141 0 1 1 9.38628,0 z"
       transform="translate(-215.70501,-19736.607)"
       id="path5696"
       style="fill:#000000;fill-opacity:1;stroke:#000000;stroke-width:1;stroke-linecap:butt;stroke-linejoin:miter;stroke-miterlimit:4;stroke-opacity:1;stroke-dasharray:none;stroke-dashoffset:20" />
  </g>
</svg>
