<?xml version="1.0" encoding="UTF-8" standalone="no"?>
<!-- Created with Inkscape (http://www.inkscape.org/) -->

<svg
   xmlns:dc="http://purl.org/dc/elements/1.1/"
   xmlns:cc="http://creativecommons.org/ns#"
   xmlns:rdf="http://www.w3.org/1999/02/22-rdf-syntax-ns#"
   xmlns:svg="http://www.w3.org/2000/svg"
   xmlns="http://www.w3.org/2000/svg"
   xmlns:xlink="http://www.w3.org/1999/xlink"
   version="1.1"
   width="1114.5551"
   height="675.71875"
   id="svg6369">
  <defs
     id="defs6371">
    <radialGradient
       cx="282.57892"
       cy="15537.522"
       r="43.769901"
       fx="282.57892"
       fy="15537.522"
       id="radialGradient4916-4"
       xlink:href="#linearGradient4909-5"
       gradientUnits="userSpaceOnUse" />
    <linearGradient
       id="linearGradient4909-5">
      <stop
         id="stop4911-8"
         style="stop-color:#22211e;stop-opacity:1"
         offset="0" />
      <stop
         id="stop4913-8"
         style="stop-color:#33322e;stop-opacity:1"
         offset="1" />
    </linearGradient>
    <radialGradient
       cx="282.57892"
       cy="15537.522"
       r="52.600494"
       fx="282.57892"
       fy="15537.522"
       id="radialGradient5456"
       xlink:href="#linearGradient4919-2"
       gradientUnits="userSpaceOnUse" />
    <linearGradient
       id="linearGradient4919-2">
      <stop
         id="stop4921-1"
         style="stop-color:#424241;stop-opacity:1"
         offset="0" />
      <stop
         id="stop4923-4"
         style="stop-color:#272726;stop-opacity:1"
         offset="1" />
    </linearGradient>
    <radialGradient
       cx="1106.1683"
       cy="18888.469"
       r="42.123211"
       fx="1106.1683"
       fy="18888.469"
       id="radialGradient5383"
       xlink:href="#linearGradient5373"
       gradientUnits="userSpaceOnUse" />
    <linearGradient
       id="linearGradient5373">
      <stop
         id="stop5375"
         style="stop-color:#e1dde5;stop-opacity:1"
         offset="0" />
      <stop
         id="stop5377"
         style="stop-color:#a197ae;stop-opacity:1"
         offset="1" />
    </linearGradient>
    <radialGradient
       cx="1106.1683"
       cy="18888.469"
       r="42.123211"
       fx="1106.1683"
       fy="18888.469"
       id="radialGradient5379"
       xlink:href="#linearGradient5373"
       gradientUnits="userSpaceOnUse" />
    <linearGradient
       id="linearGradient6302">
      <stop
         id="stop6304"
         style="stop-color:#e1dde5;stop-opacity:1"
         offset="0" />
      <stop
         id="stop6306"
         style="stop-color:#a197ae;stop-opacity:1"
         offset="1" />
    </linearGradient>
    <radialGradient
       cx="282.57892"
       cy="15537.522"
       r="52.600494"
       fx="282.57892"
       fy="15537.522"
       id="radialGradient5405"
       xlink:href="#linearGradient4919-2"
       gradientUnits="userSpaceOnUse" />
    <linearGradient
       id="linearGradient6309">
      <stop
         id="stop6311"
         style="stop-color:#424241;stop-opacity:1"
         offset="0" />
      <stop
         id="stop6313"
         style="stop-color:#272726;stop-opacity:1"
         offset="1" />
    </linearGradient>
    <radialGradient
       cx="282.57892"
       cy="15537.522"
       r="136.7666"
       fx="282.57892"
       fy="15537.522"
       id="radialGradient5464"
       xlink:href="#linearGradient5458"
       gradientUnits="userSpaceOnUse" />
    <linearGradient
       id="linearGradient5458">
      <stop
         id="stop5460"
         style="stop-color:#4e527a;stop-opacity:1"
         offset="0" />
      <stop
         id="stop5466"
         style="stop-color:#4e527a;stop-opacity:1"
         offset="0.84579688" />
      <stop
         id="stop5462"
         style="stop-color:#6e72a2;stop-opacity:1"
         offset="1" />
    </linearGradient>
    <linearGradient
       x1="623.44061"
       y1="18796.15"
       x2="623.44061"
       y2="19478.736"
       id="linearGradient5716"
       xlink:href="#linearGradient5710"
       gradientUnits="userSpaceOnUse" />
    <linearGradient
       id="linearGradient5710">
      <stop
         id="stop5712"
         style="stop-color:#6e72a2;stop-opacity:1"
         offset="0" />
      <stop
         id="stop5718"
         style="stop-color:#6e72a2;stop-opacity:1"
         offset="0.81999999" />
      <stop
         id="stop5714"
         style="stop-color:#3f4161;stop-opacity:1"
         offset="1" />
    </linearGradient>
    <linearGradient
       x1="623.44061"
       y1="18796.15"
       x2="623.44061"
       y2="19478.736"
       id="linearGradient6367"
       xlink:href="#linearGradient5710"
       gradientUnits="userSpaceOnUse"
       gradientTransform="translate(-374.108,-18574.503)" />
  </defs>
  <metadata
     id="metadata6374">
    <rdf:RDF>
      <cc:Work
         rdf:about="">
        <dc:format>image/svg+xml</dc:format>
        <dc:type
           rdf:resource="http://purl.org/dc/dcmitype/StillImage" />
        <dc:title></dc:title>
      </cc:Work>
    </rdf:RDF>
  </metadata>
  <g
     transform="translate(294.41815,-208.78125)"
     id="layer1">
    <path
       d="m -230.47423,859.9044 c -28.584,-10.56 -51.7127,-23.324 -59.6075,-62.144 -7.8947,-38.821 -1.1337,-534.984 -1.2682,-549.15 -0.1345,-14.166 12.9022,-21.309 20.2919,-25.365 7.3897,-4.056 102.7653,-7.214 124.2879,-8.877 21.5226,-1.663 409.62723,-5.073 409.62723,-5.073 0,0 388.1047,3.41 409.6273,5.073 21.5226,1.663 116.89822,4.821 124.28792,8.877 7.3897,4.056 20.4264,11.199 20.2919,25.365 -0.1345,14.166 6.6265,510.329 -1.2682,549.15 -7.8948,38.82 -31.0235,51.584 -59.6075,62.144 -28.584,10.56 -300.38213,24.096 -493.33142,24.096 -192.949264,0 -464.74733,-13.536 -493.33133,-24.096 z"
       id="path5355"
       style="fill:url(#linearGradient6367);fill-opacity:1;stroke:#000000;stroke-width:1px;stroke-linecap:butt;stroke-linejoin:miter;stroke-opacity:1" />
    <path
       d="m 418.70761,15537.522 a 136.12869,136.12869 0 1 1 -272.25738,0 136.12869,136.12869 0 1 1 272.25738,0 z"
       transform="matrix(0.78380733,0,0,0.78380733,-350.3661,-11705.73)"
       id="path5438"
       style="fill:url(#radialGradient5464);fill-opacity:1;stroke:#000000;stroke-width:1.27582371;stroke-linecap:butt;stroke-linejoin:miter;stroke-miterlimit:4;stroke-opacity:1;stroke-dasharray:none;stroke-dashoffset:20" />
    <path
       d="m 399.36299,15537.522 a 116.78407,116.78407 0 1 1 -233.56814,0 116.78407,116.78407 0 1 1 233.56814,0 z"
       transform="matrix(0.78380733,0,0,0.78380733,-350.3661,-11705.73)"
       id="path5436"
       style="fill:#45486c;fill-opacity:1;stroke:#000000;stroke-width:1.27582371;stroke-linecap:butt;stroke-linejoin:miter;stroke-miterlimit:4;stroke-opacity:1;stroke-dasharray:none;stroke-dashoffset:20" />
    <path
       d="m 366.11442,15537.522 a 83.5355,83.5355 0 1 1 -167.071,0 83.5355,83.5355 0 1 1 167.071,0 z"
       transform="matrix(0.78380733,0,0,0.78380733,-350.3661,-11705.73)"
       id="path5434"
       style="fill:url(#radialGradient5405);fill-opacity:1;stroke:#000000;stroke-width:1.27582371;stroke-linecap:butt;stroke-linejoin:miter;stroke-miterlimit:4;stroke-opacity:1;stroke-dasharray:none;stroke-dashoffset:20" />
    <path
       d="m -2.9212741,243.8274 532.7940241,0 c 1.31548,0 2.37451,1.059 2.37451,2.375 l 0,508.702 c 0,1.316 -1.05903,2.375 -2.37451,2.375 0,0 -14.73607,10 -266.39701,10 -251.660944,0 -266.3970141,-10 -266.3970141,-10 -1.31455,-0.05 -2.3745,-1.059 -2.3745,-2.375 l 0,-508.702 c 0,-1.316 1.05902,-2.375 2.3745,-2.375 z"
       id="rect5360"
       style="fill:#7e7f94;fill-opacity:1;stroke:#000000;stroke-width:1;stroke-linecap:butt;stroke-linejoin:miter;stroke-miterlimit:4;stroke-opacity:1;stroke-dashoffset:20" />
    <rect
       width="452.76303"
       height="432.47113"
       rx="2"
       ry="2"
       x="37.094212"
       y="280.31772"
       id="rect5358"
       style="fill:#bab4a0;fill-opacity:1;stroke:#000000;stroke-width:1;stroke-linecap:butt;stroke-linejoin:miter;stroke-miterlimit:4;stroke-opacity:1;stroke-dasharray:none;stroke-dashoffset:20" />
    <path
       d="m -161.17007,296.3629 82.112096,0"
       id="path5367"
       style="fill:none;stroke:#000000;stroke-width:1px;stroke-linecap:butt;stroke-linejoin:miter;stroke-opacity:1" />
    <rect
       width="70.273849"
       height="30.225311"
       rx="15"
       ry="15"
       x="-224.8951"
       y="281.056"
       id="rect5363"
       style="fill:#08070c;fill-opacity:1;stroke:#000000;stroke-width:1;stroke-linecap:butt;stroke-linejoin:miter;stroke-miterlimit:4;stroke-opacity:1;stroke-dasharray:none;stroke-dashoffset:20" />
    <path
       d="m 296.71181,18886.92 a 12.342002,12.342002 0 1 1 -24.684,0 12.342002,12.342002 0 1 1 24.684,0 z"
       transform="translate(-364.38341,-18590.814)"
       id="path5365"
       style="fill:#87231a;fill-opacity:1;stroke:#000000;stroke-width:1;stroke-linecap:butt;stroke-linejoin:miter;stroke-miterlimit:4;stroke-opacity:1;stroke-dasharray:none;stroke-dashoffset:20" />
    <path
       d="m 1125.7186,18888.469 a 19.550297,19.550297 0 1 1 -39.1006,0 19.550297,19.550297 0 1 1 39.1006,0 z"
       transform="translate(-364.30838,-18589.674)"
       id="path5369"
       style="fill:#08070c;fill-opacity:1;stroke:#000000;stroke-width:1;stroke-linecap:butt;stroke-linejoin:miter;stroke-miterlimit:4;stroke-opacity:1;stroke-dasharray:none;stroke-dashoffset:20" />
    <path
       d="m 1147.7915,18888.469 a 41.623211,41.623211 0 1 1 -83.2464,0 41.623211,41.623211 0 1 1 83.2464,0 z"
       transform="translate(-373.13755,-18455.975)"
       id="path5371"
       style="fill:url(#radialGradient5379);fill-opacity:1;stroke:#000000;stroke-width:1;stroke-linecap:butt;stroke-linejoin:miter;stroke-miterlimit:4;stroke-opacity:1;stroke-dasharray:none;stroke-dashoffset:20" />
    <path
       d="m 1147.7915,18888.469 a 41.623211,41.623211 0 1 1 -83.2464,0 41.623211,41.623211 0 1 1 83.2464,0 z"
       transform="translate(-486.10826,-18376.316)"
       id="path5381"
       style="fill:url(#radialGradient5383);fill-opacity:1;stroke:#000000;stroke-width:1;stroke-linecap:butt;stroke-linejoin:miter;stroke-miterlimit:4;stroke-opacity:1;stroke-dasharray:none;stroke-dashoffset:20" />
    <path
       d="m 334.67941,15537.522 a 52.100494,52.100494 0 1 1 -104.20099,0 52.100494,52.100494 0 1 1 104.20099,0 z"
       transform="matrix(0.78380733,0,0,0.78380733,-350.3661,-11705.73)"
       id="path4827-9"
       style="fill:url(#radialGradient5456);fill-opacity:1;stroke:#000000;stroke-width:1.27582371;stroke-linecap:butt;stroke-linejoin:miter;stroke-miterlimit:4;stroke-opacity:1;stroke-dasharray:none;stroke-dashoffset:20" />
    <path
       d="m 325.84882,15537.522 a 43.269901,43.269901 0 1 1 -86.5398,0 43.269901,43.269901 0 1 1 86.5398,0 z"
       transform="matrix(0.78380733,0,0,0.78380733,-350.3661,-11705.73)"
       id="path4830-8"
       style="fill:url(#radialGradient4916-4);fill-opacity:1;stroke:#000000;stroke-width:1.27582371;stroke-linecap:butt;stroke-linejoin:miter;stroke-miterlimit:4;stroke-opacity:1;stroke-dasharray:none;stroke-dashoffset:20" />
    <rect
       width="19.900723"
       height="14.688628"
       x="-138.82895"
       y="366.556"
       id="rect5440"
       style="fill:#5e6292;fill-opacity:1;stroke:#000000;stroke-width:1;stroke-linecap:butt;stroke-linejoin:miter;stroke-miterlimit:4;stroke-opacity:1;stroke-dasharray:none;stroke-dashoffset:20" />
    <rect
       width="19.900723"
       height="14.688628"
       x="-138.82895"
       y="564.08331"
       id="rect5442"
       style="fill:#5e6292;fill-opacity:1;stroke:#000000;stroke-width:1;stroke-linecap:butt;stroke-linejoin:miter;stroke-miterlimit:4;stroke-opacity:1;stroke-dasharray:none;stroke-dashoffset:20" />
    <rect
       width="19.900723"
       height="14.688628"
       x="462.7142"
       y="22.770594"
       transform="matrix(0,1,-1,0,0,0)"
       id="rect5444"
       style="fill:#5e6292;fill-opacity:1;stroke:#000000;stroke-width:1;stroke-linecap:butt;stroke-linejoin:miter;stroke-miterlimit:4;stroke-opacity:1;stroke-dasharray:none;stroke-dashoffset:20" />
    <rect
       width="19.900723"
       height="14.688628"
       x="462.7142"
       y="220.29794"
       transform="matrix(0,1,-1,0,0,0)"
       id="rect5446"
       style="fill:#5e6292;fill-opacity:1;stroke:#000000;stroke-width:1;stroke-linecap:butt;stroke-linejoin:miter;stroke-miterlimit:4;stroke-opacity:1;stroke-dasharray:none;stroke-dashoffset:20" />
    <rect
       width="19.900723"
       height="14.688628"
       x="415.40488"
       y="-349.20053"
       transform="matrix(-0.70710678,0.70710678,-0.70710678,-0.70710678,0,0)"
       id="rect5448"
       style="fill:#5e6292;fill-opacity:1;stroke:#000000;stroke-width:1;stroke-linecap:butt;stroke-linejoin:miter;stroke-miterlimit:4;stroke-opacity:1;stroke-dasharray:none;stroke-dashoffset:20" />
    <rect
       width="19.900723"
       height="14.688628"
       x="415.40488"
       y="-151.67319"
       transform="matrix(-0.70710678,0.70710678,-0.70710678,-0.70710678,0,0)"
       id="rect5450"
       style="fill:#5e6292;fill-opacity:1;stroke:#000000;stroke-width:1;stroke-linecap:butt;stroke-linejoin:miter;stroke-miterlimit:4;stroke-opacity:1;stroke-dasharray:none;stroke-dashoffset:20" />
    <rect
       width="19.900723"
       height="14.688628"
       x="233.14194"
       y="319.24765"
       transform="matrix(0.70710678,0.70710678,-0.70710678,0.70710678,0,0)"
       id="rect5452"
       style="fill:#5e6292;fill-opacity:1;stroke:#000000;stroke-width:1;stroke-linecap:butt;stroke-linejoin:miter;stroke-miterlimit:4;stroke-opacity:1;stroke-dasharray:none;stroke-dashoffset:20" />
    <rect
       width="19.900723"
       height="14.688628"
       x="233.14194"
       y="516.77502"
       transform="matrix(0.70710678,0.70710678,-0.70710678,0.70710678,0,0)"
       id="rect5454"
       style="fill:#5e6292;fill-opacity:1;stroke:#000000;stroke-width:1;stroke-linecap:butt;stroke-linejoin:miter;stroke-miterlimit:4;stroke-opacity:1;stroke-dasharray:none;stroke-dashoffset:20" />
    <path
       d="m 201.99416,19260.99 a 4.8134775,4.8134775 0 1 1 -9.62696,0 4.8134775,4.8134775 0 1 1 9.62696,0 z"
       transform="translate(-364.93904,-18591.565)"
       id="path5468"
       style="fill:#000000;fill-opacity:1;stroke:#000000;stroke-width:1;stroke-linecap:butt;stroke-linejoin:miter;stroke-miterlimit:4;stroke-opacity:1;stroke-dasharray:none;stroke-dashoffset:20" />
    <path
       d="m 201.99416,19260.99 a 4.8134775,4.8134775 0 1 1 -9.62696,0 4.8134775,4.8134775 0 1 1 9.62696,0 z"
       transform="translate(-344.30985,-18591.565)"
       id="path5470"
       style="fill:#000000;fill-opacity:1;stroke:#000000;stroke-width:1;stroke-linecap:butt;stroke-linejoin:miter;stroke-miterlimit:4;stroke-opacity:1;stroke-dasharray:none;stroke-dashoffset:20" />
    <path
       d="m 201.99416,19260.99 a 4.8134775,4.8134775 0 1 1 -9.62696,0 4.8134775,4.8134775 0 1 1 9.62696,0 z"
       transform="translate(-324.19639,-18591.565)"
       id="path5472"
       style="fill:#000000;fill-opacity:1;stroke:#000000;stroke-width:1;stroke-linecap:butt;stroke-linejoin:miter;stroke-miterlimit:4;stroke-opacity:1;stroke-dasharray:none;stroke-dashoffset:20" />
    <path
       d="m 201.99416,19260.99 a 4.8134775,4.8134775 0 1 1 -9.62696,0 4.8134775,4.8134775 0 1 1 9.62696,0 z"
       transform="translate(-303.5672,-18591.565)"
       id="path5474"
       style="fill:#000000;fill-opacity:1;stroke:#000000;stroke-width:1;stroke-linecap:butt;stroke-linejoin:miter;stroke-miterlimit:4;stroke-opacity:1;stroke-dasharray:none;stroke-dashoffset:20" />
    <path
       d="m 201.99416,19260.99 a 4.8134775,4.8134775 0 1 1 -9.62696,0 4.8134775,4.8134775 0 1 1 9.62696,0 z"
       transform="translate(-283.96947,-18591.565)"
       id="path5476"
       style="fill:#000000;fill-opacity:1;stroke:#000000;stroke-width:1;stroke-linecap:butt;stroke-linejoin:miter;stroke-miterlimit:4;stroke-opacity:1;stroke-dasharray:none;stroke-dashoffset:20" />
    <path
       d="m 201.99416,19260.99 a 4.8134775,4.8134775 0 1 1 -9.62696,0 4.8134775,4.8134775 0 1 1 9.62696,0 z"
       transform="translate(-364.93904,-18572.255)"
       id="path5478"
       style="fill:#000000;fill-opacity:1;stroke:#000000;stroke-width:1;stroke-linecap:butt;stroke-linejoin:miter;stroke-miterlimit:4;stroke-opacity:1;stroke-dasharray:none;stroke-dashoffset:20" />
    <path
       d="m 201.99416,19260.99 a 4.8134775,4.8134775 0 1 1 -9.62696,0 4.8134775,4.8134775 0 1 1 9.62696,0 z"
       transform="translate(-344.30985,-18572.255)"
       id="path5480"
       style="fill:#000000;fill-opacity:1;stroke:#000000;stroke-width:1;stroke-linecap:butt;stroke-linejoin:miter;stroke-miterlimit:4;stroke-opacity:1;stroke-dasharray:none;stroke-dashoffset:20" />
    <path
       d="m 201.99416,19260.99 a 4.8134775,4.8134775 0 1 1 -9.62696,0 4.8134775,4.8134775 0 1 1 9.62696,0 z"
       transform="translate(-324.19639,-18572.255)"
       id="path5482"
       style="fill:#000000;fill-opacity:1;stroke:#000000;stroke-width:1;stroke-linecap:butt;stroke-linejoin:miter;stroke-miterlimit:4;stroke-opacity:1;stroke-dasharray:none;stroke-dashoffset:20" />
    <path
       d="m 201.99416,19260.99 a 4.8134775,4.8134775 0 1 1 -9.62696,0 4.8134775,4.8134775 0 1 1 9.62696,0 z"
       transform="translate(-303.5672,-18572.255)"
       id="path5484"
       style="fill:#000000;fill-opacity:1;stroke:#000000;stroke-width:1;stroke-linecap:butt;stroke-linejoin:miter;stroke-miterlimit:4;stroke-opacity:1;stroke-dasharray:none;stroke-dashoffset:20" />
    <path
       d="m 201.99416,19260.99 a 4.8134775,4.8134775 0 1 1 -9.62696,0 4.8134775,4.8134775 0 1 1 9.62696,0 z"
       transform="translate(-283.96947,-18572.255)"
       id="path5486"
       style="fill:#000000;fill-opacity:1;stroke:#000000;stroke-width:1;stroke-linecap:butt;stroke-linejoin:miter;stroke-miterlimit:4;stroke-opacity:1;stroke-dasharray:none;stroke-dashoffset:20" />
    <path
       d="m 201.99416,19260.99 a 4.8134775,4.8134775 0 1 1 -9.62696,0 4.8134775,4.8134775 0 1 1 9.62696,0 z"
       transform="translate(-364.93904,-18551.339)"
       id="path5488"
       style="fill:#000000;fill-opacity:1;stroke:#000000;stroke-width:1;stroke-linecap:butt;stroke-linejoin:miter;stroke-miterlimit:4;stroke-opacity:1;stroke-dasharray:none;stroke-dashoffset:20" />
    <path
       d="m 201.99416,19260.99 a 4.8134775,4.8134775 0 1 1 -9.62696,0 4.8134775,4.8134775 0 1 1 9.62696,0 z"
       transform="translate(-344.30985,-18551.339)"
       id="path5490"
       style="fill:#000000;fill-opacity:1;stroke:#000000;stroke-width:1;stroke-linecap:butt;stroke-linejoin:miter;stroke-miterlimit:4;stroke-opacity:1;stroke-dasharray:none;stroke-dashoffset:20" />
    <path
       d="m 201.99416,19260.99 a 4.8134775,4.8134775 0 1 1 -9.62696,0 4.8134775,4.8134775 0 1 1 9.62696,0 z"
       transform="translate(-324.19639,-18551.339)"
       id="path5492"
       style="fill:#000000;fill-opacity:1;stroke:#000000;stroke-width:1;stroke-linecap:butt;stroke-linejoin:miter;stroke-miterlimit:4;stroke-opacity:1;stroke-dasharray:none;stroke-dashoffset:20" />
    <path
       d="m 201.99416,19260.99 a 4.8134775,4.8134775 0 1 1 -9.62696,0 4.8134775,4.8134775 0 1 1 9.62696,0 z"
       transform="translate(-303.5672,-18551.339)"
       id="path5494"
       style="fill:#000000;fill-opacity:1;stroke:#000000;stroke-width:1;stroke-linecap:butt;stroke-linejoin:miter;stroke-miterlimit:4;stroke-opacity:1;stroke-dasharray:none;stroke-dashoffset:20" />
    <path
       d="m 201.99416,19260.99 a 4.8134775,4.8134775 0 1 1 -9.62696,0 4.8134775,4.8134775 0 1 1 9.62696,0 z"
       transform="translate(-283.96947,-18551.339)"
       id="path5496"
       style="fill:#000000;fill-opacity:1;stroke:#000000;stroke-width:1;stroke-linecap:butt;stroke-linejoin:miter;stroke-miterlimit:4;stroke-opacity:1;stroke-dasharray:none;stroke-dashoffset:20" />
    <path
       d="m 201.99416,19260.99 a 4.8134775,4.8134775 0 1 1 -9.62696,0 4.8134775,4.8134775 0 1 1 9.62696,0 z"
       transform="translate(-364.93904,-18531.569)"
       id="path5498"
       style="fill:#000000;fill-opacity:1;stroke:#000000;stroke-width:1;stroke-linecap:butt;stroke-linejoin:miter;stroke-miterlimit:4;stroke-opacity:1;stroke-dasharray:none;stroke-dashoffset:20" />
    <path
       d="m 201.99416,19260.99 a 4.8134775,4.8134775 0 1 1 -9.62696,0 4.8134775,4.8134775 0 1 1 9.62696,0 z"
       transform="translate(-344.30985,-18531.569)"
       id="path5500"
       style="fill:#000000;fill-opacity:1;stroke:#000000;stroke-width:1;stroke-linecap:butt;stroke-linejoin:miter;stroke-miterlimit:4;stroke-opacity:1;stroke-dasharray:none;stroke-dashoffset:20" />
    <path
       d="m 201.99416,19260.99 a 4.8134775,4.8134775 0 1 1 -9.62696,0 4.8134775,4.8134775 0 1 1 9.62696,0 z"
       transform="translate(-324.19639,-18531.569)"
       id="path5502"
       style="fill:#000000;fill-opacity:1;stroke:#000000;stroke-width:1;stroke-linecap:butt;stroke-linejoin:miter;stroke-miterlimit:4;stroke-opacity:1;stroke-dasharray:none;stroke-dashoffset:20" />
    <path
       d="m 201.99416,19260.99 a 4.8134775,4.8134775 0 1 1 -9.62696,0 4.8134775,4.8134775 0 1 1 9.62696,0 z"
       transform="translate(-303.5672,-18531.569)"
       id="path5504"
       style="fill:#000000;fill-opacity:1;stroke:#000000;stroke-width:1;stroke-linecap:butt;stroke-linejoin:miter;stroke-miterlimit:4;stroke-opacity:1;stroke-dasharray:none;stroke-dashoffset:20" />
    <path
       d="m 201.99416,19260.99 a 4.8134775,4.8134775 0 1 1 -9.62696,0 4.8134775,4.8134775 0 1 1 9.62696,0 z"
       transform="translate(-283.96947,-18531.569)"
       id="path5506"
       style="fill:#000000;fill-opacity:1;stroke:#000000;stroke-width:1;stroke-linecap:butt;stroke-linejoin:miter;stroke-miterlimit:4;stroke-opacity:1;stroke-dasharray:none;stroke-dashoffset:20" />
  </g>
</svg>
