<?xml version="1.0" encoding="UTF-8" standalone="no"?>
<!-- Created with Inkscape (http://www.inkscape.org/) -->

<svg
   xmlns:dc="http://purl.org/dc/elements/1.1/"
   xmlns:cc="http://creativecommons.org/ns#"
   xmlns:rdf="http://www.w3.org/1999/02/22-rdf-syntax-ns#"
   xmlns:svg="http://www.w3.org/2000/svg"
   xmlns="http://www.w3.org/2000/svg"
   xmlns:xlink="http://www.w3.org/1999/xlink"
   xmlns:sodipodi="http://sodipodi.sourceforge.net/DTD/sodipodi-0.dtd"
   xmlns:inkscape="http://www.inkscape.org/namespaces/inkscape"
   version="1.1"
   width="1920"
   height="1080"
   id="svg3726"
   inkscape:version="0.48.5 r10040"
   sodipodi:docname="Nintendo_NES_diagram.svg">
  <sodipodi:namedview
     pagecolor="#ffffff"
     bordercolor="#666666"
     borderopacity="1"
     objecttolerance="10"
     gridtolerance="10"
     guidetolerance="10"
     inkscape:pageopacity="0"
     inkscape:pageshadow="2"
     inkscape:window-width="1366"
     inkscape:window-height="706"
     id="namedview29"
     showgrid="false"
     inkscape:zoom="0.33199906"
     inkscape:cx="989.30122"
     inkscape:cy="572.52419"
     inkscape:window-x="-8"
     inkscape:window-y="-8"
     inkscape:window-maximized="1"
     inkscape:current-layer="svg3726"
     inkscape:snap-global="true"
     inkscape:snap-bbox="true"
     inkscape:snap-grids="true">
    <inkscape:grid
       type="xygrid"
       id="grid3792"
       empspacing="5"
       visible="true"
       enabled="true"
       snapvisiblegridlinesonly="true" />
  </sodipodi:namedview>
  <defs
     id="defs3728">
    <marker
       inkscape:stockid="DotM"
       orient="auto"
       refY="0.0"
       refX="0.0"
       id="DotM"
       style="overflow:visible">
      <path
         id="path4711"
         d="M -2.5,-1.0 C -2.5,1.7600000 -4.7400000,4.0 -7.5,4.0 C -10.260000,4.0 -12.5,1.7600000 -12.5,-1.0 C -12.5,-3.7600000 -10.260000,-6.0 -7.5,-6.0 C -4.7400000,-6.0 -2.5,-3.7600000 -2.5,-1.0 z "
         style="fill-rule:evenodd;stroke:#000000;stroke-width:1.0pt"
         transform="scale(0.4) translate(7.4, 1)" />
    </marker>
    <marker
       inkscape:stockid="DotL"
       orient="auto"
       refY="0"
       refX="0"
       id="DotL"
       style="overflow:visible">
      <path
         id="path5126"
         d="m -2.5,-1 c 0,2.76 -2.24,5 -5,5 -2.76,0 -5,-2.24 -5,-5 0,-2.76 2.24,-5 5,-5 2.76,0 5,2.24 5,5 z"
         style="fill-rule:evenodd;stroke:#000000;stroke-width:1pt"
         transform="matrix(0.8,0,0,0.8,5.92,0.8)"
         inkscape:connector-curvature="0" />
    </marker>
    <radialGradient
       cx="404.85159"
       cy="658.8125"
       r="28.365055"
       fx="404.85159"
       fy="658.8125"
       id="radialGradient4155"
       xlink:href="#linearGradient4145"
       gradientUnits="userSpaceOnUse"
       gradientTransform="matrix(0.59278952,0,0,0.59278952,-288.37359,40.008458)" />
    <linearGradient
       id="linearGradient4145">
      <stop
         id="stop4147"
         style="stop-color:#a20000;stop-opacity:1"
         offset="0" />
      <stop
         id="stop4149"
         style="stop-color:#ff0000;stop-opacity:1"
         offset="1" />
    </linearGradient>
    <radialGradient
       cx="404.85159"
       cy="658.8125"
       r="28.365055"
       fx="404.85159"
       fy="658.8125"
       id="radialGradient4143"
       xlink:href="#linearGradient4145"
       gradientUnits="userSpaceOnUse"
       gradientTransform="matrix(0.59278952,0,0,0.59278952,-252.74247,40.008458)" />
    <linearGradient
       id="linearGradient3705">
      <stop
         id="stop3707"
         style="stop-color:#a20000;stop-opacity:1"
         offset="0" />
      <stop
         id="stop3709"
         style="stop-color:#ff0000;stop-opacity:1"
         offset="1" />
    </linearGradient>
    <marker
       inkscape:stockid="DotM"
       orient="auto"
       refY="0"
       refX="0"
       id="DotM-1"
       style="overflow:visible">
      <path
         inkscape:connector-curvature="0"
         id="path4711-7"
         d="m -2.5,-1 c 0,2.76 -2.24,5 -5,5 -2.76,0 -5,-2.24 -5,-5 0,-2.76 2.24,-5 5,-5 2.76,0 5,2.24 5,5 z"
         style="fill-rule:evenodd;stroke:#000000;stroke-width:1pt"
         transform="matrix(0.4,0,0,0.4,2.96,0.4)" />
    </marker>
    <filter
       id="filter6251"
       inkscape:label="filter1">
      <feMorphology
         id="feMorphology6253"
         operator="dilate"
         radius="1" />
    </filter>
    <marker
       inkscape:stockid="DotM"
       orient="auto"
       refY="0"
       refX="0"
       id="DotM-1-2"
       style="overflow:visible">
      <path
         inkscape:connector-curvature="0"
         id="path4711-7-2"
         d="m -2.5,-1 c 0,2.76 -2.24,5 -5,5 -2.76,0 -5,-2.24 -5,-5 0,-2.76 2.24,-5 5,-5 2.76,0 5,2.24 5,5 z"
         style="fill-rule:evenodd;stroke:#000000;stroke-width:1pt"
         transform="matrix(0.4,0,0,0.4,2.96,0.4)" />
    </marker>
    <marker
       inkscape:stockid="DotM"
       orient="auto"
       refY="0"
       refX="0"
       id="DotM-1-6"
       style="overflow:visible">
      <path
         inkscape:connector-curvature="0"
         id="path4711-7-8"
         d="m -2.5,-1 c 0,2.76 -2.24,5 -5,5 -2.76,0 -5,-2.24 -5,-5 0,-2.76 2.24,-5 5,-5 2.76,0 5,2.24 5,5 z"
         style="fill-rule:evenodd;stroke:#000000;stroke-width:1pt"
         transform="matrix(0.4,0,0,0.4,2.96,0.4)" />
    </marker>
    <marker
       inkscape:stockid="DotM"
       orient="auto"
       refY="0"
       refX="0"
       id="DotM-1-7"
       style="overflow:visible">
      <path
         inkscape:connector-curvature="0"
         id="path4711-7-6"
         d="m -2.5,-1 c 0,2.76 -2.24,5 -5,5 -2.76,0 -5,-2.24 -5,-5 0,-2.76 2.24,-5 5,-5 2.76,0 5,2.24 5,5 z"
         style="fill-rule:evenodd;stroke:#000000;stroke-width:1pt"
         transform="matrix(0.4,0,0,0.4,2.96,0.4)" />
    </marker>
    <marker
       inkscape:stockid="DotM"
       orient="auto"
       refY="0"
       refX="0"
       id="DotM-1-8"
       style="overflow:visible">
      <path
         inkscape:connector-curvature="0"
         id="path4711-7-9"
         d="m -2.5,-1 c 0,2.76 -2.24,5 -5,5 -2.76,0 -5,-2.24 -5,-5 0,-2.76 2.24,-5 5,-5 2.76,0 5,2.24 5,5 z"
         style="fill-rule:evenodd;stroke:#000000;stroke-width:1pt"
         transform="matrix(0.4,0,0,0.4,2.96,0.4)" />
    </marker>
    <marker
       inkscape:stockid="DotM"
       orient="auto"
       refY="0"
       refX="0"
       id="DotM-1-79"
       style="overflow:visible">
      <path
         inkscape:connector-curvature="0"
         id="path4711-7-5"
         d="m -2.5,-1 c 0,2.76 -2.24,5 -5,5 -2.76,0 -5,-2.24 -5,-5 0,-2.76 2.24,-5 5,-5 2.76,0 5,2.24 5,5 z"
         style="fill-rule:evenodd;stroke:#000000;stroke-width:1pt"
         transform="matrix(0.4,0,0,0.4,2.96,0.4)" />
    </marker>
    <marker
       inkscape:stockid="DotM"
       orient="auto"
       refY="0"
       refX="0"
       id="DotM-1-3"
       style="overflow:visible">
      <path
         inkscape:connector-curvature="0"
         id="path4711-7-1"
         d="m -2.5,-1 c 0,2.76 -2.24,5 -5,5 -2.76,0 -5,-2.24 -5,-5 0,-2.76 2.24,-5 5,-5 2.76,0 5,2.24 5,5 z"
         style="fill-rule:evenodd;stroke:#000000;stroke-width:1pt"
         transform="matrix(0.4,0,0,0.4,2.96,0.4)" />
    </marker>
    <marker
       inkscape:stockid="DotM"
       orient="auto"
       refY="0"
       refX="0"
       id="DotM-1-33"
       style="overflow:visible">
      <path
         inkscape:connector-curvature="0"
         id="path4711-7-4"
         d="m -2.5,-1 c 0,2.76 -2.24,5 -5,5 -2.76,0 -5,-2.24 -5,-5 0,-2.76 2.24,-5 5,-5 2.76,0 5,2.24 5,5 z"
         style="fill-rule:evenodd;stroke:#000000;stroke-width:1pt"
         transform="matrix(0.4,0,0,0.4,2.96,0.4)" />
    </marker>
  </defs>
  <metadata
     id="metadata3731">
    <rdf:RDF>
      <cc:Work
         rdf:about="">
        <dc:format>image/svg+xml</dc:format>
        <dc:type
           rdf:resource="http://purl.org/dc/dcmitype/StillImage" />
        <dc:title></dc:title>
      </cc:Work>
    </rdf:RDF>
  </metadata>
  <g
     transform="matrix(1.982676,0,0,1.982676,2080.1237,-335.08934)"
     id="layer1">
    <rect
       width="672.02454"
       height="292.77817"
       rx="7.7062635"
       ry="7.7062635"
       x="-764.58368"
       y="243.11595"
       id="rect4131"
       style="fill:#b3b3b3;fill-opacity:1;stroke:#000000;stroke-width:1;stroke-linecap:butt;stroke-linejoin:miter;stroke-miterlimit:4;stroke-opacity:1;stroke-dasharray:none;stroke-dashoffset:0" />
    <rect
       width="633.34143"
       height="225.27232"
       rx="2.9639478"
       ry="2.9639478"
       x="-745.6214"
       y="289.38403"
       id="rect4135"
       style="fill:#333333;fill-opacity:1;stroke:#000000;stroke-width:1;stroke-linecap:butt;stroke-linejoin:miter;stroke-miterlimit:4;stroke-opacity:1;stroke-dasharray:none;stroke-dashoffset:0" />
    <rect
       width="187.3477"
       height="67.505836"
       rx="7.7062635"
       ry="7.7062635"
       x="-546.13782"
       y="415.29382"
       id="rect4133"
       style="fill:#b3b3b3;fill-opacity:1;stroke:#000000;stroke-width:1;stroke-linecap:butt;stroke-linejoin:miter;stroke-miterlimit:4;stroke-opacity:1;stroke-dasharray:none;stroke-dashoffset:0" />
    <rect
       width="75.849297"
       height="72.815292"
       rx="2.9639478"
       ry="2.9639478"
       x="-329.96741"
       y="411.50134"
       id="rect4137"
       style="fill:#b3b3b3;fill-opacity:1;stroke:#000000;stroke-width:1;stroke-linecap:butt;stroke-linejoin:miter;stroke-miterlimit:4;stroke-opacity:1;stroke-dasharray:none;stroke-dashoffset:0" />
    <path
       d="m 432.71665,658.8125 a 27.865055,27.865055 0 1 1 -55.73011,0 27.865055,27.865055 0 1 1 55.73011,0 z"
       transform="translate(-696.89433,-210.90352)"
       id="path4141"
       style="fill:url(#radialGradient4143);fill-opacity:1;stroke:#000000;stroke-width:1;stroke-linecap:round;stroke-linejoin:round;stroke-miterlimit:4;stroke-opacity:1;stroke-dasharray:none"
       inkscape:connector-curvature="0" />
    <rect
       width="75.849297"
       height="72.815292"
       rx="2.9639478"
       ry="2.9639478"
       x="-242.46687"
       y="411.50134"
       id="rect4151"
       style="fill:#b3b3b3;fill-opacity:1;stroke:#000000;stroke-width:1.000036;stroke-linecap:butt;stroke-linejoin:miter;stroke-miterlimit:4;stroke-opacity:1;stroke-dasharray:none;stroke-dashoffset:0" />
    <path
       d="m 432.71665,658.8125 a 27.865055,27.865055 0 1 1 -55.73011,0 27.865055,27.865055 0 1 1 55.73011,0 z"
       transform="translate(-609.39384,-210.90352)"
       id="path4153"
       style="fill:url(#radialGradient4155);fill-opacity:1;stroke:#000000;stroke-width:1;stroke-linecap:round;stroke-linejoin:round;stroke-miterlimit:4;stroke-opacity:1;stroke-dasharray:none"
       inkscape:connector-curvature="0" />
    <rect
       width="52.937737"
       height="22.86083"
       rx="7.1134744"
       ry="7.1134744"
       x="-522.39044"
       y="437.14136"
       id="rect4157"
       style="fill:#333333;fill-opacity:1;stroke:#000000;stroke-width:1;stroke-linecap:butt;stroke-linejoin:miter;stroke-miterlimit:4;stroke-opacity:1;stroke-dasharray:none;stroke-dashoffset:0" />
    <rect
       width="52.937737"
       height="22.86083"
       rx="7.1134744"
       ry="7.1134744"
       x="-435.00024"
       y="437.14136"
       id="rect4159"
       style="fill:#333333;fill-opacity:1;stroke:#000000;stroke-width:1;stroke-linecap:butt;stroke-linejoin:miter;stroke-miterlimit:4;stroke-opacity:1;stroke-dasharray:none;stroke-dashoffset:0" />
    <path
       d="m -668.62583,350.95246 c -2.77,0 -5,2.2301 -5,5 l 0,32.9376 -32.90625,0 c -2.77,0 -5,2.23 -5,5 l 0,44.125 c 0,2.7699 2.23,5 5,5 l 32.90625,0 0,32.9374 c 0,2.77 2.23,5 5,5 l 44.15625,0 c 2.77,0 5,-2.23 5,-5 l 0,-32.9374 32.90625,0 c 2.77,0 5,-2.2301 5,-5 l 0,-44.125 c 0,-2.77 -2.23,-5 -5,-5 l -32.90625,0 0,-32.9376 c 0,-2.7699 -2.23,-5 -5,-5 l -44.15625,0 z"
       id="rect4161"
       style="fill:none;stroke:#999999;stroke-width:3;stroke-linecap:butt;stroke-linejoin:miter;stroke-miterlimit:4;stroke-opacity:1;stroke-dasharray:none;stroke-dashoffset:0"
       inkscape:connector-curvature="0" />
    <path
       d="m -667.46958,354.60876 c -1.108,0 -2,0.892 -2,2 l 0,36.4375 -36.40625,0 c -1.108,0 -2,0.892 -2,2 l 0,41.3438 c 0,1.1079 0.892,2 2,2 l 36.40625,0 0,36.4062 c 0,1.108 0.892,2 2,2 l 41.375,0 c 1.108,0 2,-0.892 2,-2 l 0,-36.4062 36.40625,0 c 1.108,0 2,-0.8921 2,-2 l 0,-41.3438 c 0,-1.108 -0.892,-2 -2,-2 l -36.40625,0 0,-36.4375 c 0,-1.108 -0.892,-2 -2,-2 l -41.375,0 z"
       id="rect4166"
       style="fill:#1e1e1e;fill-opacity:1;stroke:#000000;stroke-width:1;stroke-linecap:butt;stroke-linejoin:miter;stroke-miterlimit:4;stroke-opacity:1;stroke-dasharray:none;stroke-dashoffset:0"
       inkscape:connector-curvature="0" />
    <rect
       width="187.3477"
       height="31.12538"
       rx="7.7062635"
       ry="7.7062635"
       x="-546.13782"
       y="375.74988"
       id="rect4172"
       style="fill:#78766a;fill-opacity:1;stroke:#000000;stroke-width:1;stroke-linecap:butt;stroke-linejoin:miter;stroke-miterlimit:4;stroke-opacity:1;stroke-dasharray:none;stroke-dashoffset:0" />
    <rect
       width="187.3477"
       height="31.12538"
       rx="7.7062635"
       ry="7.7062635"
       x="-546.13782"
       y="334.09692"
       id="rect4174"
       style="fill:#78766a;fill-opacity:1;stroke:#000000;stroke-width:1;stroke-linecap:butt;stroke-linejoin:miter;stroke-miterlimit:4;stroke-opacity:1;stroke-dasharray:none;stroke-dashoffset:0" />
    <path
       d="m -358.79009,289.5478 0,19.9754 c 0,7.202 -5.798,13 -13,13 l -161.3477,0 c -7.202,0 -13,-5.798 -13,-13 l 0,-19.9754 z"
       id="rect4176"
       style="fill:#78766a;fill-opacity:1;stroke:#000000;stroke-width:1;stroke-linecap:butt;stroke-linejoin:miter;stroke-miterlimit:4;stroke-opacity:1;stroke-dashoffset:0"
       inkscape:connector-curvature="0" />
    <path
       d="m -533.13779,496.31811 161.3477,0 c 7.202,0 13,5.798 13,13 l 0,5.1253 -187.3477,0 0,-5.1253 c 0,-7.202 5.798,-13 13,-13 z"
       id="rect4178"
       style="fill:#78766a;fill-opacity:1;stroke:#000000;stroke-width:1;stroke-linecap:butt;stroke-linejoin:miter;stroke-miterlimit:4;stroke-opacity:1;stroke-dashoffset:0"
       inkscape:connector-curvature="0" />
  </g>
  <g
     inkscape:groupmode="layer"
     id="layer2"
     inkscape:label="Annotations"
     transform="translate(0,786.21875)" />
  <path
     style="fill:none;stroke:#000000;stroke-width:8.22716713;stroke-linecap:butt;stroke-linejoin:miter;stroke-miterlimit:4;stroke-opacity:1;stroke-dasharray:none;marker-start:url(#DotM-1);marker-end:none"
     d="m 798.82565,405.63652 0,-64.64203 -401.96633,0"
     id="path5113"
     inkscape:connector-curvature="0"
     sodipodi:nodetypes="ccc" />
  <g
     id="g6430"
     transform="matrix(1.1753096,0,0,1.1753096,45.757559,-139.54541)">
    <rect
       rx="8.0921574"
       ry="9.7497978"
       y="367.0589"
       x="19.222054"
       height="90.334206"
       width="326.25293"
       id="rect3010"
       style="fill:#efefef;fill-opacity:1;stroke:#777777;stroke-width:2.53900003;stroke-linejoin:miter;stroke-miterlimit:32.40000153;stroke-opacity:1;stroke-dasharray:none;stroke-dashoffset:0" />
    <text
       sodipodi:linespacing="125%"
       id="text3878"
       y="426.36661"
       x="114.76841"
       style="font-size:40px;font-style:normal;font-weight:300;line-height:125%;letter-spacing:0px;word-spacing:0px;fill:#000000;fill-opacity:1;stroke:#777777;stroke-width:2;stroke-miterlimit:32.40000153;stroke-opacity:1;stroke-dasharray:none;stroke-dashoffset:0;font-family:Open Sans Light;-inkscape-font-specification:'Open Sans Light, Light'"
       xml:space="preserve"><tspan
         style="font-style:normal;font-weight:300;fill:#777777;fill-opacity:1;stroke:#777777;stroke-width:2;stroke-miterlimit:32.40000153;stroke-opacity:1;stroke-dasharray:none;stroke-dashoffset:0;-inkscape-font-specification:'Open Sans Light, Light'"
         y="426.36661"
         x="114.76841"
         id="tspan3880"
         sodipodi:role="line">D-PAD UP</tspan></text>
    <g
       transform="matrix(1.9490067,0,0,1.9490067,23.973023,376.11089)"
       id="g3827">
      <g
         id="g3829">
        <g
           id="g3831">
          <path
             style="fill:#777777"
             inkscape:connector-curvature="0"
             d="m 22.086,37.06 h -7.111 c -2.289,0 -3.119,-1.866 -3.119,-3.121 V 25.207 H 3.121 C 0.831,25.206 0,23.34 0,22.085 v -7.11 c 0,-2.289 1.867,-3.12 3.121,-3.12 h 8.733 V 3.121 C 11.855,0.831 13.72,0 14.974,0 h 7.111 c 2.29,0 3.121,1.867 3.121,3.121 v 8.732 h 8.731 c 2.29,0 3.121,1.865 3.121,3.12 v 7.11 c 0,2.29 -1.866,3.121 -3.121,3.121 h -8.731 v 8.732 c 0.001,2.293 -1.865,3.124 -3.12,3.124 z M 3.121,13.354 C 2.745,13.359 1.5,13.493 1.5,14.974 v 7.11 c 0.006,0.376 0.139,1.621 1.621,1.621 h 10.233 v 10.232 c 0.005,0.376 0.14,1.621 1.619,1.621 h 7.108 c 0.384,-0.007 1.624,-0.143 1.624,-1.621 V 23.706 h 10.231 c 0.376,-0.006 1.621,-0.14 1.621,-1.621 v -7.11 c -0.006,-0.376 -0.14,-1.62 -1.621,-1.62 H 23.706 V 3.121 C 23.701,2.745 23.567,1.5 22.086,1.5 h -7.111 c -0.376,0.006 -1.619,0.14 -1.619,1.621 v 10.232 l -10.235,10e-4 0,0 z"
             id="path3833" />
        </g>
      </g>
      <g
         id="g3835">
        <path
           style="fill:#777777"
           inkscape:connector-curvature="0"
           d="m 18.531,22.181 c -2.013,0 -3.649,-1.639 -3.649,-3.651 0,-2.012 1.638,-3.65 3.649,-3.65 2.013,0 3.65,1.639 3.65,3.65 10e-4,2.013 -1.637,3.651 -3.65,3.651 z m 0,-5.802 c -1.186,0 -2.149,0.965 -2.149,2.15 0,1.185 0.965,2.151 2.149,2.151 1.186,0 2.15,-0.966 2.15,-2.151 10e-4,-1.185 -0.964,-2.15 -2.15,-2.15 z"
           id="path3837" />
      </g>
      <g
         id="g3839">
        <path
           style="fill:#777777"
           inkscape:connector-curvature="0"
           d="m 18.53,3.183 -3.005,4.684 h 6.012 L 18.53,3.183 z"
           id="path3841" />
        <path
           style="fill:#777777"
           inkscape:connector-curvature="0"
           d="m 21.536,8.616 h -6.012 c -0.273,0 -0.525,-0.15 -0.657,-0.39 C 14.735,7.985 14.746,7.692 14.893,7.46 l 3.005,-4.684 c 0.276,-0.431 0.986,-0.43 1.264,0 l 3.005,4.684 c 0.147,0.231 0.159,0.524 0.026,0.766 -0.13,0.24 -0.382,0.39 -0.657,0.39 z m -4.639,-1.5 h 3.268 L 18.53,4.571 16.897,7.116 z"
           id="path3843" />
      </g>
      <g
         id="g3845">
        <path
           style="fill:#777777"
           inkscape:connector-curvature="0"
           d="m 7.809,22.284 c -0.141,0 -0.282,-0.04 -0.405,-0.119 L 2.72,19.162 C 2.505,19.024 2.375,18.786 2.375,18.531 c 0,-0.255 0.13,-0.493 0.345,-0.631 l 4.684,-3.006 c 0.23,-0.148 0.524,-0.158 0.766,-0.027 0.24,0.131 0.39,0.384 0.39,0.658 v 6.01 c 0,0.274 -0.148,0.526 -0.39,0.658 -0.114,0.061 -0.238,0.091 -0.361,0.091 z M 4.514,18.53 7.059,20.162 V 16.897 L 4.514,18.53 z"
           id="path3847" />
      </g>
      <g
         id="g3849">
        <path
           style="fill:#777777"
           inkscape:connector-curvature="0"
           d="m 29.195,22.284 c -0.124,0 -0.246,-0.03 -0.358,-0.092 -0.241,-0.132 -0.392,-0.384 -0.392,-0.658 v -6.01 c 0,-0.274 0.149,-0.526 0.392,-0.658 0.239,-0.131 0.533,-0.123 0.765,0.027 l 4.685,3.005 c 0.215,0.138 0.345,0.376 0.345,0.631 0,0.255 -0.13,0.493 -0.345,0.631 l -4.685,3.004 c -0.124,0.08 -0.266,0.12 -0.407,0.12 z m 0.75,-5.388 v 3.266 l 2.546,-1.633 -2.546,-1.633 z"
           id="path3851" />
      </g>
      <g
         id="g3853">
        <path
           style="fill:#777777"
           inkscape:connector-curvature="0"
           d="m 18.53,34.626 0,0 c -0.255,0 -0.492,-0.13 -0.631,-0.345 L 14.894,29.597 C 14.747,29.366 14.736,29.073 14.868,28.831 15,28.589 15.252,28.44 15.525,28.44 h 6.012 c 0.273,0 0.525,0.148 0.657,0.391 0.133,0.24 0.121,0.533 -0.026,0.766 l -3.005,4.684 c -0.14,0.215 -0.377,0.345 -0.633,0.345 z m -1.633,-4.684 1.633,2.545 1.635,-2.545 h -3.268 z"
           id="path3855" />
      </g>
    </g>
  </g>
  <path
     style="fill:none;stroke:#000000;stroke-width:8.22716713;stroke-linecap:butt;stroke-linejoin:miter;stroke-miterlimit:4;stroke-opacity:1;stroke-dasharray:none;marker-start:url(#DotM-1)"
     d="m 710.67742,487.90819 -279.47457,0"
     id="path5859"
     inkscape:connector-curvature="0"
     sodipodi:nodetypes="cc" />
  <g
     id="g6450"
     transform="matrix(1.1753096,0,0,1.1753096,45.757549,-112.0099)">
    <rect
       rx="7.7155509"
       ry="9.7568998"
       y="470.31415"
       x="19.222176"
       height="90.333786"
       width="326.25278"
       id="rect3010-1-7"
       style="fill:#efefef;fill-opacity:1;stroke:#777777;stroke-width:2.53921366;stroke-linejoin:miter;stroke-miterlimit:4;stroke-opacity:1;stroke-dasharray:none" />
    <g
       transform="matrix(1.9489989,0,0,1.9490016,23.973023,479.36603)"
       id="g4375">
      <g
         id="g4377">
        <g
           id="g4379">
          <path
             style="fill:#777777"
             inkscape:connector-curvature="0"
             d="m 22.086,37.06 h -7.111 c -2.289,0 -3.119,-1.866 -3.119,-3.121 V 25.207 H 3.121 C 0.831,25.206 0,23.34 0,22.085 v -7.11 c 0,-2.289 1.867,-3.12 3.121,-3.12 h 8.733 V 3.121 C 11.855,0.831 13.72,0 14.974,0 h 7.111 c 2.29,0 3.121,1.867 3.121,3.121 v 8.732 h 8.731 c 2.29,0 3.121,1.865 3.121,3.12 v 7.11 c 0,2.29 -1.866,3.121 -3.121,3.121 h -8.731 v 8.732 c 0.001,2.293 -1.865,3.124 -3.12,3.124 z M 3.121,13.354 C 2.745,13.359 1.5,13.493 1.5,14.974 v 7.11 c 0.006,0.376 0.139,1.621 1.621,1.621 h 10.233 v 10.232 c 0.005,0.376 0.14,1.621 1.619,1.621 h 7.108 c 0.384,-0.007 1.624,-0.143 1.624,-1.621 V 23.706 h 10.231 c 0.376,-0.006 1.621,-0.14 1.621,-1.621 v -7.11 c -0.006,-0.376 -0.14,-1.62 -1.621,-1.62 H 23.706 V 3.121 C 23.701,2.745 23.567,1.5 22.086,1.5 h -7.111 c -0.376,0.006 -1.619,0.14 -1.619,1.621 v 10.232 l -10.235,10e-4 0,0 z"
             id="path4381" />
        </g>
      </g>
      <g
         id="g4383">
        <path
           style="fill:#777777"
           inkscape:connector-curvature="0"
           d="m 18.531,22.181 c -2.013,0 -3.649,-1.639 -3.649,-3.651 0,-2.012 1.638,-3.65 3.649,-3.65 2.013,0 3.65,1.639 3.65,3.65 10e-4,2.013 -1.637,3.651 -3.65,3.651 z m 0,-5.802 c -1.186,0 -2.149,0.965 -2.149,2.15 0,1.185 0.965,2.151 2.149,2.151 1.186,0 2.15,-0.966 2.15,-2.151 10e-4,-1.185 -0.964,-2.15 -2.15,-2.15 z"
           id="path4385" />
      </g>
      <g
         id="g4387">
        <path
           style="fill:#777777"
           inkscape:connector-curvature="0"
           d="m 21.536,8.616 h -6.012 c -0.273,0 -0.525,-0.15 -0.657,-0.39 C 14.735,7.985 14.746,7.692 14.893,7.46 l 3.005,-4.684 c 0.276,-0.431 0.986,-0.43 1.264,0 l 3.005,4.684 c 0.147,0.231 0.159,0.524 0.026,0.766 -0.13,0.24 -0.382,0.39 -0.657,0.39 z m -4.639,-1.5 h 3.268 L 18.53,4.571 16.897,7.116 z"
           id="path4389" />
      </g>
      <g
         id="g4391">
        <path
           style="fill:#777777"
           inkscape:connector-curvature="0"
           d="m 3.125,18.53 4.684,3.004 v -6.01 L 3.125,18.53 z"
           id="path4393" />
        <path
           style="fill:#777777"
           inkscape:connector-curvature="0"
           d="m 7.809,22.284 c -0.141,0 -0.282,-0.04 -0.405,-0.119 L 2.72,19.162 C 2.505,19.024 2.375,18.786 2.375,18.531 c 0,-0.255 0.13,-0.493 0.345,-0.631 l 4.684,-3.006 c 0.23,-0.148 0.524,-0.158 0.766,-0.027 0.24,0.131 0.39,0.384 0.39,0.658 v 6.01 c 0,0.274 -0.148,0.526 -0.39,0.658 -0.114,0.061 -0.238,0.091 -0.361,0.091 z M 4.514,18.53 7.059,20.162 V 16.897 L 4.514,18.53 z"
           id="path4395" />
      </g>
      <g
         id="g4397">
        <path
           style="fill:#777777"
           inkscape:connector-curvature="0"
           d="m 29.195,22.284 c -0.124,0 -0.246,-0.03 -0.358,-0.092 -0.241,-0.132 -0.392,-0.384 -0.392,-0.658 v -6.01 c 0,-0.274 0.149,-0.526 0.392,-0.658 0.239,-0.131 0.533,-0.123 0.765,0.027 l 4.685,3.005 c 0.215,0.138 0.345,0.376 0.345,0.631 0,0.255 -0.13,0.493 -0.345,0.631 l -4.685,3.004 c -0.124,0.08 -0.266,0.12 -0.407,0.12 z m 0.75,-5.388 v 3.266 l 2.546,-1.633 -2.546,-1.633 z"
           id="path4399" />
      </g>
      <g
         id="g4401">
        <path
           style="fill:#777777"
           inkscape:connector-curvature="0"
           d="m 18.53,34.626 0,0 c -0.255,0 -0.492,-0.13 -0.631,-0.345 L 14.894,29.597 C 14.747,29.366 14.736,29.073 14.868,28.831 15,28.589 15.252,28.44 15.525,28.44 h 6.012 c 0.273,0 0.525,0.148 0.657,0.391 0.133,0.24 0.121,0.533 -0.026,0.766 l -3.005,4.684 c -0.14,0.215 -0.377,0.345 -0.633,0.345 z m -1.633,-4.684 1.633,2.545 1.635,-2.545 h -3.268 z"
           id="path4403" />
      </g>
    </g>
    <text
       sodipodi:linespacing="125%"
       id="text3878-7-6"
       y="529.81696"
       x="114.76841"
       style="font-size:40px;font-style:normal;font-weight:normal;line-height:125%;letter-spacing:0px;word-spacing:0px;fill:#000000;fill-opacity:1;stroke:#777777;stroke-width:2;stroke-miterlimit:4;stroke-opacity:1;stroke-dasharray:none;font-family:Open Sans Light;-inkscape-font-specification:Open Sans Light"
       xml:space="preserve"><tspan
         style="fill:#777777;fill-opacity:1;stroke:#777777;stroke-width:2;stroke-miterlimit:4;stroke-opacity:1;stroke-dasharray:none"
         y="529.81696"
         x="114.76841"
         id="tspan3880-4-1"
         sodipodi:role="line">D-PAD LEFT</tspan></text>
  </g>
  <path
     style="fill:none;stroke:#000000;stroke-width:8.22716713;stroke-linecap:butt;stroke-linejoin:miter;stroke-miterlimit:4;stroke-opacity:1;stroke-dasharray:none;marker-start:url(#DotM-1);marker-end:none"
     d="m 800.44507,580.29983 0,64.64203 -305.5805,0"
     id="path5113-5"
     inkscape:connector-curvature="0" />
  <g
     id="g6470"
     transform="matrix(1.1753096,0,0,1.1753096,45.757549,-94.150919)">
    <rect
       rx="7.9896955"
       ry="9.7537479"
       y="585.60773"
       x="19.316418"
       height="90.145302"
       width="377.27231"
       id="rect3010-1"
       style="fill:#efefef;fill-opacity:1;stroke:#777777;stroke-width:2.72769618;stroke-linejoin:miter;stroke-miterlimit:4;stroke-opacity:1;stroke-dasharray:none" />
    <text
       sodipodi:linespacing="125%"
       id="text3878-7"
       y="644.98706"
       x="114.76841"
       style="font-size:40px;font-style:normal;font-weight:normal;line-height:125%;letter-spacing:0px;word-spacing:0px;fill:#000000;fill-opacity:1;stroke:#777777;stroke-width:2;stroke-miterlimit:4;stroke-opacity:1;stroke-dasharray:none;font-family:Open Sans Light;-inkscape-font-specification:Open Sans Light"
       xml:space="preserve"><tspan
         style="fill:#777777;fill-opacity:1;stroke:#777777;stroke-width:2;stroke-miterlimit:4;stroke-opacity:1;stroke-dasharray:none"
         y="644.98706"
         x="114.76841"
         id="tspan3880-4"
         sodipodi:role="line">D-PAD DOWN</tspan></text>
    <g
       transform="matrix(1.9479339,0,0,1.9490016,23.973023,594.56539)"
       id="g4108">
      <g
         id="g4110">
        <g
           id="g4112">
          <path
             style="fill:#777777"
             inkscape:connector-curvature="0"
             d="m 22.086,37.06 h -7.111 c -2.289,0 -3.119,-1.866 -3.119,-3.121 V 25.207 H 3.121 C 0.831,25.206 0,23.34 0,22.085 v -7.11 c 0,-2.289 1.867,-3.12 3.121,-3.12 h 8.733 V 3.121 C 11.855,0.831 13.72,0 14.974,0 h 7.111 c 2.29,0 3.121,1.867 3.121,3.121 v 8.732 h 8.731 c 2.29,0 3.121,1.865 3.121,3.12 v 7.11 c 0,2.29 -1.866,3.121 -3.121,3.121 h -8.731 v 8.732 c 0.001,2.293 -1.865,3.124 -3.12,3.124 z M 3.121,13.354 C 2.745,13.359 1.5,13.493 1.5,14.974 v 7.11 c 0.006,0.376 0.139,1.621 1.621,1.621 h 10.233 v 10.232 c 0.005,0.376 0.14,1.621 1.619,1.621 h 7.108 c 0.384,-0.007 1.624,-0.143 1.624,-1.621 V 23.706 h 10.231 c 0.376,-0.006 1.621,-0.14 1.621,-1.621 v -7.11 c -0.006,-0.376 -0.14,-1.62 -1.621,-1.62 H 23.706 V 3.121 C 23.701,2.745 23.567,1.5 22.086,1.5 h -7.111 c -0.376,0.006 -1.619,0.14 -1.619,1.621 v 10.232 l -10.235,10e-4 0,0 z"
             id="path4114" />
        </g>
      </g>
      <g
         id="g4116">
        <path
           style="fill:#777777"
           inkscape:connector-curvature="0"
           d="m 18.531,22.181 c -2.013,0 -3.649,-1.639 -3.649,-3.651 0,-2.012 1.638,-3.65 3.649,-3.65 2.013,0 3.65,1.639 3.65,3.65 10e-4,2.013 -1.637,3.651 -3.65,3.651 z m 0,-5.802 c -1.186,0 -2.149,0.965 -2.149,2.15 0,1.185 0.965,2.151 2.149,2.151 1.186,0 2.15,-0.966 2.15,-2.151 10e-4,-1.185 -0.964,-2.15 -2.15,-2.15 z"
           id="path4118" />
      </g>
      <g
         id="g4120">
        <path
           style="fill:#777777"
           inkscape:connector-curvature="0"
           d="m 21.536,8.616 h -6.012 c -0.273,0 -0.525,-0.15 -0.657,-0.39 C 14.735,7.985 14.746,7.692 14.893,7.46 l 3.005,-4.684 c 0.276,-0.431 0.986,-0.43 1.264,0 l 3.005,4.684 c 0.147,0.231 0.159,0.524 0.026,0.766 -0.13,0.24 -0.382,0.39 -0.657,0.39 z m -4.639,-1.5 h 3.268 L 18.53,4.571 16.897,7.116 z"
           id="path4122" />
      </g>
      <g
         id="g4124">
        <path
           style="fill:#777777"
           inkscape:connector-curvature="0"
           d="m 7.809,22.284 c -0.141,0 -0.282,-0.04 -0.405,-0.119 L 2.72,19.162 C 2.505,19.024 2.375,18.786 2.375,18.531 c 0,-0.255 0.13,-0.493 0.345,-0.631 l 4.684,-3.006 c 0.23,-0.148 0.524,-0.158 0.766,-0.027 0.24,0.131 0.39,0.384 0.39,0.658 v 6.01 c 0,0.274 -0.148,0.526 -0.39,0.658 -0.114,0.061 -0.238,0.091 -0.361,0.091 z M 4.514,18.53 7.059,20.162 V 16.897 L 4.514,18.53 z"
           id="path4126" />
      </g>
      <g
         id="g4128">
        <path
           style="fill:#777777"
           inkscape:connector-curvature="0"
           d="m 29.195,22.284 c -0.124,0 -0.246,-0.03 -0.358,-0.092 -0.241,-0.132 -0.392,-0.384 -0.392,-0.658 v -6.01 c 0,-0.274 0.149,-0.526 0.392,-0.658 0.239,-0.131 0.533,-0.123 0.765,0.027 l 4.685,3.005 c 0.215,0.138 0.345,0.376 0.345,0.631 0,0.255 -0.13,0.493 -0.345,0.631 l -4.685,3.004 c -0.124,0.08 -0.266,0.12 -0.407,0.12 z m 0.75,-5.388 v 3.266 l 2.546,-1.633 -2.546,-1.633 z"
           id="path4130" />
      </g>
      <g
         id="g4132">
        <path
           style="fill:#777777"
           inkscape:connector-curvature="0"
           d="m 18.53,33.876 3.007,-4.684 h -6.012 l 3.005,4.684 z"
           id="path4134" />
        <path
           style="fill:#777777"
           inkscape:connector-curvature="0"
           d="m 18.53,34.626 0,0 c -0.255,0 -0.492,-0.13 -0.631,-0.345 L 14.894,29.597 C 14.747,29.366 14.736,29.073 14.868,28.831 15,28.589 15.252,28.44 15.525,28.44 h 6.012 c 0.273,0 0.525,0.148 0.657,0.391 0.133,0.24 0.121,0.533 -0.026,0.766 l -3.005,4.684 c -0.14,0.215 -0.377,0.345 -0.633,0.345 z m -1.633,-4.684 1.633,2.545 1.635,-2.545 h -3.268 z"
           id="path4136" />
      </g>
    </g>
  </g>
  <path
     style="fill:none;stroke:#000000;stroke-width:8.22716713;stroke-linecap:butt;stroke-linejoin:miter;stroke-miterlimit:4;stroke-opacity:1;stroke-dasharray:none;marker-start:url(#DotM-1);marker-end:none"
     d="m 888.59329,486.27505 0,298.11083 -393.72872,0"
     id="path5113-5-1"
     inkscape:connector-curvature="0"
     sodipodi:nodetypes="ccc" />
  <g
     id="g6490"
     transform="matrix(1.1753096,0,0,1.1753096,45.757549,-85.556192)">
    <rect
       rx="7.989696"
       ry="9.753747"
       y="701.48499"
       x="19.316416"
       height="90.145302"
       width="377.27231"
       id="rect3010-1-7-7"
       style="fill:#efefef;fill-opacity:1;stroke:#777777;stroke-width:2.72769594;stroke-linejoin:miter;stroke-miterlimit:4;stroke-opacity:1;stroke-dasharray:none" />
    <text
       transform="scale(0.9943335,1.0056988)"
       sodipodi:linespacing="125%"
       id="text3878-7-6-9"
       y="756.55365"
       x="115.46254"
       style="font-size:39.77554321px;font-style:normal;font-weight:normal;line-height:125%;letter-spacing:0px;word-spacing:0px;fill:#000000;fill-opacity:1;stroke:#777777;stroke-width:1.98877716;stroke-miterlimit:4;stroke-opacity:1;stroke-dasharray:none;font-family:Open Sans Light;-inkscape-font-specification:Open Sans Light"
       xml:space="preserve"><tspan
         style="fill:#777777;fill-opacity:1;stroke:#777777;stroke-width:1.98877716;stroke-miterlimit:4;stroke-opacity:1;stroke-dasharray:none"
         y="756.55365"
         x="115.46254"
         id="tspan3880-4-1-5"
         sodipodi:role="line">D-PAD RIGHT</tspan></text>
    <g
       transform="matrix(1.9260273,0,0,1.9490016,23.973023,710.44265)"
       id="g4464">
      <g
         id="g4466">
        <g
           id="g4468">
          <path
             style="fill:#777777"
             inkscape:connector-curvature="0"
             d="m 22.086,37.06 h -7.111 c -2.289,0 -3.119,-1.866 -3.119,-3.121 V 25.207 H 3.121 C 0.831,25.206 0,23.34 0,22.085 v -7.11 c 0,-2.289 1.867,-3.12 3.121,-3.12 h 8.733 V 3.121 C 11.855,0.831 13.72,0 14.974,0 h 7.111 c 2.29,0 3.121,1.867 3.121,3.121 v 8.732 h 8.731 c 2.29,0 3.121,1.865 3.121,3.12 v 7.11 c 0,2.29 -1.866,3.121 -3.121,3.121 h -8.731 v 8.732 c 0.001,2.293 -1.865,3.124 -3.12,3.124 z M 3.121,13.354 C 2.745,13.359 1.5,13.493 1.5,14.974 v 7.11 c 0.006,0.376 0.139,1.621 1.621,1.621 h 10.233 v 10.232 c 0.005,0.376 0.14,1.621 1.619,1.621 h 7.108 c 0.384,-0.007 1.624,-0.143 1.624,-1.621 V 23.706 h 10.231 c 0.376,-0.006 1.621,-0.14 1.621,-1.621 v -7.11 c -0.006,-0.376 -0.14,-1.62 -1.621,-1.62 H 23.706 V 3.121 C 23.701,2.745 23.567,1.5 22.086,1.5 h -7.111 c -0.376,0.006 -1.619,0.14 -1.619,1.621 v 10.232 l -10.235,10e-4 0,0 z"
             id="path4470" />
        </g>
      </g>
      <g
         id="g4472">
        <path
           style="fill:#777777"
           inkscape:connector-curvature="0"
           d="m 18.531,22.181 c -2.013,0 -3.649,-1.639 -3.649,-3.651 0,-2.012 1.638,-3.65 3.649,-3.65 2.013,0 3.65,1.639 3.65,3.65 10e-4,2.013 -1.637,3.651 -3.65,3.651 z m 0,-5.802 c -1.186,0 -2.149,0.965 -2.149,2.15 0,1.185 0.965,2.151 2.149,2.151 1.186,0 2.15,-0.966 2.15,-2.151 10e-4,-1.185 -0.964,-2.15 -2.15,-2.15 z"
           id="path4474" />
      </g>
      <g
         id="g4476">
        <path
           style="fill:#777777"
           inkscape:connector-curvature="0"
           d="m 21.536,8.616 h -6.012 c -0.273,0 -0.525,-0.15 -0.657,-0.39 C 14.735,7.985 14.746,7.692 14.893,7.46 l 3.005,-4.684 c 0.276,-0.431 0.986,-0.43 1.264,0 l 3.005,4.684 c 0.147,0.231 0.159,0.524 0.026,0.766 -0.13,0.24 -0.382,0.39 -0.657,0.39 z m -4.639,-1.5 h 3.268 L 18.53,4.571 16.897,7.116 z"
           id="path4478" />
      </g>
      <g
         id="g4480">
        <path
           style="fill:#777777"
           inkscape:connector-curvature="0"
           d="m 7.809,22.284 c -0.141,0 -0.282,-0.04 -0.405,-0.119 L 2.72,19.162 C 2.505,19.024 2.375,18.786 2.375,18.531 c 0,-0.255 0.13,-0.493 0.345,-0.631 l 4.684,-3.006 c 0.23,-0.148 0.524,-0.158 0.766,-0.027 0.24,0.131 0.39,0.384 0.39,0.658 v 6.01 c 0,0.274 -0.148,0.526 -0.39,0.658 -0.114,0.061 -0.238,0.091 -0.361,0.091 z M 4.514,18.53 7.059,20.162 V 16.897 L 4.514,18.53 z"
           id="path4482" />
      </g>
      <g
         id="g4484">
        <path
           style="fill:#777777"
           inkscape:connector-curvature="0"
           d="m 33.879,18.529 -4.685,-3.005 v 6.01 l 4.685,-3.005 z"
           id="path4486" />
        <path
           style="fill:#777777"
           inkscape:connector-curvature="0"
           d="m 29.195,22.284 c -0.124,0 -0.246,-0.03 -0.358,-0.092 -0.241,-0.132 -0.392,-0.384 -0.392,-0.658 v -6.01 c 0,-0.274 0.149,-0.526 0.392,-0.658 0.239,-0.131 0.533,-0.123 0.765,0.027 l 4.685,3.005 c 0.215,0.138 0.345,0.376 0.345,0.631 0,0.255 -0.13,0.493 -0.345,0.631 l -4.685,3.004 c -0.124,0.08 -0.266,0.12 -0.407,0.12 z m 0.75,-5.388 v 3.266 l 2.546,-1.633 -2.546,-1.633 z"
           id="path4488" />
      </g>
      <g
         id="g4490">
        <path
           style="fill:#777777"
           inkscape:connector-curvature="0"
           d="m 18.53,34.626 0,0 c -0.255,0 -0.492,-0.13 -0.631,-0.345 L 14.894,29.597 C 14.747,29.366 14.736,29.073 14.868,28.831 15,28.589 15.252,28.44 15.525,28.44 h 6.012 c 0.273,0 0.525,0.148 0.657,0.391 0.133,0.24 0.121,0.533 -0.026,0.766 l -3.005,4.684 c -0.14,0.215 -0.377,0.345 -0.633,0.345 z m -1.633,-4.684 1.633,2.545 1.635,-2.545 h -3.268 z"
           id="path4492" />
      </g>
    </g>
  </g>
  <path
     style="fill:none;stroke:#000000;stroke-width:8.22716713;stroke-linecap:butt;stroke-linejoin:miter;stroke-miterlimit:4;stroke-opacity:1;stroke-dasharray:none;marker-start:url(#DotM-1);marker-end:none"
     d="m 1500.9296,552.09239 0,-122.16864"
     id="path5113-2"
     inkscape:connector-curvature="0"
     sodipodi:nodetypes="cc" />
  <g
     id="g6606"
     transform="matrix(1.4702528,0,0,1.4702528,-381.39702,-310.26475)">
    <rect
       rx="6.9961586"
       ry="6.9961591"
       y="444.44101"
       x="1224.1367"
       height="65.565666"
       width="109.87776"
       id="rect3010-1-7-7-7-0-4"
       style="fill:#efefef;fill-opacity:1;stroke:#777777;stroke-width:1.25542307;stroke-linejoin:miter;stroke-miterlimit:4;stroke-opacity:1;stroke-dasharray:none" />
    <text
       sodipodi:linespacing="125%"
       id="text3878-7-6-9-9-9-4"
       y="491.51102"
       x="1295.4396"
       style="font-size:40px;font-style:normal;font-weight:normal;line-height:125%;letter-spacing:0px;word-spacing:0px;fill:#000000;fill-opacity:1;stroke:#777777;stroke-width:2;stroke-miterlimit:4;stroke-opacity:1;stroke-dasharray:none;font-family:Open Sans Light;-inkscape-font-specification:Open Sans Light"
       xml:space="preserve"><tspan
         style="fill:#777777;fill-opacity:1;stroke:#777777;stroke-width:2;stroke-miterlimit:4;stroke-opacity:1;stroke-dasharray:none"
         y="491.51102"
         x="1295.4396"
         id="tspan3880-4-1-5-3-0-6"
         sodipodi:role="line">B</tspan></text>
    <g
       transform="matrix(1.4876508,0,0,1.4876508,1229.295,449.65772)"
       id="g4776">
      <g
         id="g4760">
        <g
           id="g4762">
          <path
             style="fill:#777777"
             inkscape:connector-curvature="0"
             d="m 19.47,18.949 h -2.699 v 3.887 h 2.496 c 0.717,0 1.267,-0.154 1.644,-0.467 0.378,-0.313 0.563,-0.772 0.563,-1.385 0,-0.659 -0.16,-1.165 -0.48,-1.513 -0.323,-0.347 -0.831,-0.522 -1.524,-0.522 z m 0.919,-2.319 c 0.39,-0.297 0.585,-0.729 0.585,-1.299 0,-0.625 -0.197,-1.086 -0.59,-1.383 -0.393,-0.297 -0.979,-0.445 -1.758,-0.445 h -1.855 v 3.572 h 1.948 c 0.723,0 1.28,-0.148 1.67,-0.445 z M 18.53,3.031 c -8.561,0 -15.5,6.938 -15.5,15.5 0,8.56 6.939,15.5 15.5,15.5 8.563,0 15.5,-6.939 15.5,-15.5 0,-8.562 -6.939,-15.5 -15.5,-15.5 z m 4.364,20.896 c -0.854,0.665 -2.063,0.997 -3.627,0.997 H 14.062 V 11.416 h 4.564 c 1.59,0 2.83,0.31 3.721,0.929 0.891,0.617 1.336,1.543 1.336,2.773 0,0.625 -0.166,1.184 -0.496,1.674 -0.332,0.492 -0.813,0.86 -1.441,1.108 0.811,0.174 1.418,0.544 1.821,1.113 0.405,0.568 0.607,1.229 0.607,1.977 0,1.293 -0.427,2.272 -1.28,2.937 z"
             id="path4764" />
        </g>
      </g>
      <g
         style="opacity:0"
         id="g4766">
        <path
           style="fill:#777777"
           inkscape:connector-curvature="0"
           d="M 36.961,0.1 V 36.961 H 0.1 V 0.1 H 36.961 M 37.061,0 H 0 V 37.06 H 37.061 V 0 l 0,0 z"
           id="path4768" />
      </g>
    </g>
  </g>
  <path
     style="fill:none;stroke:#000000;stroke-width:8.22716713;stroke-linecap:butt;stroke-linejoin:miter;stroke-miterlimit:4;stroke-opacity:1;stroke-dasharray:none;marker-start:url(#DotM-1);marker-end:none"
     d="m 1674.8754,552.09239 0,-122.16864"
     id="path5113-2-4"
     inkscape:connector-curvature="0"
     sodipodi:nodetypes="cc" />
  <g
     id="g4938"
     transform="matrix(1.4702528,0,0,1.4702528,492.39277,-170.09095)">
    <rect
       rx="6.9961586"
       ry="6.9961591"
       y="349.10107"
       x="754.55139"
       height="65.565666"
       width="109.87776"
       id="rect3010-1-7-7-7-0-4-1"
       style="fill:#efefef;fill-opacity:1;stroke:#777777;stroke-width:1.25542307;stroke-linejoin:miter;stroke-miterlimit:4;stroke-opacity:1;stroke-dasharray:none" />
    <text
       sodipodi:linespacing="125%"
       id="text3878-7-6-9-9-9-4-3"
       y="396.21985"
       x="825.85419"
       style="font-size:40px;font-style:normal;font-weight:normal;line-height:125%;letter-spacing:0px;word-spacing:0px;fill:#000000;fill-opacity:1;stroke:#777777;stroke-width:2;stroke-miterlimit:4;stroke-opacity:1;stroke-dasharray:none;font-family:Open Sans Light;-inkscape-font-specification:Open Sans Light"
       xml:space="preserve"><tspan
         style="fill:#777777;fill-opacity:1;stroke:#777777;stroke-width:2;stroke-miterlimit:4;stroke-opacity:1;stroke-dasharray:none"
         y="396.21985"
         x="825.85419"
         id="tspan3880-4-1-5-3-0-6-5"
         sodipodi:role="line">A</tspan></text>
    <g
       transform="matrix(1.4876555,0,0,1.4876956,759.33315,354.31691)"
       id="g4878">
      <g
         id="g4862">
        <g
           id="g4864">
          <path
             style="fill:#777777"
             inkscape:connector-curvature="0"
             d="m 18.914,14.579 -1.682,5.308 h 3.405 l -1.67,-5.308 H 18.914 z M 18.531,3.029 c -8.562,0 -15.501,6.94 -15.501,15.5 0,8.563 6.939,15.502 15.501,15.502 8.562,0 15.499,-6.94 15.499,-15.502 0,-8.559 -6.939,-15.5 -15.499,-15.5 z m 3.696,21.896 -0.919,-2.913 h -4.741 l -0.918,2.913 H 12.914 L 17.56,11.416 h 2.774 l 4.629,13.509 h -2.736 z"
             id="path4866" />
        </g>
      </g>
      <g
         style="opacity:0"
         id="g4868">
        <path
           style="fill:#777777"
           inkscape:connector-curvature="0"
           d="M 36.961,0.1 V 36.961 H 0.1 V 0.1 H 36.961 M 37.061,0 H 0 V 37.06 H 37.061 V 0 l 0,0 z"
           id="path4870" />
      </g>
    </g>
  </g>
  <path
     style="fill:none;stroke:#000000;stroke-width:8.22716713;stroke-linecap:butt;stroke-linejoin:miter;stroke-miterlimit:4;stroke-opacity:1;stroke-dasharray:none;marker-start:url(#DotM-1);marker-end:none"
     d="m 1095.9083,556.5627 0,229.80745"
     id="path5113-2-2"
     inkscape:connector-curvature="0"
     sodipodi:nodetypes="cc" />
  <path
     style="fill:none;stroke:#000000;stroke-width:8.22716713;stroke-linecap:butt;stroke-linejoin:miter;stroke-miterlimit:4;stroke-opacity:1;stroke-dasharray:none;marker-start:url(#DotM-1);marker-end:none"
     d="m 1268.6311,554.05947 0,234.81392"
     id="path5113-2-2-1"
     inkscape:connector-curvature="0"
     sodipodi:nodetypes="cc" />
  <g
     id="g6673"
     transform="matrix(1.1753096,0,0,1.1753096,89.61055,-242.83063)">
    <rect
       rx="7.554328"
       ry="9.7558298"
       y="835.05811"
       x="694.21216"
       height="90.6297"
       width="253.81186"
       id="rect3010-1-7-7-7"
       style="fill:#efefef;fill-opacity:1;stroke:#777777;stroke-width:2.24330425;stroke-linejoin:miter;stroke-miterlimit:4;stroke-opacity:1;stroke-dasharray:none" />
    <text
       sodipodi:linespacing="125%"
       id="text3878-7-6-9-9"
       y="894.66003"
       x="798.62604"
       style="font-size:40px;font-style:normal;font-weight:normal;line-height:125%;letter-spacing:0px;word-spacing:0px;fill:#000000;fill-opacity:1;stroke:#777777;stroke-width:2;stroke-miterlimit:4;stroke-opacity:1;stroke-dasharray:none;font-family:Open Sans Light;-inkscape-font-specification:Open Sans Light"
       xml:space="preserve"><tspan
         style="fill:#777777;fill-opacity:1;stroke:#777777;stroke-width:2;stroke-miterlimit:4;stroke-opacity:1;stroke-dasharray:none"
         y="894.66003"
         x="798.62604"
         id="tspan3880-4-1-5-3"
         sodipodi:role="line">SELECT</tspan></text>
    <g
       transform="matrix(2.1887953,0,0,2.1887953,705.19797,839.81458)"
       id="g4550">
      <g
         id="g4552">
        <path
           id="path4554"
           d="M 33.217,19.118 H 3.845 C 1.722,19.118 0,20.89 0,23.075 c 0,2.185 1.722,3.957 3.845,3.957 h 29.372 c 2.123,0 3.844,-1.771 3.844,-3.957 0,-2.186 -1.721,-3.957 -3.844,-3.957 z"
           inkscape:connector-curvature="0"
           style="fill:#777777" />
      </g>
    </g>
    <path
       id="path4556"
       d="m 779.08513,873.84816 h 2.59591 v -13.29693 h 4.64901 v -2.47115 h -11.89173 v 2.46896 h 4.64681 v 13.29912 z m -6.35188,-9.94151 c -0.27579,-3.40139 -2.49742,-6.26871 -6.75681,-6.26871 -4.87007,0 -6.92097,3.88073 -6.92097,8.32837 0,4.4345 2.14283,8.32617 6.61235,8.32617 5.09551,0 6.70428,-3.32915 7.06762,-6.47445 h -2.80166 c -0.21669,1.65692 -1.11629,4.0033 -3.81507,4.0033 -2.57183,0 -4.35133,-2.28072 -4.35133,-5.57267 0,-4.10837 1.7795,-6.14614 4.17623,-6.14614 2.1866,0 3.7297,1.41397 3.99017,3.80194 l 2.79947,0.002 0,0 z m -26.69455,9.94151 h 10.88488 v -2.47115 h -8.28678 v -4.37321 h 7.82057 v -2.47115 h -7.82057 v -3.98142 h 8.14451 v -2.47115 h -10.74042 l -0.002,15.76808 0,0 z m -12.43236,0 h 10.12318 v -2.60029 h -7.52289 v -13.16779 h -2.60029 v 15.76808 z m -13.7128,0 h 10.88707 v -2.47115 h -8.28678 v -4.37321 h 7.81838 v -2.47115 h -7.81838 v -3.98142 h 8.15545 v -2.47115 h -10.75574 v 15.76808 z m -14.36944,-11.3314 c 0,6.46789 9.12071,3.05994 9.12071,6.97351 0,1.73352 -1.47306,2.32887 -3.05337,2.32887 -2.13626,0 -3.48237,-0.99809 -3.5546,-3.07963 h -2.80604 c 0.0328,3.31602 1.81889,5.5486 6.27528,5.5486 2.6375,0 5.94477,-1.05938 5.94477,-5.12835 0,-6.73492 -9.2214,-3.1847 -9.2214,-6.88595 0,-1.48182 1.14474,-2.1691 2.87389,-2.1691 2.16691,0 3.03805,1.32422 3.1256,2.54557 h 2.81041 c -0.33269,-4.57677 -4.14995,-5.01234 -6.05639,-5.01234 -3.01398,0 -5.45886,1.36581 -5.45886,4.87882"
       inkscape:connector-curvature="0"
       style="fill:#777777" />
    <g
       transform="matrix(2.1887953,0,0,2.1887953,705.19797,839.81458)"
       id="g4558"
       style="opacity:0">
      <path
         id="path4560"
         d="M 36.961,0.1 V 36.961 H 0.1 V 0.1 H 36.961 M 37.061,0 H 0 V 37.06 H 37.061 V 0 l 0,0 z"
         inkscape:connector-curvature="0"
         style="fill:#777777" />
    </g>
  </g>
  <g
     id="g6684"
     transform="matrix(1.1753096,0,0,1.1753096,44.552443,-240.64034)">
    <rect
       rx="8.3117142"
       ry="9.7431641"
       y="833.19171"
       x="1009.9119"
       height="90.635323"
       width="252.52551"
       id="rect3010-1-7-7-7-0"
       style="fill:#efefef;fill-opacity:1;stroke:#777777;stroke-width:2.23768187;stroke-linejoin:miter;stroke-miterlimit:4;stroke-opacity:1;stroke-dasharray:none" />
    <text
       sodipodi:linespacing="125%"
       id="text3878-7-6-9-9-9"
       y="892.79651"
       x="1127.1074"
       style="font-size:40px;font-style:normal;font-weight:normal;line-height:125%;letter-spacing:0px;word-spacing:0px;fill:#000000;fill-opacity:1;stroke:#777777;stroke-width:2;stroke-miterlimit:4;stroke-opacity:1;stroke-dasharray:none;font-family:Open Sans Light;-inkscape-font-specification:Open Sans Light"
       xml:space="preserve"><tspan
         style="fill:#777777;fill-opacity:1;stroke:#777777;stroke-width:2;stroke-miterlimit:4;stroke-opacity:1;stroke-dasharray:none"
         y="892.79651"
         x="1127.1074"
         id="tspan3880-4-1-5-3-0"
         sodipodi:role="line">START</tspan></text>
    <g
       transform="matrix(2.238674,0,0,2.238674,1023.8977,839.14117)"
       id="g4651">
      <path
         style="fill:#777777"
         inkscape:connector-curvature="0"
         d="m 33.065,15.548 h 1.438 V 9.471 h 2.563 v -1.13 h -6.563 v 1.13 h 2.563 l -0.001,6.077 0,0 z M 24.351,11.573 V 9.471 h 2.482 c 0.755,0 1.226,0.292 1.226,1.039 0,0.808 -0.432,1.063 -1.226,1.063 h -2.482 z m -1.434,3.975 h 1.434 v -2.846 h 2.443 c 1.053,0 1.188,0.727 1.188,1.755 0,0.526 0.068,0.89 0.174,1.091 h 1.552 c -0.281,-0.395 -0.29,-1.199 -0.29,-1.546 0,-1.019 -0.18,-1.766 -0.994,-1.945 v -0.021 c 0.643,-0.211 1.128,-0.797 1.128,-1.737 0,-1.119 -0.563,-1.954 -2.305,-1.954 H 22.92 l -0.003,7.203 0,0 z m -8.885,0 h 1.551 l 0.708,-1.786 h 3.217 l 0.718,1.786 h 1.603 L 18.784,8.341 H 17.08 l -3.048,7.207 z m 2.691,-2.916 1.187,-3.042 1.168,3.042 h -2.355 z m -6.731,2.916 h 1.434 V 9.471 h 2.567 V 8.341 H 7.425 v 1.13 h 2.567 v 6.077 z m -9.805,-5.18 c 0,2.956 5.036,1.4 5.036,3.188 0,0.792 -0.813,1.064 -1.684,1.064 -1.179,0 -1.923,-0.456 -1.963,-1.407 h -1.55 c 0.021,1.516 1.005,2.538 3.469,2.538 1.455,0 3.28,-0.486 3.28,-2.345 0,-3.079 -5.093,-1.454 -5.093,-3.148 0,-0.676 0.632,-0.988 1.589,-0.988 1.196,0 1.676,0.604 1.726,1.161 H 6.548 C 6.363,8.338 4.258,8.139 3.203,8.139 c -1.667,0 -3.016,0.623 -3.016,2.229"
         id="path4637" />
      <g
         id="g4639">
        <g
           id="g4641">
          <path
             style="fill:#777777"
             inkscape:connector-curvature="0"
             d="M 33.217,19.118 H 3.845 C 1.722,19.118 0,20.89 0,23.075 c 0,2.185 1.722,3.957 3.845,3.957 h 29.372 c 2.123,0 3.844,-1.771 3.844,-3.957 0,-2.186 -1.721,-3.957 -3.844,-3.957 z"
             id="path4643" />
        </g>
      </g>
    </g>
  </g>
</svg>
