<?xml version="1.0" encoding="UTF-8" standalone="no"?>
<!-- Created with Inkscape (http://www.inkscape.org/) -->

<svg
   xmlns:dc="http://purl.org/dc/elements/1.1/"
   xmlns:cc="http://creativecommons.org/ns#"
   xmlns:rdf="http://www.w3.org/1999/02/22-rdf-syntax-ns#"
   xmlns:svg="http://www.w3.org/2000/svg"
   xmlns="http://www.w3.org/2000/svg"
   xmlns:xlink="http://www.w3.org/1999/xlink"
   xmlns:sodipodi="http://sodipodi.sourceforge.net/DTD/sodipodi-0.dtd"
   xmlns:inkscape="http://www.inkscape.org/namespaces/inkscape"
   version="1.1"
   width="1920"
   height="1080"
   id="svg3726"
   inkscape:version="0.48.5 r10040"
   sodipodi:docname="videopacdiagram.svg">
  <sodipodi:namedview
     pagecolor="#ffffff"
     bordercolor="#666666"
     borderopacity="1"
     objecttolerance="10"
     gridtolerance="10"
     guidetolerance="10"
     inkscape:pageopacity="0"
     inkscape:pageshadow="2"
     inkscape:window-width="1680"
     inkscape:window-height="988"
     id="namedview29"
     showgrid="false"
     inkscape:zoom="0.66399812"
     inkscape:cx="913.27552"
     inkscape:cy="524.74633"
     inkscape:window-x="-8"
     inkscape:window-y="-8"
     inkscape:window-maximized="1"
     inkscape:current-layer="svg3726"
     inkscape:snap-global="true"
     inkscape:snap-bbox="true"
     inkscape:snap-grids="true"
     showguides="false"
     inkscape:guide-bbox="true">
    <inkscape:grid
       type="xygrid"
       id="grid3792"
       empspacing="5"
       visible="true"
       enabled="true"
       snapvisiblegridlinesonly="true" />
    <sodipodi:guide
       orientation="1,0"
       position="-6.0241134,1421.6908"
       id="guide4556" />
  </sodipodi:namedview>
  <defs
     id="defs3728">
    <marker
       inkscape:stockid="DotM"
       orient="auto"
       refY="0.0"
       refX="0.0"
       id="DotM"
       style="overflow:visible">
      <path
         id="path4711"
         d="M -2.5,-1.0 C -2.5,1.7600000 -4.7400000,4.0 -7.5,4.0 C -10.260000,4.0 -12.5,1.7600000 -12.5,-1.0 C -12.5,-3.7600000 -10.260000,-6.0 -7.5,-6.0 C -4.7400000,-6.0 -2.5,-3.7600000 -2.5,-1.0 z "
         style="fill-rule:evenodd;stroke:#000000;stroke-width:1.0pt"
         transform="scale(0.4) translate(7.4, 1)" />
    </marker>
    <marker
       inkscape:stockid="DotL"
       orient="auto"
       refY="0"
       refX="0"
       id="DotL"
       style="overflow:visible">
      <path
         id="path5126"
         d="m -2.5,-1 c 0,2.76 -2.24,5 -5,5 -2.76,0 -5,-2.24 -5,-5 0,-2.76 2.24,-5 5,-5 2.76,0 5,2.24 5,5 z"
         style="fill-rule:evenodd;stroke:#000000;stroke-width:1pt"
         transform="matrix(0.8,0,0,0.8,5.92,0.8)"
         inkscape:connector-curvature="0" />
    </marker>
    <radialGradient
       cx="404.85159"
       cy="658.8125"
       r="28.365055"
       fx="404.85159"
       fy="658.8125"
       id="radialGradient4155"
       xlink:href="#linearGradient4145"
       gradientUnits="userSpaceOnUse"
       gradientTransform="matrix(0.59278952,0,0,0.59278952,-288.37359,40.008458)" />
    <linearGradient
       id="linearGradient4145">
      <stop
         id="stop4147"
         style="stop-color:#a20000;stop-opacity:1"
         offset="0" />
      <stop
         id="stop4149"
         style="stop-color:#ff0000;stop-opacity:1"
         offset="1" />
    </linearGradient>
    <radialGradient
       cx="404.85159"
       cy="658.8125"
       r="28.365055"
       fx="404.85159"
       fy="658.8125"
       id="radialGradient4143"
       xlink:href="#linearGradient4145"
       gradientUnits="userSpaceOnUse"
       gradientTransform="matrix(0.59278952,0,0,0.59278952,-252.74247,40.008458)" />
    <linearGradient
       id="linearGradient3705">
      <stop
         id="stop3707"
         style="stop-color:#a20000;stop-opacity:1"
         offset="0" />
      <stop
         id="stop3709"
         style="stop-color:#ff0000;stop-opacity:1"
         offset="1" />
    </linearGradient>
    <marker
       inkscape:stockid="DotM"
       orient="auto"
       refY="0"
       refX="0"
       id="DotM-1"
       style="overflow:visible">
      <path
         inkscape:connector-curvature="0"
         id="path4711-7"
         d="m -2.5,-1 c 0,2.76 -2.24,5 -5,5 -2.76,0 -5,-2.24 -5,-5 0,-2.76 2.24,-5 5,-5 2.76,0 5,2.24 5,5 z"
         style="fill-rule:evenodd;stroke:#000000;stroke-width:1pt"
         transform="matrix(0.4,0,0,0.4,2.96,0.4)" />
    </marker>
    <filter
       id="filter6251"
       inkscape:label="filter1">
      <feMorphology
         id="feMorphology6253"
         operator="dilate"
         radius="1" />
    </filter>
    <marker
       inkscape:stockid="DotM"
       orient="auto"
       refY="0"
       refX="0"
       id="DotM-1-2"
       style="overflow:visible">
      <path
         inkscape:connector-curvature="0"
         id="path4711-7-2"
         d="m -2.5,-1 c 0,2.76 -2.24,5 -5,5 -2.76,0 -5,-2.24 -5,-5 0,-2.76 2.24,-5 5,-5 2.76,0 5,2.24 5,5 z"
         style="fill-rule:evenodd;stroke:#000000;stroke-width:1pt"
         transform="matrix(0.4,0,0,0.4,2.96,0.4)" />
    </marker>
    <marker
       inkscape:stockid="DotM"
       orient="auto"
       refY="0"
       refX="0"
       id="DotM-1-6"
       style="overflow:visible">
      <path
         inkscape:connector-curvature="0"
         id="path4711-7-8"
         d="m -2.5,-1 c 0,2.76 -2.24,5 -5,5 -2.76,0 -5,-2.24 -5,-5 0,-2.76 2.24,-5 5,-5 2.76,0 5,2.24 5,5 z"
         style="fill-rule:evenodd;stroke:#000000;stroke-width:1pt"
         transform="matrix(0.4,0,0,0.4,2.96,0.4)" />
    </marker>
    <marker
       inkscape:stockid="DotM"
       orient="auto"
       refY="0"
       refX="0"
       id="DotM-1-7"
       style="overflow:visible">
      <path
         inkscape:connector-curvature="0"
         id="path4711-7-6"
         d="m -2.5,-1 c 0,2.76 -2.24,5 -5,5 -2.76,0 -5,-2.24 -5,-5 0,-2.76 2.24,-5 5,-5 2.76,0 5,2.24 5,5 z"
         style="fill-rule:evenodd;stroke:#000000;stroke-width:1pt"
         transform="matrix(0.4,0,0,0.4,2.96,0.4)" />
    </marker>
    <marker
       inkscape:stockid="DotM"
       orient="auto"
       refY="0"
       refX="0"
       id="DotM-1-8"
       style="overflow:visible">
      <path
         inkscape:connector-curvature="0"
         id="path4711-7-9"
         d="m -2.5,-1 c 0,2.76 -2.24,5 -5,5 -2.76,0 -5,-2.24 -5,-5 0,-2.76 2.24,-5 5,-5 2.76,0 5,2.24 5,5 z"
         style="fill-rule:evenodd;stroke:#000000;stroke-width:1pt"
         transform="matrix(0.4,0,0,0.4,2.96,0.4)" />
    </marker>
    <marker
       inkscape:stockid="DotM"
       orient="auto"
       refY="0"
       refX="0"
       id="DotM-1-79"
       style="overflow:visible">
      <path
         inkscape:connector-curvature="0"
         id="path4711-7-5"
         d="m -2.5,-1 c 0,2.76 -2.24,5 -5,5 -2.76,0 -5,-2.24 -5,-5 0,-2.76 2.24,-5 5,-5 2.76,0 5,2.24 5,5 z"
         style="fill-rule:evenodd;stroke:#000000;stroke-width:1pt"
         transform="matrix(0.4,0,0,0.4,2.96,0.4)" />
    </marker>
    <marker
       inkscape:stockid="DotM"
       orient="auto"
       refY="0"
       refX="0"
       id="DotM-1-3"
       style="overflow:visible">
      <path
         inkscape:connector-curvature="0"
         id="path4711-7-1"
         d="m -2.5,-1 c 0,2.76 -2.24,5 -5,5 -2.76,0 -5,-2.24 -5,-5 0,-2.76 2.24,-5 5,-5 2.76,0 5,2.24 5,5 z"
         style="fill-rule:evenodd;stroke:#000000;stroke-width:1pt"
         transform="matrix(0.4,0,0,0.4,2.96,0.4)" />
    </marker>
    <marker
       inkscape:stockid="DotM"
       orient="auto"
       refY="0"
       refX="0"
       id="DotM-1-33"
       style="overflow:visible">
      <path
         inkscape:connector-curvature="0"
         id="path4711-7-4"
         d="m -2.5,-1 c 0,2.76 -2.24,5 -5,5 -2.76,0 -5,-2.24 -5,-5 0,-2.76 2.24,-5 5,-5 2.76,0 5,2.24 5,5 z"
         style="fill-rule:evenodd;stroke:#000000;stroke-width:1pt"
         transform="matrix(0.4,0,0,0.4,2.96,0.4)" />
    </marker>
    <linearGradient
       id="linearGradient4197-2-5">
      <stop
         offset="0"
         style="stop-color:#ff4949;stop-opacity:1"
         id="stop4199-4-1" />
      <stop
         offset="1"
         style="stop-color:#ff0000;stop-opacity:1"
         id="stop4201-5-7" />
    </linearGradient>
    <radialGradient
       gradientTransform="matrix(2.2257989,9.3143296e-7,-9.7799408e-7,2.3370637,-496.26601,-880.87468)"
       gradientUnits="userSpaceOnUse"
       xlink:href="#linearGradient4197-2-5"
       id="radialGradient4479-1"
       fy="658.8125"
       fx="404.85159"
       r="22.700239"
       cy="658.8125"
       cx="404.85159" />
    <linearGradient
       id="linearGradient4509">
      <stop
         offset="0"
         style="stop-color:#464646;stop-opacity:1"
         id="stop4511" />
      <stop
         offset="0.76972967"
         style="stop-color:#464646;stop-opacity:1"
         id="stop4517" />
      <stop
         offset="1"
         style="stop-color:#0a0a0a;stop-opacity:1"
         id="stop4513" />
    </linearGradient>
    <radialGradient
       gradientUnits="userSpaceOnUse"
       xlink:href="#linearGradient4509"
       id="radialGradient4515"
       fy="7414.54"
       fx="334.41635"
       r="149.59747"
       cy="7414.54"
       cx="334.41635" />
    <linearGradient
       id="linearGradient4787">
      <stop
         offset="0"
         style="stop-color:#464646;stop-opacity:1"
         id="stop4789" />
      <stop
         offset="0.7480467"
         style="stop-color:#464646;stop-opacity:1"
         id="stop4791" />
      <stop
         offset="1"
         style="stop-color:#0a0a0a;stop-opacity:1"
         id="stop4793" />
    </linearGradient>
    <radialGradient
       gradientUnits="userSpaceOnUse"
       xlink:href="#linearGradient4527"
       id="radialGradient4525"
       fy="7414.54"
       fx="334.41635"
       r="149.71426"
       cy="7414.54"
       cx="334.41635" />
    <linearGradient
       id="linearGradient4527">
      <stop
         offset="0"
         style="stop-color:#464646;stop-opacity:1"
         id="stop4529" />
      <stop
         offset="0.7480467"
         style="stop-color:#464646;stop-opacity:1"
         id="stop4531" />
      <stop
         offset="1"
         style="stop-color:#0a0a0a;stop-opacity:1"
         id="stop4533" />
    </linearGradient>
    <radialGradient
       gradientUnits="userSpaceOnUse"
       xlink:href="#linearGradient4527"
       id="radialGradient4544"
       fy="7414.54"
       fx="334.41635"
       r="149.8893"
       cy="7414.54"
       cx="334.41635" />
    <marker
       inkscape:stockid="DotM"
       orient="auto"
       refY="0"
       refX="0"
       id="DotM-1-33-1"
       style="overflow:visible">
      <path
         inkscape:connector-curvature="0"
         id="path4711-7-4-7"
         d="m -2.5,-1 c 0,2.76 -2.24,5 -5,5 -2.76,0 -5,-2.24 -5,-5 0,-2.76 2.24,-5 5,-5 2.76,0 5,2.24 5,5 z"
         style="fill-rule:evenodd;stroke:#000000;stroke-width:1pt"
         transform="matrix(0.4,0,0,0.4,2.96,0.4)" />
    </marker>
    <marker
       inkscape:stockid="DotM"
       orient="auto"
       refY="0"
       refX="0"
       id="DotM-1-33-0"
       style="overflow:visible">
      <path
         inkscape:connector-curvature="0"
         id="path4711-7-4-9"
         d="m -2.5,-1 c 0,2.76 -2.24,5 -5,5 -2.76,0 -5,-2.24 -5,-5 0,-2.76 2.24,-5 5,-5 2.76,0 5,2.24 5,5 z"
         style="fill-rule:evenodd;stroke:#000000;stroke-width:1pt"
         transform="matrix(0.4,0,0,0.4,2.96,0.4)" />
    </marker>
    <marker
       inkscape:stockid="DotM"
       orient="auto"
       refY="0"
       refX="0"
       id="DotM-1-33-8"
       style="overflow:visible">
      <path
         inkscape:connector-curvature="0"
         id="path4711-7-4-8"
         d="m -2.5,-1 c 0,2.76 -2.24,5 -5,5 -2.76,0 -5,-2.24 -5,-5 0,-2.76 2.24,-5 5,-5 2.76,0 5,2.24 5,5 z"
         style="fill-rule:evenodd;stroke:#000000;stroke-width:1pt"
         transform="matrix(0.4,0,0,0.4,2.96,0.4)" />
    </marker>
    <linearGradient
       gradientTransform="matrix(0.79454198,0,0,0.79454198,-105.71532,-10584.241)"
       gradientUnits="userSpaceOnUse"
       xlink:href="#linearGradient4950"
       id="linearGradient5343"
       y2="14639.615"
       x2="689.5"
       y1="14639.615"
       x1="211.5" />
    <linearGradient
       id="linearGradient4950">
      <stop
         offset="0"
         style="stop-color:#35342f;stop-opacity:1"
         id="stop4952" />
      <stop
         offset="0.1"
         style="stop-color:#54524b;stop-opacity:1"
         id="stop4960" />
      <stop
         offset="0.89999998"
         style="stop-color:#55534b;stop-opacity:1"
         id="stop4958" />
      <stop
         offset="1"
         style="stop-color:#35342f;stop-opacity:1"
         id="stop4954" />
    </linearGradient>
    <linearGradient
       gradientUnits="userSpaceOnUse"
       xlink:href="#linearGradient4950"
       id="linearGradient4956"
       y2="14639.615"
       x2="689.5"
       y1="14639.615"
       x1="211.5" />
    <linearGradient
       id="linearGradient5004">
      <stop
         offset="0"
         style="stop-color:#32302b;stop-opacity:1"
         id="stop5006" />
      <stop
         offset="1"
         style="stop-color:#201f1c;stop-opacity:1"
         id="stop5008" />
    </linearGradient>
    <radialGradient
       gradientUnits="userSpaceOnUse"
       xlink:href="#linearGradient5004"
       id="radialGradient5010"
       fy="14630.954"
       fx="446.0361"
       r="86.245575"
       cy="14630.954"
       cx="446.0361"
       gradientTransform="matrix(0.79454198,0,0,0.79454198,-64.047832,3371.5832)" />
    <linearGradient
       id="linearGradient5016">
      <stop
         offset="0"
         style="stop-color:#4b4841;stop-opacity:1"
         id="stop5018" />
      <stop
         offset="1"
         style="stop-color:#33312b;stop-opacity:1"
         id="stop5020" />
    </linearGradient>
    <radialGradient
       gradientUnits="userSpaceOnUse"
       xlink:href="#linearGradient5016"
       id="radialGradient5022"
       fy="14660.434"
       fx="447.08264"
       r="39.287991"
       cy="14660.434"
       cx="447.08264"
       gradientTransform="matrix(0.79454198,0,0,0.79454198,-63.832812,3377.6401)" />
    <linearGradient
       gradientTransform="translate(616.20582,-13790.161)"
       gradientUnits="userSpaceOnUse"
       xlink:href="#linearGradient4950-4"
       id="linearGradient5343-1"
       y2="14639.615"
       x2="689.5"
       y1="14639.615"
       x1="211.5" />
    <linearGradient
       id="linearGradient4950-4">
      <stop
         offset="0"
         style="stop-color:#35342f;stop-opacity:1"
         id="stop4952-5" />
      <stop
         offset="0.1"
         style="stop-color:#54524b;stop-opacity:1"
         id="stop4960-5" />
      <stop
         offset="0.89999998"
         style="stop-color:#55534b;stop-opacity:1"
         id="stop4958-1" />
      <stop
         offset="1"
         style="stop-color:#35342f;stop-opacity:1"
         id="stop4954-7" />
    </linearGradient>
    <linearGradient
       gradientUnits="userSpaceOnUse"
       xlink:href="#linearGradient4950-4"
       id="linearGradient4956-2"
       y2="14639.615"
       x2="689.5"
       y1="14639.615"
       x1="211.5" />
    <linearGradient
       id="linearGradient5004-4">
      <stop
         offset="0"
         style="stop-color:#32302b;stop-opacity:1"
         id="stop5006-8" />
      <stop
         offset="1"
         style="stop-color:#201f1c;stop-opacity:1"
         id="stop5008-8" />
    </linearGradient>
    <radialGradient
       gradientUnits="userSpaceOnUse"
       xlink:href="#linearGradient5004-4"
       id="radialGradient5010-9"
       fy="14630.954"
       fx="446.0361"
       r="86.245575"
       cy="14630.954"
       cx="446.0361"
       gradientTransform="translate(658.13439,165.66312)" />
    <linearGradient
       id="linearGradient5016-7">
      <stop
         offset="0"
         style="stop-color:#4b4841;stop-opacity:1"
         id="stop5018-4" />
      <stop
         offset="1"
         style="stop-color:#33312b;stop-opacity:1"
         id="stop5020-0" />
    </linearGradient>
    <radialGradient
       gradientUnits="userSpaceOnUse"
       xlink:href="#linearGradient5016-7"
       id="radialGradient5022-1"
       fy="14660.434"
       fx="447.08264"
       r="39.287991"
       cy="14660.434"
       cx="447.08264"
       gradientTransform="translate(658.13439,165.66312)" />
  </defs>
  <metadata
     id="metadata3731">
    <rdf:RDF>
      <cc:Work
         rdf:about="">
        <dc:format>image/svg+xml</dc:format>
        <dc:type
           rdf:resource="http://purl.org/dc/dcmitype/StillImage" />
        <dc:title />
      </cc:Work>
    </rdf:RDF>
  </metadata>
  <g
     id="layer1"
     transform="matrix(1.2561924,0,0,1.2561924,451.60265,-315.87187)">
    <rect
       style="fill:url(#linearGradient5343-1);fill-opacity:1;stroke:#000000;stroke-width:1;stroke-linecap:butt;stroke-linejoin:miter;stroke-miterlimit:4;stroke-opacity:1;stroke-dasharray:none;stroke-dashoffset:20"
       id="rect4948-1"
       y="369.79074"
       x="170.07143"
       ry="6.3684511"
       rx="6.3684511"
       height="628"
       width="477" />
    <rect
       style="fill:#5c5b58;fill-opacity:1;stroke:#000000;stroke-width:1;stroke-linecap:butt;stroke-linejoin:miter;stroke-miterlimit:4;stroke-opacity:1;stroke-dasharray:none;stroke-dashoffset:20"
       id="rect4939-5"
       y="413.35324"
       x="223.65987"
       ry="23.881691"
       rx="23.881691"
       height="524.82312"
       width="363.43683" />
    <rect
       style="fill:#5c5b58;fill-opacity:1;stroke:#000000;stroke-width:1;stroke-linecap:butt;stroke-linejoin:miter;stroke-miterlimit:4;stroke-opacity:1;stroke-dasharray:none;stroke-dashoffset:20"
       id="rect4943-2"
       y="548.11304"
       x="241.4505"
       ry="7.9605637"
       rx="7.9605637"
       height="253.5054"
       width="327.85559" />
    <path
       style="fill:url(#radialGradient5010-9);fill-opacity:1;stroke:#000000;stroke-width:1;stroke-linecap:butt;stroke-linejoin:miter;stroke-miterlimit:4;stroke-opacity:1;stroke-dasharray:none;stroke-dashoffset:20"
       id="path4941-7"
       transform="translate(-40.657821,-13955.824)"
       d="m 506.66738,14691.585 c -7.07252,7.073 -25.13985,-1.084 -34.38055,2.744 -9.24069,3.828 -16.24867,22.371 -26.25073,22.371 -10.00205,0 -17.01003,-18.543 -26.25072,-22.371 -9.2407,-3.828 -27.30803,4.329 -34.38056,-2.744 -7.07252,-7.072 1.08404,-25.139 -2.74358,-34.38 -3.82762,-9.241 -22.37071,-16.249 -22.37071,-26.251 0,-10.002 18.54309,-17.01 22.37071,-26.251 3.82762,-9.24 -4.32894,-27.308 2.74358,-34.38 7.07252,-7.073 25.13986,1.084 34.38055,-2.744 9.2407,-3.827 16.24868,-22.37 26.25073,-22.37 10.00206,0 17.01003,18.543 26.25073,22.37 9.24069,3.828 27.30803,-4.329 34.38055,2.744 7.07252,7.072 -1.08404,25.14 2.74359,34.38 3.82762,9.241 22.37071,16.249 22.37071,26.251 0,10.002 -18.54309,17.01 -22.37071,26.251 -3.82762,9.241 4.32893,27.308 -2.74359,34.38 z"
       inkscape:connector-curvature="0" />
    <path
       style="fill:#ff8169;fill-opacity:1;stroke:#000000;stroke-width:1;stroke-linecap:butt;stroke-linejoin:miter;stroke-miterlimit:4;stroke-opacity:1;stroke-dashoffset:20"
       id="rect4945-6"
       d="m 253.65987,413.35352 94.41156,0 0,126.823 -124.41156,-0.386 0,-96.437 c 0,-16.62 13.38,-30 30,-30 z"
       inkscape:connector-curvature="0" />
    <path
       style="fill:none;stroke:#000000;stroke-width:1px;stroke-linecap:butt;stroke-linejoin:miter;stroke-opacity:1"
       id="path4962-1"
       d="m 247.37313,821.66802 316.0103,0"
       inkscape:connector-curvature="0" />
    <path
       style="fill:none;stroke:#000000;stroke-width:1px;stroke-linecap:butt;stroke-linejoin:miter;stroke-opacity:1"
       id="path4964-4"
       d="m 247.37313,836.39902 316.0103,0"
       inkscape:connector-curvature="0" />
    <path
       style="fill:none;stroke:#000000;stroke-width:1px;stroke-linecap:butt;stroke-linejoin:miter;stroke-opacity:1"
       id="path4966-2"
       d="m 247.37313,850.23702 316.0103,0"
       inkscape:connector-curvature="0" />
    <path
       style="fill:none;stroke:#000000;stroke-width:1px;stroke-linecap:butt;stroke-linejoin:miter;stroke-opacity:1"
       id="path4970-3"
       d="m 247.37313,864.96802 316.0103,0"
       inkscape:connector-curvature="0" />
    <path
       style="fill:none;stroke:#000000;stroke-width:1px;stroke-linecap:butt;stroke-linejoin:miter;stroke-opacity:1"
       id="path4980-2"
       d="m 247.37313,878.36002 316.0103,0"
       inkscape:connector-curvature="0" />
    <path
       style="fill:none;stroke:#000000;stroke-width:1px;stroke-linecap:butt;stroke-linejoin:miter;stroke-opacity:1"
       id="path4982-2"
       d="m 247.37313,892.64402 316.0103,0"
       inkscape:connector-curvature="0" />
    <path
       style="fill:none;stroke:#000000;stroke-width:1px;stroke-linecap:butt;stroke-linejoin:miter;stroke-opacity:1"
       id="path4984-1"
       d="m 247.37313,907.37502 316.0103,0"
       inkscape:connector-curvature="0" />
    <path
       style="fill:none;stroke:#000000;stroke-width:1px;stroke-linecap:butt;stroke-linejoin:miter;stroke-opacity:1"
       id="path4986-6"
       d="m 247.37313,920.32002 316.0103,0"
       inkscape:connector-curvature="0" />
    <path
       style="fill:none;stroke:#000000;stroke-width:1px;stroke-linecap:butt;stroke-linejoin:miter;stroke-opacity:1"
       id="path4988-8"
       d="m 247.37313,436.43502 316.0103,0"
       inkscape:connector-curvature="0" />
    <path
       style="fill:none;stroke:#000000;stroke-width:1px;stroke-linecap:butt;stroke-linejoin:miter;stroke-opacity:1"
       id="path4990-5"
       d="m 247.37313,451.16602 316.0103,0"
       inkscape:connector-curvature="0" />
    <path
       style="fill:none;stroke:#000000;stroke-width:1px;stroke-linecap:butt;stroke-linejoin:miter;stroke-opacity:1"
       id="path4992-7"
       d="m 247.37313,465.00402 316.0103,0"
       inkscape:connector-curvature="0" />
    <path
       style="fill:none;stroke:#000000;stroke-width:1px;stroke-linecap:butt;stroke-linejoin:miter;stroke-opacity:1"
       id="path4994-6"
       d="m 347.81055,479.73502 215.57288,0"
       inkscape:connector-curvature="0" />
    <path
       style="fill:none;stroke:#000000;stroke-width:1px;stroke-linecap:butt;stroke-linejoin:miter;stroke-opacity:1"
       id="path4996-1"
       d="m 347.81055,493.12702 215.57288,0"
       inkscape:connector-curvature="0" />
    <path
       style="fill:none;stroke:#000000;stroke-width:1px;stroke-linecap:butt;stroke-linejoin:miter;stroke-opacity:1"
       id="path4998-8"
       d="m 247.37313,507.41102 316.0103,0"
       inkscape:connector-curvature="0" />
    <path
       style="fill:none;stroke:#000000;stroke-width:1px;stroke-linecap:butt;stroke-linejoin:miter;stroke-opacity:1"
       id="path5000-9"
       d="m 247.37313,522.14202 316.0103,0"
       inkscape:connector-curvature="0" />
    <path
       style="fill:none;stroke:#000000;stroke-width:1px;stroke-linecap:butt;stroke-linejoin:miter;stroke-opacity:1"
       id="path5002-2"
       d="m 247.37313,535.08702 316.0103,0"
       inkscape:connector-curvature="0" />
    <path
       style="fill:url(#radialGradient5022-1);fill-opacity:1;stroke:#000000;stroke-width:1;stroke-linecap:butt;stroke-linejoin:miter;stroke-miterlimit:4;stroke-opacity:1;stroke-dasharray:none;stroke-dashoffset:20"
       id="path5012-7"
       transform="translate(-41.704361,-13985.304)"
       d="m 485.87063,14660.434 a 38.787991,38.787991 0 1 1 -77.57598,0 38.787991,38.787991 0 1 1 77.57598,0 z"
       inkscape:connector-curvature="0" />
    <path
       style="fill:#535149;fill-opacity:1;stroke:#000000;stroke-width:1;stroke-linecap:butt;stroke-linejoin:miter;stroke-miterlimit:4;stroke-opacity:1;stroke-dasharray:none;stroke-dashoffset:20"
       id="path5014-9"
       transform="translate(-41.704361,-13985.304)"
       d="m 472.60106,14660.434 a 25.518415,25.518415 0 1 1 -51.03683,0 25.518415,25.518415 0 1 1 51.03683,0 z"
       inkscape:connector-curvature="0" />
  </g>
  <g
     inkscape:groupmode="layer"
     id="layer2"
     inkscape:label="Annotations"
     transform="translate(0,786.21875)" />
  <path
     style="fill:none;stroke:#000000;stroke-width:7;stroke-linecap:butt;stroke-linejoin:miter;stroke-miterlimit:4;stroke-opacity:1;stroke-dasharray:none;marker-start:url(#DotM-1-33)"
     d="m 809.9729,290.25969 -200,0"
     id="path3246"
     inkscape:connector-curvature="0" />
  <g
     id="g6606"
     transform="matrix(1.4702528,0,0,1.4702528,-1326.0897,-414.13183)">
    <rect
       rx="6.9961586"
       ry="6.9961591"
       y="444.44101"
       x="1224.1367"
       height="65.565666"
       width="109.87776"
       id="rect3010-1-7-7-7-0-4"
       style="fill:#efefef;fill-opacity:1;stroke:#777777;stroke-width:1.25542307;stroke-linejoin:miter;stroke-miterlimit:4;stroke-opacity:1;stroke-dasharray:none" />
    <text
       sodipodi:linespacing="125%"
       id="text3878-7-6-9-9-9-4"
       y="491.51102"
       x="1295.4396"
       style="font-size:40px;font-style:normal;font-weight:normal;line-height:125%;letter-spacing:0px;word-spacing:0px;fill:#000000;fill-opacity:1;stroke:#777777;stroke-width:2;stroke-miterlimit:4;stroke-opacity:1;stroke-dasharray:none;font-family:Open Sans Light;-inkscape-font-specification:Open Sans Light"
       xml:space="preserve"><tspan
         style="fill:#777777;fill-opacity:1;stroke:#777777;stroke-width:2;stroke-miterlimit:4;stroke-opacity:1;stroke-dasharray:none"
         y="491.51102"
         x="1295.4396"
         id="tspan3880-4-1-5-3-0-6"
         sodipodi:role="line">B</tspan></text>
    <g
       transform="matrix(1.4876508,0,0,1.4876508,1229.295,449.65772)"
       id="g4776">
      <g
         id="g4760">
        <g
           id="g4762">
          <path
             style="fill:#777777"
             inkscape:connector-curvature="0"
             d="m 19.47,18.949 h -2.699 v 3.887 h 2.496 c 0.717,0 1.267,-0.154 1.644,-0.467 0.378,-0.313 0.563,-0.772 0.563,-1.385 0,-0.659 -0.16,-1.165 -0.48,-1.513 -0.323,-0.347 -0.831,-0.522 -1.524,-0.522 z m 0.919,-2.319 c 0.39,-0.297 0.585,-0.729 0.585,-1.299 0,-0.625 -0.197,-1.086 -0.59,-1.383 -0.393,-0.297 -0.979,-0.445 -1.758,-0.445 h -1.855 v 3.572 h 1.948 c 0.723,0 1.28,-0.148 1.67,-0.445 z M 18.53,3.031 c -8.561,0 -15.5,6.938 -15.5,15.5 0,8.56 6.939,15.5 15.5,15.5 8.563,0 15.5,-6.939 15.5,-15.5 0,-8.562 -6.939,-15.5 -15.5,-15.5 z m 4.364,20.896 c -0.854,0.665 -2.063,0.997 -3.627,0.997 H 14.062 V 11.416 h 4.564 c 1.59,0 2.83,0.31 3.721,0.929 0.891,0.617 1.336,1.543 1.336,2.773 0,0.625 -0.166,1.184 -0.496,1.674 -0.332,0.492 -0.813,0.86 -1.441,1.108 0.811,0.174 1.418,0.544 1.821,1.113 0.405,0.568 0.607,1.229 0.607,1.977 0,1.293 -0.427,2.272 -1.28,2.937 z"
             id="path4764" />
        </g>
      </g>
      <g
         style="opacity:0"
         id="g4766">
        <path
           style="fill:#777777"
           inkscape:connector-curvature="0"
           d="M 36.961,0.1 V 36.961 H 0.1 V 0.1 H 36.961 M 37.061,0 H 0 V 37.06 H 37.061 V 0 l 0,0 z"
           id="path4768" />
      </g>
    </g>
  </g>
  <path
     style="fill:none;stroke:#000000;stroke-width:7;stroke-linecap:butt;stroke-linejoin:miter;stroke-miterlimit:4;stroke-opacity:1;stroke-dasharray:none;marker-start:url(#DotM-1-33)"
     d="m 961.5,439.14339 0,-359.999996"
     id="path4276"
     inkscape:connector-curvature="0" />
  <g
     id="g6430"
     transform="matrix(1.1753096,0,0,1.1753096,746.57835,-390.86111)">
    <rect
       rx="8.0921574"
       ry="9.7497978"
       y="367.0589"
       x="19.222054"
       height="90.334206"
       width="326.25293"
       id="rect3010"
       style="fill:#efefef;fill-opacity:1;stroke:#777777;stroke-width:2.53900003;stroke-linejoin:miter;stroke-miterlimit:32.40000153;stroke-opacity:1;stroke-dasharray:none;stroke-dashoffset:0" />
    <text
       sodipodi:linespacing="125%"
       id="text3878"
       y="426.36661"
       x="114.76841"
       style="font-size:40px;font-style:normal;font-weight:300;line-height:125%;letter-spacing:0px;word-spacing:0px;fill:#000000;fill-opacity:1;stroke:#777777;stroke-width:2;stroke-miterlimit:32.40000153;stroke-opacity:1;stroke-dasharray:none;stroke-dashoffset:0;font-family:Open Sans Light;-inkscape-font-specification:'Open Sans Light, Light'"
       xml:space="preserve"><tspan
         style="font-style:normal;font-weight:300;fill:#777777;fill-opacity:1;stroke:#777777;stroke-width:2;stroke-miterlimit:32.40000153;stroke-opacity:1;stroke-dasharray:none;stroke-dashoffset:0;-inkscape-font-specification:'Open Sans Light, Light'"
         y="426.36661"
         x="114.76841"
         id="tspan3880"
         sodipodi:role="line">D-PAD UP</tspan></text>
    <g
       transform="matrix(1.9490067,0,0,1.9490067,23.973023,376.11089)"
       id="g3827">
      <g
         id="g3829">
        <g
           id="g3831">
          <path
             style="fill:#777777"
             inkscape:connector-curvature="0"
             d="m 22.086,37.06 h -7.111 c -2.289,0 -3.119,-1.866 -3.119,-3.121 V 25.207 H 3.121 C 0.831,25.206 0,23.34 0,22.085 v -7.11 c 0,-2.289 1.867,-3.12 3.121,-3.12 h 8.733 V 3.121 C 11.855,0.831 13.72,0 14.974,0 h 7.111 c 2.29,0 3.121,1.867 3.121,3.121 v 8.732 h 8.731 c 2.29,0 3.121,1.865 3.121,3.12 v 7.11 c 0,2.29 -1.866,3.121 -3.121,3.121 h -8.731 v 8.732 c 0.001,2.293 -1.865,3.124 -3.12,3.124 z M 3.121,13.354 C 2.745,13.359 1.5,13.493 1.5,14.974 v 7.11 c 0.006,0.376 0.139,1.621 1.621,1.621 h 10.233 v 10.232 c 0.005,0.376 0.14,1.621 1.619,1.621 h 7.108 c 0.384,-0.007 1.624,-0.143 1.624,-1.621 V 23.706 h 10.231 c 0.376,-0.006 1.621,-0.14 1.621,-1.621 v -7.11 c -0.006,-0.376 -0.14,-1.62 -1.621,-1.62 H 23.706 V 3.121 C 23.701,2.745 23.567,1.5 22.086,1.5 h -7.111 c -0.376,0.006 -1.619,0.14 -1.619,1.621 v 10.232 l -10.235,10e-4 0,0 z"
             id="path3833" />
        </g>
      </g>
      <g
         id="g3835">
        <path
           style="fill:#777777"
           inkscape:connector-curvature="0"
           d="m 18.531,22.181 c -2.013,0 -3.649,-1.639 -3.649,-3.651 0,-2.012 1.638,-3.65 3.649,-3.65 2.013,0 3.65,1.639 3.65,3.65 10e-4,2.013 -1.637,3.651 -3.65,3.651 z m 0,-5.802 c -1.186,0 -2.149,0.965 -2.149,2.15 0,1.185 0.965,2.151 2.149,2.151 1.186,0 2.15,-0.966 2.15,-2.151 10e-4,-1.185 -0.964,-2.15 -2.15,-2.15 z"
           id="path3837" />
      </g>
      <g
         id="g3839">
        <path
           style="fill:#777777"
           inkscape:connector-curvature="0"
           d="m 18.53,3.183 -3.005,4.684 h 6.012 L 18.53,3.183 z"
           id="path3841" />
        <path
           style="fill:#777777"
           inkscape:connector-curvature="0"
           d="m 21.536,8.616 h -6.012 c -0.273,0 -0.525,-0.15 -0.657,-0.39 C 14.735,7.985 14.746,7.692 14.893,7.46 l 3.005,-4.684 c 0.276,-0.431 0.986,-0.43 1.264,0 l 3.005,4.684 c 0.147,0.231 0.159,0.524 0.026,0.766 -0.13,0.24 -0.382,0.39 -0.657,0.39 z m -4.639,-1.5 h 3.268 L 18.53,4.571 16.897,7.116 z"
           id="path3843" />
      </g>
      <g
         id="g3845">
        <path
           style="fill:#777777"
           inkscape:connector-curvature="0"
           d="m 7.809,22.284 c -0.141,0 -0.282,-0.04 -0.405,-0.119 L 2.72,19.162 C 2.505,19.024 2.375,18.786 2.375,18.531 c 0,-0.255 0.13,-0.493 0.345,-0.631 l 4.684,-3.006 c 0.23,-0.148 0.524,-0.158 0.766,-0.027 0.24,0.131 0.39,0.384 0.39,0.658 v 6.01 c 0,0.274 -0.148,0.526 -0.39,0.658 -0.114,0.061 -0.238,0.091 -0.361,0.091 z M 4.514,18.53 7.059,20.162 V 16.897 L 4.514,18.53 z"
           id="path3847" />
      </g>
      <g
         id="g3849">
        <path
           style="fill:#777777"
           inkscape:connector-curvature="0"
           d="m 29.195,22.284 c -0.124,0 -0.246,-0.03 -0.358,-0.092 -0.241,-0.132 -0.392,-0.384 -0.392,-0.658 v -6.01 c 0,-0.274 0.149,-0.526 0.392,-0.658 0.239,-0.131 0.533,-0.123 0.765,0.027 l 4.685,3.005 c 0.215,0.138 0.345,0.376 0.345,0.631 0,0.255 -0.13,0.493 -0.345,0.631 l -4.685,3.004 c -0.124,0.08 -0.266,0.12 -0.407,0.12 z m 0.75,-5.388 v 3.266 l 2.546,-1.633 -2.546,-1.633 z"
           id="path3851" />
      </g>
      <g
         id="g3853">
        <path
           style="fill:#777777"
           inkscape:connector-curvature="0"
           d="m 18.53,34.626 0,0 c -0.255,0 -0.492,-0.13 -0.631,-0.345 L 14.894,29.597 C 14.747,29.366 14.736,29.073 14.868,28.831 15,28.589 15.252,28.44 15.525,28.44 h 6.012 c 0.273,0 0.525,0.148 0.657,0.391 0.133,0.24 0.121,0.533 -0.026,0.766 l -3.005,4.684 c -0.14,0.215 -0.377,0.345 -0.633,0.345 z m -1.633,-4.684 1.633,2.545 1.635,-2.545 h -3.268 z"
           id="path3855" />
      </g>
    </g>
  </g>
  <path
     style="fill:none;stroke:#000000;stroke-width:7;stroke-linecap:butt;stroke-linejoin:miter;stroke-miterlimit:4;stroke-opacity:1;stroke-dasharray:none;marker-start:url(#DotM-1-33)"
     d="m 1044.5,534.01839 360,0"
     id="path4276-4"
     inkscape:connector-curvature="0" />
  <path
     style="fill:none;stroke:#000000;stroke-width:7;stroke-linecap:butt;stroke-linejoin:miter;stroke-miterlimit:4;stroke-opacity:1;stroke-dasharray:none;marker-start:url(#DotM-1-33)"
     d="m 878,534.01839 -360,0"
     id="path4276-4-4"
     inkscape:connector-curvature="0" />
  <path
     style="fill:none;stroke:#000000;stroke-width:7;stroke-linecap:butt;stroke-linejoin:miter;stroke-miterlimit:4;stroke-opacity:1;stroke-dasharray:none;marker-start:url(#DotM-1-33)"
     d="m 961.5,627.42655 0,360.00004"
     id="path4276-4-4-2"
     inkscape:connector-curvature="0" />
  <g
     id="g6490"
     transform="matrix(1.1753096,0,0,1.1753096,1244.6235,-343.57631)">
    <rect
       rx="7.989696"
       ry="9.753747"
       y="701.48499"
       x="19.316416"
       height="90.145302"
       width="377.27231"
       id="rect3010-1-7-7"
       style="fill:#efefef;fill-opacity:1;stroke:#777777;stroke-width:2.72769594;stroke-linejoin:miter;stroke-miterlimit:4;stroke-opacity:1;stroke-dasharray:none" />
    <text
       transform="scale(0.9943335,1.0056988)"
       sodipodi:linespacing="125%"
       id="text3878-7-6-9"
       y="756.55365"
       x="115.46254"
       style="font-size:39.77554321px;font-style:normal;font-weight:normal;line-height:125%;letter-spacing:0px;word-spacing:0px;fill:#000000;fill-opacity:1;stroke:#777777;stroke-width:1.98877716;stroke-miterlimit:4;stroke-opacity:1;stroke-dasharray:none;font-family:Open Sans Light;-inkscape-font-specification:Open Sans Light"
       xml:space="preserve"><tspan
         style="fill:#777777;fill-opacity:1;stroke:#777777;stroke-width:1.98877716;stroke-miterlimit:4;stroke-opacity:1;stroke-dasharray:none"
         y="756.55365"
         x="115.46254"
         id="tspan3880-4-1-5"
         sodipodi:role="line">D-PAD RIGHT</tspan></text>
    <g
       transform="matrix(1.9260273,0,0,1.9490016,23.973023,710.44265)"
       id="g4464">
      <g
         id="g4466">
        <g
           id="g4468">
          <path
             style="fill:#777777"
             inkscape:connector-curvature="0"
             d="m 22.086,37.06 h -7.111 c -2.289,0 -3.119,-1.866 -3.119,-3.121 V 25.207 H 3.121 C 0.831,25.206 0,23.34 0,22.085 v -7.11 c 0,-2.289 1.867,-3.12 3.121,-3.12 h 8.733 V 3.121 C 11.855,0.831 13.72,0 14.974,0 h 7.111 c 2.29,0 3.121,1.867 3.121,3.121 v 8.732 h 8.731 c 2.29,0 3.121,1.865 3.121,3.12 v 7.11 c 0,2.29 -1.866,3.121 -3.121,3.121 h -8.731 v 8.732 c 0.001,2.293 -1.865,3.124 -3.12,3.124 z M 3.121,13.354 C 2.745,13.359 1.5,13.493 1.5,14.974 v 7.11 c 0.006,0.376 0.139,1.621 1.621,1.621 h 10.233 v 10.232 c 0.005,0.376 0.14,1.621 1.619,1.621 h 7.108 c 0.384,-0.007 1.624,-0.143 1.624,-1.621 V 23.706 h 10.231 c 0.376,-0.006 1.621,-0.14 1.621,-1.621 v -7.11 c -0.006,-0.376 -0.14,-1.62 -1.621,-1.62 H 23.706 V 3.121 C 23.701,2.745 23.567,1.5 22.086,1.5 h -7.111 c -0.376,0.006 -1.619,0.14 -1.619,1.621 v 10.232 l -10.235,10e-4 0,0 z"
             id="path4470" />
        </g>
      </g>
      <g
         id="g4472">
        <path
           style="fill:#777777"
           inkscape:connector-curvature="0"
           d="m 18.531,22.181 c -2.013,0 -3.649,-1.639 -3.649,-3.651 0,-2.012 1.638,-3.65 3.649,-3.65 2.013,0 3.65,1.639 3.65,3.65 10e-4,2.013 -1.637,3.651 -3.65,3.651 z m 0,-5.802 c -1.186,0 -2.149,0.965 -2.149,2.15 0,1.185 0.965,2.151 2.149,2.151 1.186,0 2.15,-0.966 2.15,-2.151 10e-4,-1.185 -0.964,-2.15 -2.15,-2.15 z"
           id="path4474" />
      </g>
      <g
         id="g4476">
        <path
           style="fill:#777777"
           inkscape:connector-curvature="0"
           d="m 21.536,8.616 h -6.012 c -0.273,0 -0.525,-0.15 -0.657,-0.39 C 14.735,7.985 14.746,7.692 14.893,7.46 l 3.005,-4.684 c 0.276,-0.431 0.986,-0.43 1.264,0 l 3.005,4.684 c 0.147,0.231 0.159,0.524 0.026,0.766 -0.13,0.24 -0.382,0.39 -0.657,0.39 z m -4.639,-1.5 h 3.268 L 18.53,4.571 16.897,7.116 z"
           id="path4478" />
      </g>
      <g
         id="g4480">
        <path
           style="fill:#777777"
           inkscape:connector-curvature="0"
           d="m 7.809,22.284 c -0.141,0 -0.282,-0.04 -0.405,-0.119 L 2.72,19.162 C 2.505,19.024 2.375,18.786 2.375,18.531 c 0,-0.255 0.13,-0.493 0.345,-0.631 l 4.684,-3.006 c 0.23,-0.148 0.524,-0.158 0.766,-0.027 0.24,0.131 0.39,0.384 0.39,0.658 v 6.01 c 0,0.274 -0.148,0.526 -0.39,0.658 -0.114,0.061 -0.238,0.091 -0.361,0.091 z M 4.514,18.53 7.059,20.162 V 16.897 L 4.514,18.53 z"
           id="path4482" />
      </g>
      <g
         id="g4484">
        <path
           style="fill:#777777"
           inkscape:connector-curvature="0"
           d="m 33.879,18.529 -4.685,-3.005 v 6.01 l 4.685,-3.005 z"
           id="path4486" />
        <path
           style="fill:#777777"
           inkscape:connector-curvature="0"
           d="m 29.195,22.284 c -0.124,0 -0.246,-0.03 -0.358,-0.092 -0.241,-0.132 -0.392,-0.384 -0.392,-0.658 v -6.01 c 0,-0.274 0.149,-0.526 0.392,-0.658 0.239,-0.131 0.533,-0.123 0.765,0.027 l 4.685,3.005 c 0.215,0.138 0.345,0.376 0.345,0.631 0,0.255 -0.13,0.493 -0.345,0.631 l -4.685,3.004 c -0.124,0.08 -0.266,0.12 -0.407,0.12 z m 0.75,-5.388 v 3.266 l 2.546,-1.633 -2.546,-1.633 z"
           id="path4488" />
      </g>
      <g
         id="g4490">
        <path
           style="fill:#777777"
           inkscape:connector-curvature="0"
           d="m 18.53,34.626 0,0 c -0.255,0 -0.492,-0.13 -0.631,-0.345 L 14.894,29.597 C 14.747,29.366 14.736,29.073 14.868,28.831 15,28.589 15.252,28.44 15.525,28.44 h 6.012 c 0.273,0 0.525,0.148 0.657,0.391 0.133,0.24 0.121,0.533 -0.026,0.766 l -3.005,4.684 c -0.14,0.215 -0.377,0.345 -0.633,0.345 z m -1.633,-4.684 1.633,2.545 1.635,-2.545 h -3.268 z"
           id="path4492" />
      </g>
    </g>
  </g>
  <g
     id="g6450"
     transform="matrix(1.1753096,0,0,1.1753096,255.35452,-71.989763)">
    <rect
       rx="7.7155509"
       ry="9.7568998"
       y="470.31415"
       x="19.222176"
       height="90.333786"
       width="326.25278"
       id="rect3010-1-7"
       style="fill:#efefef;fill-opacity:1;stroke:#777777;stroke-width:2.53921366;stroke-linejoin:miter;stroke-miterlimit:4;stroke-opacity:1;stroke-dasharray:none" />
    <g
       transform="matrix(1.9489989,0,0,1.9490016,23.973023,479.36603)"
       id="g4375">
      <g
         id="g4377">
        <g
           id="g4379">
          <path
             style="fill:#777777"
             inkscape:connector-curvature="0"
             d="m 22.086,37.06 h -7.111 c -2.289,0 -3.119,-1.866 -3.119,-3.121 V 25.207 H 3.121 C 0.831,25.206 0,23.34 0,22.085 v -7.11 c 0,-2.289 1.867,-3.12 3.121,-3.12 h 8.733 V 3.121 C 11.855,0.831 13.72,0 14.974,0 h 7.111 c 2.29,0 3.121,1.867 3.121,3.121 v 8.732 h 8.731 c 2.29,0 3.121,1.865 3.121,3.12 v 7.11 c 0,2.29 -1.866,3.121 -3.121,3.121 h -8.731 v 8.732 c 0.001,2.293 -1.865,3.124 -3.12,3.124 z M 3.121,13.354 C 2.745,13.359 1.5,13.493 1.5,14.974 v 7.11 c 0.006,0.376 0.139,1.621 1.621,1.621 h 10.233 v 10.232 c 0.005,0.376 0.14,1.621 1.619,1.621 h 7.108 c 0.384,-0.007 1.624,-0.143 1.624,-1.621 V 23.706 h 10.231 c 0.376,-0.006 1.621,-0.14 1.621,-1.621 v -7.11 c -0.006,-0.376 -0.14,-1.62 -1.621,-1.62 H 23.706 V 3.121 C 23.701,2.745 23.567,1.5 22.086,1.5 h -7.111 c -0.376,0.006 -1.619,0.14 -1.619,1.621 v 10.232 l -10.235,10e-4 0,0 z"
             id="path4381" />
        </g>
      </g>
      <g
         id="g4383">
        <path
           style="fill:#777777"
           inkscape:connector-curvature="0"
           d="m 18.531,22.181 c -2.013,0 -3.649,-1.639 -3.649,-3.651 0,-2.012 1.638,-3.65 3.649,-3.65 2.013,0 3.65,1.639 3.65,3.65 10e-4,2.013 -1.637,3.651 -3.65,3.651 z m 0,-5.802 c -1.186,0 -2.149,0.965 -2.149,2.15 0,1.185 0.965,2.151 2.149,2.151 1.186,0 2.15,-0.966 2.15,-2.151 10e-4,-1.185 -0.964,-2.15 -2.15,-2.15 z"
           id="path4385" />
      </g>
      <g
         id="g4387">
        <path
           style="fill:#777777"
           inkscape:connector-curvature="0"
           d="m 21.536,8.616 h -6.012 c -0.273,0 -0.525,-0.15 -0.657,-0.39 C 14.735,7.985 14.746,7.692 14.893,7.46 l 3.005,-4.684 c 0.276,-0.431 0.986,-0.43 1.264,0 l 3.005,4.684 c 0.147,0.231 0.159,0.524 0.026,0.766 -0.13,0.24 -0.382,0.39 -0.657,0.39 z m -4.639,-1.5 h 3.268 L 18.53,4.571 16.897,7.116 z"
           id="path4389" />
      </g>
      <g
         id="g4391">
        <path
           style="fill:#777777"
           inkscape:connector-curvature="0"
           d="m 3.125,18.53 4.684,3.004 v -6.01 L 3.125,18.53 z"
           id="path4393" />
        <path
           style="fill:#777777"
           inkscape:connector-curvature="0"
           d="m 7.809,22.284 c -0.141,0 -0.282,-0.04 -0.405,-0.119 L 2.72,19.162 C 2.505,19.024 2.375,18.786 2.375,18.531 c 0,-0.255 0.13,-0.493 0.345,-0.631 l 4.684,-3.006 c 0.23,-0.148 0.524,-0.158 0.766,-0.027 0.24,0.131 0.39,0.384 0.39,0.658 v 6.01 c 0,0.274 -0.148,0.526 -0.39,0.658 -0.114,0.061 -0.238,0.091 -0.361,0.091 z M 4.514,18.53 7.059,20.162 V 16.897 L 4.514,18.53 z"
           id="path4395" />
      </g>
      <g
         id="g4397">
        <path
           style="fill:#777777"
           inkscape:connector-curvature="0"
           d="m 29.195,22.284 c -0.124,0 -0.246,-0.03 -0.358,-0.092 -0.241,-0.132 -0.392,-0.384 -0.392,-0.658 v -6.01 c 0,-0.274 0.149,-0.526 0.392,-0.658 0.239,-0.131 0.533,-0.123 0.765,0.027 l 4.685,3.005 c 0.215,0.138 0.345,0.376 0.345,0.631 0,0.255 -0.13,0.493 -0.345,0.631 l -4.685,3.004 c -0.124,0.08 -0.266,0.12 -0.407,0.12 z m 0.75,-5.388 v 3.266 l 2.546,-1.633 -2.546,-1.633 z"
           id="path4399" />
      </g>
      <g
         id="g4401">
        <path
           style="fill:#777777"
           inkscape:connector-curvature="0"
           d="m 18.53,34.626 0,0 c -0.255,0 -0.492,-0.13 -0.631,-0.345 L 14.894,29.597 C 14.747,29.366 14.736,29.073 14.868,28.831 15,28.589 15.252,28.44 15.525,28.44 h 6.012 c 0.273,0 0.525,0.148 0.657,0.391 0.133,0.24 0.121,0.533 -0.026,0.766 l -3.005,4.684 c -0.14,0.215 -0.377,0.345 -0.633,0.345 z m -1.633,-4.684 1.633,2.545 1.635,-2.545 h -3.268 z"
           id="path4403" />
      </g>
    </g>
    <text
       sodipodi:linespacing="125%"
       id="text3878-7-6"
       y="529.81696"
       x="114.76841"
       style="font-size:40px;font-style:normal;font-weight:normal;line-height:125%;letter-spacing:0px;word-spacing:0px;fill:#000000;fill-opacity:1;stroke:#777777;stroke-width:2;stroke-miterlimit:4;stroke-opacity:1;stroke-dasharray:none;font-family:Open Sans Light;-inkscape-font-specification:Open Sans Light"
       xml:space="preserve"><tspan
         style="fill:#777777;fill-opacity:1;stroke:#777777;stroke-width:2;stroke-miterlimit:4;stroke-opacity:1;stroke-dasharray:none"
         y="529.81696"
         x="114.76841"
         id="tspan3880-4-1"
         sodipodi:role="line">D-PAD LEFT</tspan></text>
  </g>
  <g
     id="g6470"
     transform="matrix(1.1753096,0,0,1.1753096,716.48566,250.32816)">
    <rect
       rx="7.9896955"
       ry="9.7537479"
       y="585.60773"
       x="19.316418"
       height="90.145302"
       width="377.27231"
       id="rect3010-1"
       style="fill:#efefef;fill-opacity:1;stroke:#777777;stroke-width:2.72769618;stroke-linejoin:miter;stroke-miterlimit:4;stroke-opacity:1;stroke-dasharray:none" />
    <text
       sodipodi:linespacing="125%"
       id="text3878-7"
       y="644.98706"
       x="114.76841"
       style="font-size:40px;font-style:normal;font-weight:normal;line-height:125%;letter-spacing:0px;word-spacing:0px;fill:#000000;fill-opacity:1;stroke:#777777;stroke-width:2;stroke-miterlimit:4;stroke-opacity:1;stroke-dasharray:none;font-family:Open Sans Light;-inkscape-font-specification:Open Sans Light"
       xml:space="preserve"><tspan
         style="fill:#777777;fill-opacity:1;stroke:#777777;stroke-width:2;stroke-miterlimit:4;stroke-opacity:1;stroke-dasharray:none"
         y="644.98706"
         x="114.76841"
         id="tspan3880-4"
         sodipodi:role="line">D-PAD DOWN</tspan></text>
    <g
       transform="matrix(1.9479339,0,0,1.9490016,23.973023,594.56539)"
       id="g4108">
      <g
         id="g4110">
        <g
           id="g4112">
          <path
             style="fill:#777777"
             inkscape:connector-curvature="0"
             d="m 22.086,37.06 h -7.111 c -2.289,0 -3.119,-1.866 -3.119,-3.121 V 25.207 H 3.121 C 0.831,25.206 0,23.34 0,22.085 v -7.11 c 0,-2.289 1.867,-3.12 3.121,-3.12 h 8.733 V 3.121 C 11.855,0.831 13.72,0 14.974,0 h 7.111 c 2.29,0 3.121,1.867 3.121,3.121 v 8.732 h 8.731 c 2.29,0 3.121,1.865 3.121,3.12 v 7.11 c 0,2.29 -1.866,3.121 -3.121,3.121 h -8.731 v 8.732 c 0.001,2.293 -1.865,3.124 -3.12,3.124 z M 3.121,13.354 C 2.745,13.359 1.5,13.493 1.5,14.974 v 7.11 c 0.006,0.376 0.139,1.621 1.621,1.621 h 10.233 v 10.232 c 0.005,0.376 0.14,1.621 1.619,1.621 h 7.108 c 0.384,-0.007 1.624,-0.143 1.624,-1.621 V 23.706 h 10.231 c 0.376,-0.006 1.621,-0.14 1.621,-1.621 v -7.11 c -0.006,-0.376 -0.14,-1.62 -1.621,-1.62 H 23.706 V 3.121 C 23.701,2.745 23.567,1.5 22.086,1.5 h -7.111 c -0.376,0.006 -1.619,0.14 -1.619,1.621 v 10.232 l -10.235,10e-4 0,0 z"
             id="path4114" />
        </g>
      </g>
      <g
         id="g4116">
        <path
           style="fill:#777777"
           inkscape:connector-curvature="0"
           d="m 18.531,22.181 c -2.013,0 -3.649,-1.639 -3.649,-3.651 0,-2.012 1.638,-3.65 3.649,-3.65 2.013,0 3.65,1.639 3.65,3.65 10e-4,2.013 -1.637,3.651 -3.65,3.651 z m 0,-5.802 c -1.186,0 -2.149,0.965 -2.149,2.15 0,1.185 0.965,2.151 2.149,2.151 1.186,0 2.15,-0.966 2.15,-2.151 10e-4,-1.185 -0.964,-2.15 -2.15,-2.15 z"
           id="path4118" />
      </g>
      <g
         id="g4120">
        <path
           style="fill:#777777"
           inkscape:connector-curvature="0"
           d="m 21.536,8.616 h -6.012 c -0.273,0 -0.525,-0.15 -0.657,-0.39 C 14.735,7.985 14.746,7.692 14.893,7.46 l 3.005,-4.684 c 0.276,-0.431 0.986,-0.43 1.264,0 l 3.005,4.684 c 0.147,0.231 0.159,0.524 0.026,0.766 -0.13,0.24 -0.382,0.39 -0.657,0.39 z m -4.639,-1.5 h 3.268 L 18.53,4.571 16.897,7.116 z"
           id="path4122" />
      </g>
      <g
         id="g4124">
        <path
           style="fill:#777777"
           inkscape:connector-curvature="0"
           d="m 7.809,22.284 c -0.141,0 -0.282,-0.04 -0.405,-0.119 L 2.72,19.162 C 2.505,19.024 2.375,18.786 2.375,18.531 c 0,-0.255 0.13,-0.493 0.345,-0.631 l 4.684,-3.006 c 0.23,-0.148 0.524,-0.158 0.766,-0.027 0.24,0.131 0.39,0.384 0.39,0.658 v 6.01 c 0,0.274 -0.148,0.526 -0.39,0.658 -0.114,0.061 -0.238,0.091 -0.361,0.091 z M 4.514,18.53 7.059,20.162 V 16.897 L 4.514,18.53 z"
           id="path4126" />
      </g>
      <g
         id="g4128">
        <path
           style="fill:#777777"
           inkscape:connector-curvature="0"
           d="m 29.195,22.284 c -0.124,0 -0.246,-0.03 -0.358,-0.092 -0.241,-0.132 -0.392,-0.384 -0.392,-0.658 v -6.01 c 0,-0.274 0.149,-0.526 0.392,-0.658 0.239,-0.131 0.533,-0.123 0.765,0.027 l 4.685,3.005 c 0.215,0.138 0.345,0.376 0.345,0.631 0,0.255 -0.13,0.493 -0.345,0.631 l -4.685,3.004 c -0.124,0.08 -0.266,0.12 -0.407,0.12 z m 0.75,-5.388 v 3.266 l 2.546,-1.633 -2.546,-1.633 z"
           id="path4130" />
      </g>
      <g
         id="g4132">
        <path
           style="fill:#777777"
           inkscape:connector-curvature="0"
           d="m 18.53,33.876 3.007,-4.684 h -6.012 l 3.005,4.684 z"
           id="path4134" />
        <path
           style="fill:#777777"
           inkscape:connector-curvature="0"
           d="m 18.53,34.626 0,0 c -0.255,0 -0.492,-0.13 -0.631,-0.345 L 14.894,29.597 C 14.747,29.366 14.736,29.073 14.868,28.831 15,28.589 15.252,28.44 15.525,28.44 h 6.012 c 0.273,0 0.525,0.148 0.657,0.391 0.133,0.24 0.121,0.533 -0.026,0.766 l -3.005,4.684 c -0.14,0.215 -0.377,0.345 -0.633,0.345 z m -1.633,-4.684 1.633,2.545 1.635,-2.545 h -3.268 z"
           id="path4136" />
      </g>
    </g>
  </g>
</svg>
