<?xml version="1.0" encoding="UTF-8" standalone="no"?>
<!-- Created with Inkscape (http://www.inkscape.org/) -->

<svg
   xmlns:dc="http://purl.org/dc/elements/1.1/"
   xmlns:cc="http://creativecommons.org/ns#"
   xmlns:rdf="http://www.w3.org/1999/02/22-rdf-syntax-ns#"
   xmlns:svg="http://www.w3.org/2000/svg"
   xmlns="http://www.w3.org/2000/svg"
   version="1.1"
   width="619.92798"
   height="340.98157"
   id="svg4609">
  <defs
     id="defs4611" />
  <metadata
     id="metadata4614">
    <rdf:RDF>
      <cc:Work
         rdf:about="">
        <dc:format>image/svg+xml</dc:format>
        <dc:type
           rdf:resource="http://purl.org/dc/dcmitype/StillImage" />
        <dc:title></dc:title>
      </cc:Work>
    </rdf:RDF>
  </metadata>
  <g
     transform="translate(-30.036007,-347.58093)"
     id="layer1">
    <path
       d="m 68.853391,637.49908 c -5.76323,0.768 -6.53166,1.537 -9.9896,0 -4.9948,-4.611 -19.210781,-12.294 -25.742441,-34.963 -8.44564,-30.742 6.14745,-174.049 11.910681,-194.413 2.68951,-3.074 4.61059,-1.153 9.60539,-0.769"
       id="path4480"
       style="fill:#e4e7f0;fill-opacity:1;stroke:#000000;stroke-width:1px;stroke-linecap:butt;stroke-linejoin:miter;stroke-opacity:1" />
    <path
       d="m 611.14661,637.49958 c 5.76323,0.768 6.53166,1.537 9.9896,0 4.9948,-4.611 19.21078,-12.294 25.74244,-34.963 8.44564,-30.742 -6.14745,-174.05 -11.91068,-194.413 -2.68951,-3.074 -4.61059,-1.153 -9.60539,-0.769"
       id="path4474"
       style="fill:#e4e7f0;fill-opacity:1;stroke:#000000;stroke-width:1px;stroke-linecap:butt;stroke-linejoin:miter;stroke-opacity:1" />
    <path
       d="m 623.18874,398.61858 c 0,0 6.86726,0.822 8.65157,-2.012 1.78431,-2.834 -10.56289,-21.428 -27.16191,-25.351 -16.59902,-3.923 -78.66894,-12.676 -91.9481,-13.682 l 3.21919,37.625"
       id="path4478"
       style="fill:#e4e7f0;fill-opacity:1;stroke:#000000;stroke-width:1px;stroke-linecap:butt;stroke-linejoin:miter;stroke-opacity:1" />
    <path
       d="m 56.811261,398.61808 c 0,0 -6.86726,0.822 -8.65157,-2.012 -1.78431,-2.834 10.56289,-21.428 27.161908,-25.351 16.59902,-3.923 78.668941,-12.676 91.948101,-13.682 l -3.21919,37.625"
       id="path4482"
       style="fill:#e4e7f0;fill-opacity:1;stroke:#000000;stroke-width:1px;stroke-linecap:butt;stroke-linejoin:miter;stroke-opacity:1" />
    <path
       d="m 526.20048,662.59608 c 24.2416,-10.256 76.72955,-22.988 85.11699,-24.852 8.38745,-1.864 25.39535,-12.807 31.6859,-32.307 6.29054,-19.501 -17.39618,-196.328 -18.01747,-201.92 -0.62129,-5.592 -2.79136,-10.562 -20.50263,-13.047 -17.71127,-2.486 -59.60569,-10.849 -82.01055,-26.715 -22.40485,-15.867 -38.52009,-15.222 -44.73301,-15.533 -6.21292,-0.311 -137.70653,0 -137.70653,0 0,0 -131.49362,-0.311 -137.70654,0 -6.21292,0.311 -22.32816,-0.334 -44.73301,15.533 -22.40486,15.866 -64.299281,24.229 -82.010551,26.715 -17.711267,2.485 -19.881337,7.455 -20.502627,13.047 -0.62129,5.592 -24.308011,182.419 -18.017471,201.92 6.290551,19.5 23.298451,30.443 31.685901,32.307 8.387437,1.864 60.875388,14.596 85.116988,24.852 24.2416,10.256 59.88717,25.473 186.16731,25.473 126.28013,0 161.9257,-15.217 186.1673,-25.473 z"
       id="path3666"
       style="fill:#3f4695;fill-opacity:1;stroke:#000000;stroke-width:1px;stroke-linecap:butt;stroke-linejoin:miter;stroke-opacity:1" />
    <path
       d="m 496.90388,626.50108 c 17.70461,-18.905 4.20109,-216.056 -4.80125,-230.46 -9.00235,-14.403 -115.21094,-15.604 -151.71357,-15.604 -36.50264,0 -142.71123,1.201 -151.71358,15.604 -9.00234,14.404 -22.50586,211.555 -4.80125,230.46 17.70461,18.905 100.16701,28.807 156.51483,28.807 56.34781,0 138.81021,-9.902 156.51482,-28.807 z"
       id="path4469"
       style="fill:#222331;fill-opacity:1;stroke:#000000;stroke-width:1px;stroke-linecap:butt;stroke-linejoin:miter;stroke-opacity:1" />
    <rect
       width="278.47247"
       height="183.04764"
       x="201.15282"
       y="409.24521"
       id="rect4472"
       style="fill:#0d0e22;fill-opacity:1;stroke:none" />
    <path
       d="m 102.17361,449.52608 c -1.52394,0 -2.750781,1.226 -2.750781,2.749 l 0,23.811 -23.81146,0 c -1.52392,0 -2.75078,1.227 -2.75078,2.751 l 0,19.363 c 0,1.525 1.22686,2.751 2.75078,2.751 l 23.81146,0 0,23.813 c 0,1.523 1.226841,2.749 2.750781,2.749 l 19.36293,0 c 1.52392,0 2.75078,-1.226 2.75078,-2.749 l 0,-23.813 23.83293,0 c 1.52394,0 2.75079,-1.226 2.75079,-2.751 l 0,-19.363 c 0,-1.524 -1.22685,-2.751 -2.75079,-2.751 l -23.83293,0 0,-23.811 c 0,-1.524 -1.22686,-2.749 -2.75078,-2.749 l -19.36293,0 z"
       id="path4142-1-1"
       style="fill:#e4e7f0;fill-opacity:1;stroke:#000000;stroke-width:0.54188699;stroke-linecap:butt;stroke-linejoin:miter;stroke-miterlimit:4;stroke-opacity:1;stroke-dasharray:none;stroke-dashoffset:0" />
    <path
       d="m 134.15073,1730.3092 12.36509,21.4169 -24.73018,0 z"
       transform="matrix(0.68769555,0,0,0.68769555,19.610962,-735.31854)"
       id="path4144-7-7"
       style="fill:#e4e7f0;fill-opacity:1;stroke:#4d4d4d;stroke-width:0.78797519;stroke-linecap:butt;stroke-linejoin:round;stroke-miterlimit:4;stroke-opacity:1;stroke-dasharray:none;stroke-dashoffset:0" />
    <path
       d="m 134.15073,1730.3092 12.36509,21.4169 -24.73018,0 z"
       transform="matrix(0.68769555,0,0,-0.68769555,19.610962,1713.3366)"
       id="path4146-4-4"
       style="fill:#e4e7f0;fill-opacity:1;stroke:#4d4d4d;stroke-width:0.78797519;stroke-linecap:butt;stroke-linejoin:round;stroke-miterlimit:4;stroke-opacity:1;stroke-dasharray:none;stroke-dashoffset:0" />
    <path
       d="m 134.15073,1730.3092 12.36509,21.4169 -24.73018,0 z"
       transform="matrix(0,0.68769555,-0.68769555,0,1334.5419,396.26458)"
       id="path4148-0-0"
       style="fill:#e4e7f0;fill-opacity:1;stroke:#4d4d4d;stroke-width:0.78797519;stroke-linecap:butt;stroke-linejoin:round;stroke-miterlimit:4;stroke-opacity:1;stroke-dasharray:none;stroke-dashoffset:0" />
    <path
       d="m 134.15073,1730.3092 12.36509,21.4169 -24.73018,0 z"
       transform="matrix(0,0.68769555,0.68769555,0,-1114.1133,396.26458)"
       id="path4150-9-9"
       style="fill:#e4e7f0;fill-opacity:1;stroke:#4d4d4d;stroke-width:0.78797519;stroke-linecap:butt;stroke-linejoin:round;stroke-miterlimit:4;stroke-opacity:1;stroke-dasharray:none;stroke-dashoffset:0" />
    <path
       d="m 417.59955,658.8125 a 12.747952,12.747952 0 1 1 -25.49591,0 12.747952,12.747952 0 1 1 25.49591,0 z"
       transform="matrix(0.68769555,0,0,0.68769555,-166.54882,35.457578)"
       id="path4152-4-4"
       style="fill:#e4e7f0;fill-opacity:1;stroke:#4d4d4d;stroke-width:0.78797519;stroke-linecap:round;stroke-linejoin:round;stroke-miterlimit:4;stroke-opacity:1;stroke-dasharray:none" />
    <path
       d="m 577.92795,10509.011 a 18.918919,18.918919 0 1 1 -37.83784,0 18.918919,18.918919 0 1 1 37.83784,0 z"
       transform="translate(-17.429987,-10010.053)"
       id="path4517"
       style="fill:#e4e7f0;fill-opacity:1;stroke:#000000;stroke-opacity:1" />
    <path
       d="m 577.92795,10509.011 a 18.918919,18.918919 0 1 1 -37.83784,0 18.918919,18.918919 0 1 1 37.83784,0 z"
       transform="translate(39.326769,-10029.873)"
       id="path4519"
       style="fill:#e4e7f0;fill-opacity:1;stroke:#000000;stroke-opacity:1" />
    <rect
       width="69.156181"
       height="21.481245"
       rx="11"
       ry="11"
       x="228.80025"
       y="510.58789"
       transform="matrix(0.97124929,0.23806475,-0.23806475,0.97124929,0,0)"
       id="rect4541"
       style="fill:#2f3685;fill-opacity:1;stroke:#000000;stroke-width:1;stroke-linecap:butt;stroke-linejoin:miter;stroke-miterlimit:4;stroke-opacity:1;stroke-dasharray:none;stroke-dashoffset:20" />
    <path
       d="m 567.91071,10509.011 a 8.9016809,8.9016809 0 1 1 -17.80336,0 8.9016809,8.9016809 0 1 1 17.80336,0 z"
       transform="translate(-404.57889,-9934.3031)"
       id="path4519-8"
       style="fill:#e4e7f0;fill-opacity:1;stroke:#000000;stroke-opacity:1" />
    <rect
       width="69.156181"
       height="21.481245"
       rx="11"
       ry="11"
       x="237.0036"
       y="544.05566"
       transform="matrix(0.97124929,0.23806475,-0.23806475,0.97124929,0,0)"
       id="rect4545"
       style="fill:#2f3685;fill-opacity:1;stroke:#000000;stroke-width:1;stroke-linecap:butt;stroke-linejoin:miter;stroke-miterlimit:4;stroke-opacity:1;stroke-dasharray:none;stroke-dashoffset:20" />
    <path
       d="m 567.91071,10509.011 a 8.9016809,8.9016809 0 1 1 -17.80336,0 8.9016809,8.9016809 0 1 1 17.80336,0 z"
       transform="translate(-404.57889,-9899.7201)"
       id="path4539"
       style="fill:#e4e7f0;fill-opacity:1;stroke:#000000;stroke-opacity:1" />
    <rect
       width="71.895691"
       height="5.6784153"
       rx="3"
       ry="3"
       x="-440.98297"
       y="672.93805"
       transform="matrix(-0.97124929,0.23806475,0.23806475,0.97124929,0,0)"
       id="rect4541-8"
       style="fill:#2f3685;fill-opacity:1;stroke:#000000;stroke-width:1;stroke-linecap:butt;stroke-linejoin:miter;stroke-miterlimit:4;stroke-opacity:1;stroke-dasharray:none;stroke-dashoffset:20" />
    <rect
       width="71.895691"
       height="5.6784153"
       rx="3"
       ry="3"
       x="-437.92474"
       y="685.41461"
       transform="matrix(-0.97124929,0.23806475,0.23806475,0.97124929,0,0)"
       id="rect4567"
       style="fill:#2f3685;fill-opacity:1;stroke:#000000;stroke-width:1;stroke-linecap:butt;stroke-linejoin:miter;stroke-miterlimit:4;stroke-opacity:1;stroke-dasharray:none;stroke-dashoffset:20" />
    <rect
       width="71.895691"
       height="5.6784153"
       rx="3"
       ry="3"
       x="-434.8924"
       y="697.78571"
       transform="matrix(-0.97124929,0.23806475,0.23806475,0.97124929,0,0)"
       id="rect4569"
       style="fill:#2f3685;fill-opacity:1;stroke:#000000;stroke-width:1;stroke-linecap:butt;stroke-linejoin:miter;stroke-miterlimit:4;stroke-opacity:1;stroke-dasharray:none;stroke-dashoffset:20" />
    <rect
       width="71.895691"
       height="5.6784153"
       rx="3"
       ry="3"
       x="-431.86005"
       y="710.1568"
       transform="matrix(-0.97124929,0.23806475,0.23806475,0.97124929,0,0)"
       id="rect4571"
       style="fill:#2f3685;fill-opacity:1;stroke:#000000;stroke-width:1;stroke-linecap:butt;stroke-linejoin:miter;stroke-miterlimit:4;stroke-opacity:1;stroke-dasharray:none;stroke-dashoffset:20" />
    <rect
       width="71.895691"
       height="5.6784153"
       rx="3"
       ry="3"
       x="-428.8277"
       y="722.52789"
       transform="matrix(-0.97124929,0.23806475,0.23806475,0.97124929,0,0)"
       id="rect4573"
       style="fill:#2f3685;fill-opacity:1;stroke:#000000;stroke-width:1;stroke-linecap:butt;stroke-linejoin:miter;stroke-miterlimit:4;stroke-opacity:1;stroke-dasharray:none;stroke-dashoffset:20" />
  </g>
</svg>
